<?xml version="1.0" standalone="no"?>
<!DOCTYPE svg PUBLIC "-//W3C//DTD SVG 1.1//EN" "http://www.w3.org/Graphics/SVG/1.1/DTD/svg11.dtd" >
<svg>
<metadata>
Created by FontForge 20090914 at Mon Feb  4 22:45:37 2019
 By www-data
Copyright 2000, 2004 , 2005Adobe Systems Incorporated. All Rights Reserved. U.S. Patent D454,582.Myriad is a registered trademark of Adobe Systems Incorporated.
</metadata>
<defs>
<font id="MyriadPro-LightSemiExt" horiz-adv-x="300" >
  <font-face 
    font-family="Myriad Pro"
    font-weight="300"
    font-stretch="semi-expanded"
    units-per-em="1000"
    panose-1="2 11 4 5 3 4 3 2 2 4"
    ascent="750"
    descent="-250"
    x-height="480"
    cap-height="674"
    bbox="-160 -250 1100 940"
    underline-thickness="50"
    underline-position="-50"
    stemh="39"
    stemv="49"
    unicode-range="U+0020-U+FB04"
  />
<missing-glyph horiz-adv-x="500" 
d="M0 0v700h500v-700h-500zM250 395l170 255h-340zM280 350l170 -255v510zM80 50h340l-170 255zM50 605v-510l170 255z" />
    <glyph glyph-name="f_f_j" unicode="ffj" horiz-adv-x="823" 
d="M706 692l-24 -38c-23 18 -62 33 -105 33c-107 0 -137 -86 -137 -179v-28h295v-445c0 -83 -10 -146 -55 -194c-38 -40 -105 -53 -140 -53l-5 40c48 1 87 14 111 39c28 30 40 68 40 204v370h-246v-441h-49v441h-254v-441h-49v441h-73v39h73v22c0 64 18 128 60 170
c27 27 65 44 115 44c35 0 73 -15 93 -27l-20 -38c-19 12 -49 24 -78 24c-34 0 -59 -11 -77 -30c-34 -34 -44 -92 -44 -147v-18h254v29c0 130 62 219 195 219c43 0 95 -16 120 -36z" />
    <glyph glyph-name="f_j" unicode="fj" horiz-adv-x="520" 
d="M137 0h-49v441h-73v39h73v29c0 130 62 219 195 219c43 0 95 -16 120 -36l-24 -38c-23 18 -62 33 -105 33c-107 0 -137 -86 -137 -179v-28h295v-445c0 -83 -10 -146 -55 -194c-38 -40 -105 -53 -140 -53l-5 40c48 1 87 14 111 39c28 30 40 68 40 204v370h-246v-441z" />
    <glyph glyph-name="f_f" unicode="ff" horiz-adv-x="588" 
d="M440 0h-49v441h-254v-441h-49v441h-73v39h73v15c0 78 18 140 57 179c27 27 64 42 112 42c33 0 64 -12 80 -23l-19 -37c-15 10 -40 19 -66 19c-92 0 -115 -82 -115 -174v-21h254v23c0 82 17 143 58 182c30 28 70 43 114 43c34 0 64 -9 79 -18l-16 -38c-15 8 -35 15 -67 15
c-98 0 -119 -86 -119 -183v-24h141v-39h-141v-441z" />
    <glyph glyph-name="f_i" unicode="fi" horiz-adv-x="520" 
d="M137 0h-49v441h-73v39h73v29c0 130 62 219 195 219c43 0 95 -16 120 -36l-24 -38c-23 18 -62 33 -105 33c-107 0 -137 -86 -137 -179v-28h295v-480h-49v441h-246v-441z" />
    <glyph glyph-name="f_l" unicode="fl" horiz-adv-x="520" 
d="M137 0h-49v441h-73v39h73v18c0 80 23 140 69 182c34 30 81 48 148 48c51 0 96 -11 127 -27v-701h-49v671c-18 9 -44 16 -88 16c-121 0 -158 -86 -158 -181v-26h141v-39h-141v-441z" />
    <glyph glyph-name="f_f_i" unicode="ffi" horiz-adv-x="823" 
d="M706 692l-24 -38c-23 18 -62 33 -105 33c-107 0 -137 -86 -137 -179v-28h295v-480h-49v441h-246v-441h-49v441h-254v-441h-49v441h-73v39h73v22c0 64 18 128 60 170c27 27 65 44 115 44c35 0 73 -15 93 -27l-20 -38c-19 12 -49 24 -78 24c-34 0 -59 -11 -77 -30
c-34 -34 -44 -92 -44 -147v-18h254v29c0 130 62 219 195 219c43 0 95 -16 120 -36z" />
    <glyph glyph-name="f_f_l" unicode="ffl" horiz-adv-x="823" 
d="M355 693l-20 -38c-23 13 -49 20 -75 20c-35 0 -60 -11 -79 -30c-33 -33 -44 -88 -44 -145v-20h254v18c0 80 23 140 69 182c34 30 81 48 148 48c51 0 96 -11 127 -27v-701h-49v671c-18 9 -44 16 -88 16c-121 0 -158 -86 -158 -181v-26h141v-39h-141v-441h-49v441h-254
v-441h-49v441h-73v39h73v10c0 63 12 136 58 182c27 27 65 44 118 44c37 0 75 -14 91 -23z" />
    <glyph glyph-name=".notdef" horiz-adv-x="500" 
d="M0 0v700h500v-700h-500zM250 395l170 255h-340zM280 350l170 -255v510zM80 50h340l-170 255zM50 605v-510l170 255z" />
    <glyph glyph-name="space" unicode=" " horiz-adv-x="240" 
 />
    <glyph glyph-name="exclam" unicode="!" horiz-adv-x="215" 
d="M127 180h-41l-10 494h61zM107 -12h-1c-24 0 -42 22 -41 46c0 27 18 47 43 47s42 -20 42 -47c0 -24 -17 -46 -43 -46z" />
    <glyph glyph-name="quotedbl" unicode="&#x22;" horiz-adv-x="302" 
d="M60 695h60l-14 -222h-32zM182 695h60l-14 -222h-32z" />
    <glyph glyph-name="numbersign" unicode="#" horiz-adv-x="500" 
d="M179 247h122l20 161h-122zM148 0h-43l26 208h-91v39h96l20 161h-95v39h100l26 203h42l-25 -203h122l26 203h42l-25 -203h91v-39h-96l-20 -161h96v-39h-101l-26 -208h-43l26 208h-122z" />
    <glyph glyph-name="dollar" unicode="$" horiz-adv-x="530" 
d="M273 -85h-42v105c-54 0 -115 17 -152 47l22 38c34 -27 85 -46 139 -46c85 0 143 52 143 119c0 65 -47 104 -125 136c-115 47 -167 92 -167 171c0 78 58 139 150 151v107h42v-107c60 -2 99 -20 128 -39l-22 -38c-19 13 -60 38 -125 38c-93 0 -127 -58 -127 -106
c0 -59 38 -90 134 -130c99 -42 159 -89 159 -180c0 -66 -49 -145 -157 -161v-105z" />
    <glyph glyph-name="percent" unicode="%" horiz-adv-x="770" 
d="M180 662h1c83 0 140 -63 140 -193c0 -139 -65 -207 -148 -207c-74 0 -141 60 -143 195c0 140 75 205 150 205zM176 628h-1c-59 0 -102 -63 -102 -166c-3 -103 41 -166 102 -166c69 0 103 64 103 169c0 98 -30 163 -102 163zM203 -12h-41l403 674h41zM599 395h1
c83 0 140 -63 140 -193c0 -139 -65 -207 -148 -207c-74 0 -141 60 -143 195c0 140 75 205 150 205zM595 361h-1c-59 0 -102 -63 -102 -166c-3 -103 41 -166 102 -166c69 0 103 64 103 169c0 98 -30 163 -102 163z" />
    <glyph glyph-name="ampersand" unicode="&#x26;" horiz-adv-x="590" 
d="M599 0h-63c-25 23 -47 47 -81 77c-78 -69 -147 -89 -224 -89c-111 0 -201 78 -201 189c0 102 68 161 144 199v3c-42 53 -62 102 -62 145c0 82 59 162 163 162c80 0 138 -57 138 -135c0 -73 -44 -128 -171 -185v-3c84 -94 169 -182 213 -227c33 42 57 98 77 217h46
c-22 -120 -51 -196 -95 -243c44 -43 80 -78 116 -110zM243 27h1c77 0 140 34 183 78c-28 27 -129 130 -230 242c-44 -22 -119 -71 -119 -163c0 -95 74 -157 165 -157zM268 648h-1c-71 0 -109 -57 -109 -119c0 -59 32 -101 59 -136c88 42 150 82 150 153
c0 48 -29 102 -99 102z" />
    <glyph glyph-name="quotesingle" unicode="'" horiz-adv-x="180" 
d="M60 695h60l-14 -222h-32z" />
    <glyph glyph-name="parenleft" unicode="(" horiz-adv-x="270" 
d="M218 698h47c-92 -107 -153 -230 -153 -415c0 -180 65 -298 153 -407h-47c-76 89 -153 212 -153 408c0 198 77 322 153 414z" />
    <glyph glyph-name="parenright" unicode=")" horiz-adv-x="270" 
d="M52 -124h-47c88 107 153 229 153 412c0 182 -63 301 -153 410h47c76 -89 153 -213 153 -411c0 -197 -77 -319 -153 -411z" />
    <glyph glyph-name="asterisk" unicode="*" horiz-adv-x="400" 
d="M265 686l46 -26l-92 -123v-2l151 12v-49l-150 14v-3l91 -119l-49 -27l-63 134h-2l-71 -134l-40 27l91 120v3l-147 -15v49l146 -11v2l-90 121l47 27l66 -133h2z" />
    <glyph glyph-name="plus" unicode="+" horiz-adv-x="596" 
d="M276 532h44v-245h236v-40h-236v-247h-44v247h-236v40h236v245z" />
    <glyph glyph-name="comma" unicode="," horiz-adv-x="175" 
d="M66 -121l-39 -5c16 42 43 150 52 212l64 10c-18 -75 -61 -189 -77 -217z" />
    <glyph glyph-name="hyphen" unicode="-" 
d="M30 304h240v-43h-240v43z" />
    <glyph glyph-name="period" unicode="." horiz-adv-x="175" 
d="M97 -12h-1c-24 0 -42 22 -41 46c0 27 18 47 43 47s42 -20 42 -47c0 -24 -17 -46 -43 -46z" />
    <glyph glyph-name="slash" unicode="/" horiz-adv-x="374" 
d="M24 -40h-48l357 726h51z" />
    <glyph glyph-name="zero" unicode="0" horiz-adv-x="530" 
d="M273 662c127 0 216 -105 216 -325c0 -231 -88 -349 -232 -349c-110 0 -212 101 -216 333c0 236 115 341 232 341zM265 622c-94 0 -173 -100 -173 -302c0 -189 72 -292 171 -292c120 0 175 120 175 302c0 174 -51 292 -173 292z" />
    <glyph glyph-name="one" unicode="1" horiz-adv-x="530" 
d="M250 0v602h-2l-106 -61l-12 39l121 70h47v-650h-48z" />
    <glyph glyph-name="two" unicode="2" horiz-adv-x="530" 
d="M469 0h-420v31l64 59c216 200 287 275 287 377c0 71 -31 152 -156 152c-65 0 -120 -33 -153 -62l-20 33c50 45 113 72 183 72c151 0 196 -113 196 -182c0 -130 -96 -223 -285 -396l-46 -41v-2h350v-41z" />
    <glyph glyph-name="three" unicode="3" horiz-adv-x="530" 
d="M50 36l20 39c26 -18 88 -45 156 -45c154 0 180 105 179 150c-2 113 -110 152 -209 152h-49v41h52c81 0 177 40 177 130c0 55 -33 117 -137 117c-56 0 -109 -24 -141 -49l-20 36c34 27 100 55 166 55c137 0 183 -83 183 -153c0 -67 -45 -125 -128 -154v-2
c90 -17 157 -83 157 -171c0 -93 -71 -194 -237 -194c-76 0 -140 27 -169 48z" />
    <glyph glyph-name="four" unicode="4" horiz-adv-x="530" 
d="M396 0h-47v190h-343v33l352 427h38v-419h108v-41h-108v-190zM65 231h284v279c0 24 0 50 2 73l-3 1c-18 -28 -33 -47 -47 -64l-236 -287v-2z" />
    <glyph glyph-name="five" unicode="5" horiz-adv-x="530" 
d="M437 650v-43h-267l-31 -209c17 2 35 5 70 5c45 0 81 -6 120 -21c57 -22 117 -84 117 -176c0 -130 -105 -218 -232 -218c-77 0 -137 25 -166 46l20 39c28 -19 82 -43 150 -43c103 0 180 74 179 166c-1 88 -58 165 -201 165c-43 0 -79 -4 -105 -8l41 297h305z" />
    <glyph glyph-name="six" unicode="6" horiz-adv-x="530" 
d="M421 662l1 -45c-22 0 -51 -1 -81 -7c-146 -28 -239 -146 -251 -279h2c31 50 98 98 186 98c133 0 213 -92 213 -212c0 -108 -76 -229 -222 -229c-120 0 -231 87 -231 276c0 136 53 238 119 298c50 46 116 78 190 92c28 6 55 8 74 8zM272 29h1c103 0 167 85 167 186
c0 110 -74 172 -174 172c-68 0 -133 -41 -165 -96c-7 -13 -13 -27 -13 -42c0 -120 62 -220 184 -220z" />
    <glyph glyph-name="seven" unicode="7" horiz-adv-x="530" 
d="M71 650h410v-39l-319 -611h-48l316 607v2h-359v41z" />
    <glyph glyph-name="eight" unicode="8" horiz-adv-x="530" 
d="M187 342v4c-87 33 -117 90 -117 146c0 98 86 170 203 170c114 0 189 -68 189 -158c0 -51 -23 -116 -123 -156v-4c102 -33 148 -95 148 -168c0 -118 -109 -188 -222 -188c-120 0 -222 66 -222 177c0 79 49 141 144 177zM264 28c110 0 173 66 173 139
c0 95 -68 135 -189 161c-101 -22 -154 -80 -154 -154c-5 -75 59 -146 170 -146zM268 623c-99 0 -150 -61 -150 -124c-1 -78 57 -119 161 -139c76 20 133 65 133 141c0 53 -37 122 -144 122z" />
    <glyph glyph-name="nine" unicode="9" horiz-adv-x="530" 
d="M113 -12v45c21 -2 49 0 84 5c59 8 113 35 157 82c43 46 76 111 89 202l-3 -1c-46 -59 -110 -91 -186 -91c-135 0 -202 102 -202 199c0 118 88 233 229 233c113 0 211 -86 211 -276c0 -157 -61 -258 -124 -313c-44 -39 -105 -67 -155 -76c-40 -7 -75 -10 -100 -9zM270 621
h-1c-104 0 -168 -91 -168 -190c0 -90 65 -159 160 -159c79 0 142 39 173 88c4 7 9 17 9 30c0 127 -52 231 -173 231z" />
    <glyph glyph-name="colon" unicode=":" horiz-adv-x="175" 
d="M97 353h-1c-24 0 -42 22 -41 46c0 27 18 47 43 47s42 -20 42 -47c0 -24 -17 -46 -43 -46zM97 -12h-1c-24 0 -42 22 -41 46c0 27 18 47 43 47s42 -20 42 -47c0 -24 -17 -46 -43 -46z" />
    <glyph glyph-name="semicolon" unicode=";" horiz-adv-x="175" 
d="M66 -121l-39 -5c16 42 43 150 52 212l64 10c-18 -75 -61 -189 -77 -217zM104 353h-1c-24 0 -42 22 -41 46c0 27 18 47 43 47s42 -20 42 -47c0 -24 -17 -46 -43 -46z" />
    <glyph glyph-name="less" unicode="&#x3c;" horiz-adv-x="596" 
d="M71 249v34l454 249v-47l-407 -218v-2l407 -218v-47z" />
    <glyph glyph-name="equal" unicode="=" horiz-adv-x="596" 
d="M556 345h-516v40h516v-40zM556 155h-516v40h516v-40z" />
    <glyph glyph-name="greater" unicode="&#x3e;" horiz-adv-x="596" 
d="M525 283v-34l-454 -249v47l407 218v2l-407 218v47z" />
    <glyph glyph-name="question" unicode="?" horiz-adv-x="410" 
d="M198 177h-45l-4 31c-7 54 18 115 74 176c58 62 80 105 80 152c0 59 -37 106 -118 106c-40 0 -85 -13 -113 -36l-20 35c39 31 100 45 142 45c112 0 162 -75 162 -147c0 -57 -28 -105 -90 -172c-54 -60 -73 -108 -70 -154zM176 -12h-1c-24 0 -42 22 -41 46
c0 27 18 47 43 47s42 -20 42 -47c0 -24 -17 -46 -43 -46z" />
    <glyph glyph-name="at" unicode="@" horiz-adv-x="766" 
d="M486 266l23 113c-13 5 -38 12 -73 12c-104 0 -194 -83 -194 -197c0 -47 28 -90 88 -90c78 0 144 98 156 162zM528 -26l16 -36c-56 -31 -118 -44 -186 -44c-173 0 -320 132 -320 322c0 198 139 376 376 376c191 0 314 -135 314 -309c0 -137 -91 -217 -176 -217
c-38 0 -81 29 -74 100h-4c-37 -63 -85 -100 -163 -100c-57 0 -114 51 -114 129c0 133 114 234 245 234c49 0 84 -9 115 -22l-34 -167c-19 -92 -3 -134 38 -135c58 -2 120 64 120 173c0 159 -102 277 -275 277c-177 0 -321 -128 -321 -334c0 -169 124 -288 276 -288
c65 0 124 14 167 41z" />
    <glyph glyph-name="A" unicode="A" horiz-adv-x="640" 
d="M474 237h-300l-93 -237h-51l272 674h48l270 -674h-51zM191 278h267l-95 237c-18 45 -27 74 -37 107h-2c-10 -34 -21 -64 -37 -104z" />
    <glyph glyph-name="B" unicode="B" horiz-adv-x="548" 
d="M88 0v665c41 9 95 15 151 15c92 0 150 -19 190 -59c28 -28 42 -64 42 -111c0 -67 -51 -127 -119 -150v-3c49 -10 147 -55 147 -169c0 -55 -20 -96 -51 -127c-47 -47 -124 -67 -233 -67c-52 0 -97 4 -127 6zM137 631v-255h118c106 0 166 59 166 132
c0 103 -85 131 -185 131c-53 0 -82 -4 -99 -8zM137 336v-295c23 -5 55 -6 95 -6c106 0 216 31 216 151c0 106 -96 150 -210 150h-101z" />
    <glyph glyph-name="C" unicode="C" horiz-adv-x="640" 
d="M590 66l15 -39c-38 -19 -114 -39 -211 -39c-182 0 -356 111 -356 346c0 176 130 352 383 352c102 0 159 -23 182 -34l-16 -41c-40 20 -100 34 -163 34c-219 0 -335 -133 -335 -315c0 -166 111 -300 323 -300c66 0 132 13 178 36z" />
    <glyph glyph-name="D" unicode="D" horiz-adv-x="724" 
d="M88 0v665c60 8 127 15 202 15c143 0 252 -39 315 -108c56 -61 81 -133 81 -220c0 -77 -23 -171 -93 -246c-65 -69 -179 -112 -330 -112c-61 0 -117 1 -175 6zM137 626v-585c32 -5 80 -6 134 -6c256 0 365 141 365 316c2 165 -104 288 -350 288c-65 0 -114 -6 -149 -13z
" />
    <glyph glyph-name="E" unicode="E" horiz-adv-x="511" 
d="M437 376v-41h-300v-294h334v-41h-383v674h366v-41h-317v-257h300z" />
    <glyph glyph-name="F" unicode="F" horiz-adv-x="510" 
d="M88 0v674h366v-41h-317v-265h290v-41h-290v-327h-49z" />
    <glyph glyph-name="G" unicode="G" horiz-adv-x="694" 
d="M631 333v-299c-36 -14 -116 -41 -226 -41c-103 0 -194 26 -269 96c-60 56 -98 147 -98 249c0 158 120 343 391 343c84 0 152 -21 180 -34l-16 -40c-41 19 -93 33 -166 33c-221 0 -338 -137 -338 -304c0 -175 119 -302 325 -302c83 0 137 12 168 28v231h-174v40h223z" />
    <glyph glyph-name="H" unicode="H" horiz-adv-x="696" 
d="M88 674h49v-295h422v295h49v-674h-49v338h-422v-338h-49v674z" />
    <glyph glyph-name="I" unicode="I" horiz-adv-x="225" 
d="M88 674h49v-674h-49v674z" />
    <glyph glyph-name="J" unicode="J" horiz-adv-x="378" 
d="M249 233v441h49v-454c0 -188 -100 -232 -196 -232c-36 0 -78 10 -96 19l12 40c19 -9 48 -17 84 -17c93 0 147 44 147 203z" />
    <glyph glyph-name="K" unicode="K" horiz-adv-x="540" 
d="M88 0v674h49v-345h4c20 26 42 48 61 68l269 277h62l-284 -287l314 -387h-61l-287 356l-78 -78v-278h-49z" />
    <glyph glyph-name="L" unicode="L" horiz-adv-x="490" 
d="M88 0v674h49v-633h334v-41h-383z" />
    <glyph glyph-name="M" unicode="M" horiz-adv-x="845" 
d="M732 0l-21 318c-7 100 -16 230 -16 302h-2c-27 -72 -58 -150 -101 -252l-156 -368h-37l-146 363c-42 105 -73 185 -95 257h-2c-3 -78 -8 -201 -17 -312l-24 -308h-48l54 674h56l162 -402c34 -84 60 -154 80 -215h2c18 57 45 125 83 214l170 403h58l48 -674h-48z" />
    <glyph glyph-name="N" unicode="N" horiz-adv-x="706" 
d="M136 0h-48v674h46l305 -415c62 -84 102 -137 137 -197l2 2c-7 78 -8 158 -8 262v348h48v-674h-45l-295 401c-57 78 -109 149 -145 209l-3 -2c5 -76 6 -148 6 -248v-360z" />
    <glyph glyph-name="O" unicode="O" horiz-adv-x="753" 
d="M380 686c198 0 335 -146 335 -340c0 -233 -166 -358 -342 -358c-192 0 -335 143 -335 340c0 212 150 358 342 358zM378 646c-192 0 -289 -150 -289 -316c0 -159 109 -302 286 -302c178 0 289 135 289 314c0 146 -95 304 -286 304z" />
    <glyph glyph-name="P" unicode="P" horiz-adv-x="548" 
d="M88 0v667c43 7 98 13 160 13c90 0 155 -22 195 -60c34 -32 54 -76 54 -131c0 -59 -18 -105 -52 -139c-46 -48 -123 -73 -212 -73c-35 0 -68 1 -96 10v-287h-49zM137 630v-300c28 -9 64 -12 102 -12c134 0 209 61 209 165c0 116 -92 156 -201 156c-51 0 -90 -5 -110 -9z
" />
    <glyph glyph-name="Q" unicode="Q" horiz-adv-x="753" 
d="M722 -45l-14 -46c-101 21 -204 46 -289 69c-15 4 -28 10 -43 10c-187 5 -338 133 -338 339c0 215 150 359 343 359c197 0 334 -146 334 -340c0 -183 -99 -299 -242 -341v-4c86 -17 181 -37 249 -46zM373 28h1c178 0 290 135 290 314c0 146 -95 304 -283 304
c-195 0 -292 -152 -292 -318c0 -160 110 -300 284 -300z" />
    <glyph glyph-name="R" unicode="R" horiz-adv-x="549" 
d="M88 0v665c46 9 112 15 164 15c96 0 156 -20 197 -60c29 -27 48 -72 48 -118c0 -89 -57 -150 -139 -175v-2c55 -19 91 -70 107 -137c25 -106 39 -159 55 -188h-52c-11 19 -26 78 -45 162c-22 97 -66 142 -158 147h-128v-309h-49zM137 629v-280h130c111 0 181 58 181 145
c0 108 -89 146 -197 146c-55 0 -95 -6 -114 -11z" />
    <glyph glyph-name="S" unicode="S" horiz-adv-x="505" 
d="M46 38l19 41c44 -30 102 -50 167 -50c109 0 175 58 175 141c0 77 -39 121 -152 157c-135 43 -189 98 -189 186c0 99 85 173 209 173c71 0 124 -17 150 -34l-19 -41c-19 13 -67 35 -133 35c-121 0 -159 -73 -159 -126c0 -72 43 -113 152 -148c123 -40 189 -88 189 -197
c0 -93 -68 -187 -229 -187c-64 0 -139 20 -180 50z" />
    <glyph glyph-name="T" unicode="T" horiz-adv-x="510" 
d="M231 0v633h-251v41h551v-41h-251v-633h-49z" />
    <glyph glyph-name="U" unicode="U" horiz-adv-x="691" 
d="M88 674h49v-389c0 -183 91 -256 203 -256c125 0 214 78 214 256v389h49v-385c0 -217 -123 -301 -266 -301c-131 0 -249 76 -249 296v390z" />
    <glyph glyph-name="V" unicode="V" horiz-adv-x="545" 
d="M286 0h-48l-246 674h52l133 -371c37 -104 66 -183 87 -253h2c23 71 57 154 97 252l150 372h53z" />
    <glyph glyph-name="W" unicode="W" horiz-adv-x="881" 
d="M250 0h-48l-191 674h50l107 -387c24 -86 47 -169 61 -226h2c12 55 39 138 68 226l124 387h48l109 -386c23 -82 47 -168 58 -227h2c16 63 40 136 68 225l124 388h51l-223 -674h-48l-109 386c-30 106 -47 170 -57 231h-2c-12 -59 -33 -124 -68 -229z" />
    <glyph glyph-name="X" unicode="X" horiz-adv-x="600" 
d="M568 0h-58l-112 159l-103 148h-2c-23 -37 -47 -73 -98 -149l-105 -158h-58l236 341l-226 333h58l120 -182l78 -118h2c22 34 46 67 81 117l128 183h59l-242 -330z" />
    <glyph glyph-name="Y" unicode="Y" horiz-adv-x="541" 
d="M297 0h-49v288l-236 386h56l125 -210c32 -54 57 -94 82 -141h2c22 43 51 88 84 141l131 210h56l-251 -388v-286z" />
    <glyph glyph-name="Z" unicode="Z" horiz-adv-x="605" 
d="M37 0v33l461 597v3h-423v41h488v-34l-462 -596v-3h469v-41h-533z" />
    <glyph glyph-name="bracketleft" unicode="[" horiz-adv-x="270" 
d="M275 -112h-185v798h185v-38h-140v-722h140v-38z" />
    <glyph glyph-name="backslash" unicode="\" horiz-adv-x="370" 
d="M394 -40h-50l-354 726h50z" />
    <glyph glyph-name="bracketright" unicode="]" horiz-adv-x="270" 
d="M-5 686h185v-798h-185v38h140v722h-140v38z" />
    <glyph glyph-name="asciicircum" unicode="^" horiz-adv-x="596" 
d="M526 196h-47l-180 409h-2l-180 -409h-47l205 454h46z" />
    <glyph glyph-name="underscore" unicode="_" horiz-adv-x="500" 
d="M0 -75h500v-50h-500v50z" />
    <glyph glyph-name="grave" unicode="`" 
d="M29 692h74l91 -140h-38z" />
    <glyph glyph-name="a" unicode="a" horiz-adv-x="496" 
d="M416 290v-174c0 -39 2 -77 8 -116h-45l-8 74h-2c-25 -37 -86 -86 -174 -86c-109 0 -153 74 -153 132c0 109 101 180 325 177v11c0 36 -8 144 -136 143c-48 0 -98 -12 -138 -40l-16 35c53 35 112 46 158 46c163 0 181 -126 181 -202zM367 154v102
c-127 4 -273 -16 -273 -127c0 -68 49 -101 105 -101c93 0 143 55 162 98c4 10 6 20 6 28z" />
    <glyph glyph-name="b" unicode="b" horiz-adv-x="613" 
d="M88 116v600h49v-335h2c34 64 100 111 200 111c141 0 231 -111 231 -245c0 -170 -120 -259 -239 -259c-84 0 -151 29 -197 105h-2l-3 -93h-45c3 39 4 77 4 116zM137 274v-83c0 -12 2 -25 5 -37c20 -67 89 -126 181 -126c122 0 198 86 198 217c0 112 -72 207 -192 207
c-79 0 -156 -45 -184 -134c-4 -12 -8 -26 -8 -44z" />
    <glyph glyph-name="c" unicode="c" horiz-adv-x="498" 
d="M444 62l14 -39c-21 -10 -79 -35 -161 -35c-153 0 -254 106 -254 245c0 160 119 259 273 259c71 0 126 -20 146 -34l-18 -40c-28 16 -70 32 -132 32c-143 0 -220 -94 -220 -211c0 -125 90 -209 212 -209c69 0 112 20 140 32z" />
    <glyph glyph-name="d" unicode="d" horiz-adv-x="602" 
d="M465 716h49v-600c0 -39 1 -77 4 -116h-45l-3 100h-2c-28 -60 -94 -112 -194 -112c-135 0 -231 108 -231 241c-1 156 107 263 242 263c100 0 157 -53 178 -92h2v316zM465 202v85c0 14 -2 33 -6 47c-21 65 -83 118 -173 118c-114 0 -194 -87 -194 -217
c0 -108 63 -207 193 -207c82 0 154 56 174 132c4 13 6 26 6 42z" />
    <glyph glyph-name="e" unicode="e" horiz-adv-x="537" 
d="M490 240h-399c0 -140 89 -210 203 -210c83 0 123 16 154 30l13 -39c-17 -8 -71 -33 -172 -33c-149 0 -246 101 -246 240c0 163 104 264 240 264c178 0 209 -158 209 -222c0 -15 0 -22 -2 -30zM94 279h347c1 50 -20 173 -164 173c-122 0 -173 -100 -183 -173z" />
    <glyph glyph-name="f" unicode="f" horiz-adv-x="285" 
d="M137 0h-49v441h-73v39h73v23c0 82 17 143 58 182c30 28 70 43 114 43c34 0 64 -9 79 -18l-16 -38c-15 8 -35 15 -67 15c-98 0 -119 -86 -119 -183v-24h141v-39h-141v-441z" />
    <glyph glyph-name="g" unicode="g" horiz-adv-x="602" 
d="M514 364v-293c0 -117 -29 -184 -74 -224c-50 -45 -122 -59 -180 -59c-60 0 -129 15 -171 47l18 39c39 -26 91 -46 161 -46c115 0 197 58 197 204v70h-2c-28 -51 -91 -102 -191 -102c-137 0 -229 113 -229 234c0 161 118 258 240 258c106 0 163 -55 185 -101h2l3 89h45
c-3 -39 -4 -77 -4 -116zM465 207v80c0 19 -2 35 -7 50c-23 64 -84 115 -170 115c-115 0 -196 -84 -196 -212c0 -96 60 -200 194 -200c76 0 143 49 169 115c6 15 10 34 10 52z" />
    <glyph glyph-name="h" unicode="h" horiz-adv-x="591" 
d="M88 0v716h49v-333h2c15 30 41 59 74 78c31 19 69 31 108 31c46 0 187 -20 187 -218v-274h-49v272c0 93 -40 177 -151 177c-76 0 -140 -54 -163 -113c-6 -15 -8 -29 -8 -51v-285h-49z" />
    <glyph glyph-name="i" unicode="i" horiz-adv-x="225" 
d="M137 0h-49v480h49v-480zM113 665c23 0 40 -20 40 -43c0 -22 -16 -43 -42 -43c-23 0 -39 21 -39 43s18 43 41 43z" />
    <glyph glyph-name="j" unicode="j" horiz-adv-x="230" 
d="M-53 -212l-5 40c48 1 87 14 111 39c28 30 40 68 40 204v409h49v-445c0 -83 -10 -146 -55 -194c-38 -40 -105 -53 -140 -53zM119 665c23 0 39 -21 39 -43c0 -21 -15 -43 -42 -43c-24 0 -39 22 -39 43c0 22 18 43 42 43z" />
    <glyph glyph-name="k" unicode="k" horiz-adv-x="458" 
d="M137 716v-467h2c13 15 36 39 53 55l187 176h62l-214 -198l245 -282h-61l-219 254l-55 -53v-201h-49v716h49z" />
    <glyph glyph-name="l" unicode="l" horiz-adv-x="225" 
d="M88 0v716h49v-716h-49z" />
    <glyph glyph-name="m" unicode="m" horiz-adv-x="897" 
d="M88 0v364c0 39 -1 77 -4 116h46l4 -93h2c35 60 85 105 173 105c76 0 130 -53 151 -114h2c14 29 32 51 50 67c35 30 71 47 131 47c45 0 172 -24 172 -224v-268h-49v267c0 121 -52 183 -140 183c-67 0 -119 -48 -140 -97c-5 -13 -10 -29 -10 -47v-306h-49v292
c0 94 -51 158 -132 158c-73 0 -128 -58 -149 -111c-5 -13 -9 -30 -9 -47v-292h-49z" />
    <glyph glyph-name="n" unicode="n" horiz-adv-x="591" 
d="M88 0v364c0 39 -1 77 -4 116h46l4 -96h2c29 59 97 108 185 108c44 0 187 -20 187 -219v-273h-49v273c0 94 -41 177 -151 177c-77 0 -141 -53 -163 -114c-4 -11 -8 -28 -8 -43v-293h-49z" />
    <glyph glyph-name="o" unicode="o" horiz-adv-x="591" 
d="M297 492c154 0 251 -109 251 -246c0 -180 -140 -258 -258 -258c-143 0 -247 105 -247 247c0 160 120 257 254 257zM297 452c-136 0 -205 -102 -205 -214c0 -134 97 -210 201 -210c106 0 206 77 206 215c0 91 -61 209 -202 209z" />
    <glyph glyph-name="p" unicode="p" horiz-adv-x="613" 
d="M88 -200v525c0 52 -1 103 -4 155h47l4 -100h2c36 65 102 112 202 112c141 0 231 -112 231 -242c0 -168 -112 -262 -243 -262c-75 0 -148 31 -188 98h-2v-286h-49zM137 278v-85c0 -13 2 -26 5 -38c20 -68 91 -127 181 -127c122 0 198 86 198 220c0 109 -72 204 -192 204
c-79 0 -156 -45 -183 -132c-4 -13 -9 -29 -9 -42z" />
    <glyph glyph-name="q" unicode="q" horiz-adv-x="600" 
d="M465 -200v292h-2c-27 -53 -91 -104 -190 -104c-134 0 -230 110 -230 241c0 189 136 263 246 263c101 0 158 -56 179 -102h2l3 90h45c-3 -39 -4 -77 -4 -116v-564h-49zM465 191v97c0 16 -2 33 -6 47c-21 63 -82 117 -172 117c-114 0 -195 -84 -195 -216
c0 -105 58 -208 191 -208c78 0 144 47 171 115c6 14 11 33 11 48z" />
    <glyph glyph-name="r" unicode="r" horiz-adv-x="320" 
d="M88 0v325c0 52 -1 103 -4 155h45l2 -104h3c24 67 76 116 147 116c8 0 16 -1 23 -3v-45c-9 2 -17 2 -28 2c-67 0 -118 -56 -134 -139c-3 -14 -5 -31 -5 -47v-260h-49z" />
    <glyph glyph-name="s" unicode="s" horiz-adv-x="408" 
d="M50 23l18 42c29 -18 72 -36 120 -36c84 0 121 44 121 93c0 56 -38 83 -113 107c-87 28 -130 73 -130 130c0 68 54 133 158 133c47 0 88 -13 116 -32l-19 -40c-16 11 -51 31 -106 31c-66 0 -101 -40 -101 -86c0 -54 41 -75 112 -99c88 -30 131 -68 131 -140
c0 -78 -64 -138 -173 -138c-51 0 -98 14 -134 35z" />
    <glyph glyph-name="t" unicode="t" horiz-adv-x="339" 
d="M108 571l49 15v-106h152v-39h-152v-307c0 -59 18 -104 77 -104c29 0 49 4 63 9l6 -38c-17 -7 -42 -13 -74 -13c-38 0 -69 12 -89 36c-24 27 -32 71 -32 116v301h-88v39h88v91z" />
    <glyph glyph-name="u" unicode="u" horiz-adv-x="586" 
d="M498 480v-364c0 -39 1 -77 4 -116h-46l-3 97h-2c-29 -53 -90 -109 -187 -109c-55 0 -181 19 -181 223v269h49v-259c0 -112 39 -190 145 -190c73 0 134 46 160 102c6 15 12 35 12 56v291h49z" />
    <glyph glyph-name="v" unicode="v" horiz-adv-x="496" 
d="M14 480h53l125 -296c23 -54 40 -94 55 -136h2c16 42 36 85 58 136l128 296h52l-219 -480h-44z" />
    <glyph glyph-name="w" unicode="w" horiz-adv-x="784" 
d="M24 480h51l88 -280c18 -58 32 -104 44 -148h2c13 42 31 90 53 148l107 280h49l102 -279c22 -60 38 -108 51 -149h2c11 42 27 90 47 148l96 280h50l-174 -480h-44l-98 265c-23 61 -43 117 -57 171h-2c-16 -56 -37 -113 -60 -172l-105 -264h-44z" />
    <glyph glyph-name="x" unicode="x" horiz-adv-x="470" 
d="M22 480h56l92 -118c23 -29 41 -53 61 -81h2c20 28 40 53 62 81l92 118h55l-184 -233l193 -247h-57l-96 122l-68 91h-2c-20 -31 -41 -57 -67 -91l-94 -122h-57l195 246z" />
    <glyph glyph-name="y" unicode="y" horiz-adv-x="480" 
d="M9 480h53l143 -321c14 -31 30 -71 39 -101h2c11 30 24 66 40 105l134 317h53l-170 -388c-66 -152 -109 -227 -173 -273c-41 -30 -78 -41 -88 -43l-13 41c24 7 58 21 88 47c25 21 62 61 92 129c4 9 6 15 6 19s-2 11 -7 22z" />
    <glyph glyph-name="z" unicode="z" horiz-adv-x="440" 
d="M16 0v30l287 338c20 24 40 46 62 70v2h-328v40h388l-1 -34l-287 -338l-57 -66v-2h348v-40h-412z" />
    <glyph glyph-name="braceleft" unicode="{" horiz-adv-x="270" 
d="M22 270v36c78 -2 89 38 89 78c0 29 -5 57 -10 85c-6 28 -11 56 -11 84c0 92 64 133 152 133h13v-38h-19c-75 0 -101 -36 -101 -101c0 -26 5 -53 10 -79s10 -52 10 -79c0 -48 -26 -87 -64 -99v-2c38 -12 64 -54 64 -101c0 -27 -5 -53 -10 -79c-5 -27 -10 -53 -10 -80
c0 -68 33 -102 101 -102h19v-38h-13c-86 0 -152 38 -152 144c0 27 5 54 11 80c5 27 10 53 10 80c0 33 -11 80 -89 78z" />
    <glyph glyph-name="bar" unicode="|" horiz-adv-x="219" 
d="M88 750h43v-1000h-43v1000z" />
    <glyph glyph-name="braceright" unicode="}" horiz-adv-x="270" 
d="M248 306v-36c-78 2 -89 -45 -89 -78c0 -27 5 -53 11 -80c5 -26 10 -53 10 -80c0 -106 -66 -144 -152 -144h-13v38h19c68 0 101 34 101 102c0 27 -5 53 -10 80c-5 26 -10 52 -10 79c0 47 26 89 64 101v2c-38 12 -64 51 -64 99c0 27 5 53 10 79s10 53 10 79
c0 65 -26 101 -101 101h-19v38h13c88 0 152 -41 152 -133c0 -28 -5 -56 -10 -84c-6 -28 -11 -56 -11 -85c0 -40 11 -80 89 -78z" />
    <glyph glyph-name="asciitilde" unicode="~" horiz-adv-x="596" 
d="M81 218h-39c-5 84 51 134 111 134c40 0 65 -10 148 -46c54 -23 100 -45 148 -45c45 0 67 32 67 90h38c5 -98 -54 -134 -108 -134c-34 0 -69 9 -154 45c-52 22 -94 46 -139 46c-46 0 -72 -31 -72 -90z" />
    <glyph glyph-name="uni00A0" unicode="&#xa0;" horiz-adv-x="240" 
 />
    <glyph glyph-name="exclamdown" unicode="&#xa1;" horiz-adv-x="215" 
d="M138 -200h-61l10 488h41zM108 480h1c24 0 41 -20 41 -47c0 -24 -17 -46 -43 -46c-25 0 -43 22 -42 46c0 27 18 47 43 47z" />
    <glyph glyph-name="cent" unicode="&#xa2;" horiz-adv-x="530" 
d="M326 -20h-42v107c-78 7 -125 32 -165 74c-35 37 -59 94 -59 162c0 142 96 236 224 251v108h42v-108c63 0 112 -19 135 -32l-19 -40c-22 14 -63 33 -131 33c-118 0 -204 -87 -204 -206c0 -124 87 -202 195 -202c73 0 117 20 142 33l14 -36c-16 -10 -68 -33 -132 -36v-108z
" />
    <glyph glyph-name="sterling" unicode="&#xa3;" horiz-adv-x="530" 
d="M488 0h-419v31c90 51 121 117 121 192c0 27 -1 50 -6 86h-113v39h109c-6 36 -13 79 -13 123c0 112 75 191 182 191c56 0 91 -13 113 -26l-16 -38c-19 11 -52 23 -102 23c-89 0 -130 -58 -130 -151c0 -50 6 -88 12 -122h162v-39h-157c4 -45 9 -90 -1 -134
c-13 -58 -44 -99 -84 -131v-2h342v-42z" />
    <glyph glyph-name="currency" unicode="&#xa4;" horiz-adv-x="530" 
d="M264 524h1c51 0 94 -17 121 -43l71 69l31 -31l-74 -65c23 -26 40 -73 40 -119c0 -57 -19 -104 -38 -126l68 -68l-31 -31l-67 70c-33 -31 -82 -44 -125 -44c-45 0 -93 15 -120 39l-65 -65l-29 31l64 63c-23 24 -42 73 -42 121c0 54 20 100 46 129l-68 64l31 32l65 -69
c30 26 74 43 121 43zM261 485h-1c-95 0 -145 -80 -145 -157c0 -114 88 -153 145 -153c65 0 148 35 148 159c0 65 -44 151 -147 151z" />
    <glyph glyph-name="yen" unicode="&#xa5;" horiz-adv-x="530" 
d="M281 0h-47v180h-165v37h165v76h-165v37h146l-188 320h53l140 -246c17 -30 28 -48 40 -74h4c8 22 23 49 40 77l147 243h52l-201 -320h144v-37h-165v-76h165v-37h-165v-180z" />
    <glyph glyph-name="brokenbar" unicode="&#xa6;" horiz-adv-x="219" 
d="M88 174h43v-350h-43v350zM88 674h43v-350h-43v350z" />
    <glyph glyph-name="section" unicode="&#xa7;" horiz-adv-x="530" 
d="M124 357v-1c0 -37 23 -72 128 -108c62 -21 91 -34 113 -48c26 24 41 56 41 91c0 44 -24 81 -111 109c-40 13 -87 28 -121 49c-38 -30 -50 -60 -50 -92zM416 645l-21 -36c-23 17 -66 37 -122 37c-63 0 -116 -39 -116 -91c0 -64 59 -83 144 -111c87 -28 150 -64 150 -145
c0 -51 -22 -88 -59 -121c16 -15 35 -48 35 -87c0 -91 -78 -145 -177 -145c-65 0 -115 17 -145 42l22 36c21 -18 63 -41 126 -41c75 0 130 39 130 102c0 55 -28 85 -139 122c-107 36 -164 72 -164 148c0 33 17 75 67 114c-21 15 -35 48 -35 78c0 79 72 135 168 135
c61 0 109 -19 136 -37z" />
    <glyph glyph-name="dieresis" unicode="&#xa8;" 
d="M60 581h-1c-23 0 -37 20 -37 41s17 41 39 41s38 -19 38 -41c0 -21 -14 -41 -39 -41zM239 581h-1c-23 0 -37 20 -37 41s17 41 39 41s38 -19 38 -41c0 -21 -14 -41 -39 -41z" />
    <glyph glyph-name="copyright" unicode="&#xa9;" horiz-adv-x="677" 
d="M340 648h1c167 0 296 -138 296 -308c0 -172 -129 -310 -297 -310c-169 0 -300 138 -300 310c0 170 131 308 300 308zM340 616h-1c-147 0 -259 -120 -259 -280c0 -155 112 -274 260 -274c145 -2 257 119 257 278c0 156 -112 276 -257 276zM474 493l-10 -31
c-14 9 -49 25 -99 25c-103 0 -149 -68 -149 -150s49 -151 151 -151c41 0 79 11 103 28l10 -29c-35 -25 -82 -32 -123 -32c-115 0 -182 79 -182 181c0 113 89 186 189 186c54 0 96 -15 110 -27z" />
    <glyph glyph-name="ordfeminine" unicode="&#xaa;" horiz-adv-x="350" 
d="M300 267h-40l-5 51h-2c-17 -23 -55 -56 -110 -56c-74 0 -106 46 -106 95c0 65 67 118 215 111v12c0 10 -7 75 -88 75c-31 0 -61 -7 -87 -28l-13 30c35 27 78 35 109 35c109 0 121 -83 121 -151v-95c0 -26 2 -51 6 -79zM252 371v63c-84 3 -171 -10 -171 -77
c0 -38 32 -59 70 -59c41 0 70 22 86 42c10 13 15 25 15 31z" />
    <glyph glyph-name="guillemotleft" unicode="&#xab;" horiz-adv-x="410" 
d="M238 436l-156 -184l157 -184h-52l-157 184l156 184h52zM388 436l-156 -184l157 -184h-52l-157 184l156 184h52z" />
    <glyph glyph-name="logicalnot" unicode="&#xac;" horiz-adv-x="596" 
d="M40 385h516v-254h-44v214h-472v40z" />
    <glyph glyph-name="uni00AD" unicode="&#xad;" horiz-adv-x="291" 
d="M30 304h240v-43h-240v43z" />
    <glyph glyph-name="registered" unicode="&#xae;" horiz-adv-x="403" 
d="M173 503v-71h-32v169c18 3 36 5 60 5c28 0 42 -5 53 -13c10 -7 17 -20 17 -36c0 -21 -15 -34 -33 -40v-2c15 -6 23 -19 28 -41c5 -26 9 -36 13 -42h-33c-5 6 -9 21 -14 44c-4 19 -15 27 -39 27h-20zM173 580v-53h21c23 0 44 7 44 27c0 16 -11 28 -41 28
c-12 0 -19 -1 -24 -2zM202 682h1c92 0 163 -71 163 -161c0 -92 -71 -163 -164 -163c-92 0 -165 71 -165 163c0 90 73 161 165 161zM202 654h-1c-73 0 -128 -60 -128 -133c0 -75 55 -134 130 -134c73 -1 127 59 127 133s-54 134 -128 134z" />
    <glyph glyph-name="macron" unicode="&#xaf;" 
d="M42 633h217v-41h-217v41z" />
    <glyph glyph-name="degree" unicode="&#xb0;" 
d="M151 686h1c80 0 118 -58 118 -116c0 -78 -64 -123 -122 -123c-73 0 -118 55 -118 114c0 73 54 125 121 125zM149 653h-1c-59 0 -80 -52 -80 -91c0 -46 35 -82 81 -82c48 0 83 37 83 88c0 30 -15 85 -83 85z" />
    <glyph glyph-name="plusminus" unicode="&#xb1;" horiz-adv-x="596" 
d="M276 567h44v-207h236v-40h-236v-215h-44v215h-236v40h236v207zM40 40h516v-40h-516v40z" />
    <glyph glyph-name="two.superior" unicode="&#xb2;" horiz-adv-x="305" 
d="M14 451v29l73 65c99 88 134 131 134 180c0 42 -24 86 -93 86c-39 0 -70 -21 -88 -34l-15 26c25 24 68 43 113 43c100 0 128 -70 128 -109c0 -80 -58 -134 -158 -219l-34 -29v-2h198v-36h-258z" />
    <glyph glyph-name="three.superior" unicode="&#xb3;" horiz-adv-x="298" 
d="M50 782l-16 32c22 14 60 32 105 32c88 0 115 -50 115 -92c0 -39 -28 -74 -77 -92v-2c61 -9 95 -52 95 -99c0 -54 -47 -115 -150 -115c-50 0 -92 15 -110 29l16 33c14 -11 56 -28 96 -28c84 0 105 54 104 81c-1 62 -69 82 -125 82h-32v33h34c43 0 104 20 105 77
c0 24 -19 59 -74 59c-38 0 -73 -19 -86 -30z" />
    <glyph glyph-name="acute" unicode="&#xb4;" 
d="M209 692h74l-127 -140h-38z" />
    <glyph glyph-name="mu" unicode="&#xb5;" horiz-adv-x="590" 
d="M457 90h-3c-27 -46 -82 -102 -170 -102c-63 0 -120 23 -147 76v-64c0 -54 1 -156 13 -200h-46c-12 37 -16 111 -16 200v480h49v-283c0 -88 43 -166 149 -166c73 0 130 46 156 102c6 15 12 35 12 56v291h49v-351c0 -70 10 -96 55 -100l-6 -40c-11 -1 -6 -1 -15 -1
c-39 0 -77 25 -80 102z" />
    <glyph glyph-name="paragraph" unicode="&#xb6;" horiz-adv-x="530" 
d="M307 -51h-43v310h-9c-101 0 -220 64 -220 196c0 100 55 219 280 219c59 0 90 -3 110 -7v-718h-43v685h-75v-685z" />
    <glyph glyph-name="periodcentered" unicode="&#xb7;" horiz-adv-x="175" 
d="M87 223h-1c-24 0 -42 22 -41 46c0 27 18 47 43 47s42 -20 42 -47c0 -24 -17 -46 -43 -46z" />
    <glyph glyph-name="cedilla" unicode="&#xb8;" 
d="M142 0h38l-38 -54c37 -5 70 -29 70 -66c0 -56 -43 -78 -99 -78c-18 0 -45 6 -60 15l11 35c16 -9 37 -13 56 -13c26 0 51 9 50 36c-1 30 -36 40 -81 44z" />
    <glyph glyph-name="one.superior" unicode="&#xb9;" horiz-adv-x="215" 
d="M143 451h-41v350h-2l-65 -32l-9 33l79 39h38v-390z" />
    <glyph glyph-name="ordmasculine" unicode="&#xba;" horiz-adv-x="350" 
d="M175 592h1c102 0 167 -75 167 -163c-2 -117 -93 -167 -168 -167c-96 0 -167 69 -167 161c0 105 85 169 167 169zM175 556h-1c-83 0 -124 -67 -124 -131c0 -84 67 -127 125 -127c64 0 125 42 125 129c0 55 -37 129 -125 129z" />
    <glyph glyph-name="guillemotright" unicode="&#xbb;" horiz-adv-x="410" 
d="M178 252l-157 184h52l157 -184l-157 -184h-51zM328 252l-157 184h52l157 -184l-157 -184h-51z" />
    <glyph glyph-name="onequarter" unicode="&#xbc;" horiz-adv-x="760" 
d="M168 267h-41v350h-2l-65 -32l-9 33l79 39h38v-390zM163 -12h-41l403 674h41zM652 0h-41v108h-222v26l228 261h35v-253h70v-34h-70v-108zM611 142v154c0 19 0 35 2 49h-2l-29 -38l-142 -164v-1h171z" />
    <glyph glyph-name="onehalf" unicode="&#xbd;" horiz-adv-x="760" 
d="M153 267h-41v350h-2l-65 -32l-9 33l79 39h38v-390zM148 -12h-41l403 674h41zM438 0v29l73 65c99 88 134 131 134 180c0 42 -24 86 -93 86c-39 0 -70 -21 -88 -34l-15 26c25 24 68 43 113 43c100 0 128 -70 128 -109c0 -80 -59 -132 -158 -219l-34 -29v-2h198v-36h-258z
" />
    <glyph glyph-name="threequarters" unicode="&#xbe;" horiz-adv-x="760" 
d="M71 598l-16 31c22 15 59 33 104 33c89 0 116 -50 116 -92c0 -39 -28 -74 -77 -92v-2c61 -9 95 -52 95 -99c0 -54 -47 -115 -150 -115c-50 0 -92 15 -110 29l16 33c14 -11 56 -28 96 -28c84 0 105 54 104 81c-1 62 -69 82 -125 82h-32v33h34c43 0 104 20 105 77
c0 24 -18 59 -75 59c-38 0 -72 -20 -85 -30zM211 -12h-41l403 674h41zM667 0h-41v108h-222v26l228 261h35v-253h70v-34h-70v-108zM626 142v154c0 19 0 35 2 49h-2c-12 -16 -20 -29 -28 -38l-143 -164v-1h171z" />
    <glyph glyph-name="questiondown" unicode="&#xbf;" horiz-adv-x="410" 
d="M253 480h1c24 0 41 -20 41 -47c0 -24 -17 -46 -43 -46c-25 0 -43 22 -42 46c0 27 18 47 43 47zM232 292h45l4 -31c7 -54 -18 -115 -74 -176c-58 -62 -80 -105 -80 -152c0 -59 37 -106 118 -106c40 0 84 13 114 37l19 -36c-39 -30 -100 -45 -142 -45
c-112 0 -162 75 -162 147c0 57 28 105 90 172c54 60 73 108 70 154z" />
    <glyph glyph-name="Agrave" unicode="&#xc0;" horiz-adv-x="640" 
d="M474 237h-300l-93 -237h-51l272 674h48l270 -674h-51zM191 278h267l-95 237c-18 45 -27 74 -37 107h-2c-10 -34 -21 -64 -37 -104zM191 825h76l96 -115h-40z" />
    <glyph glyph-name="Aacute" unicode="&#xc1;" horiz-adv-x="640" 
d="M474 237h-300l-93 -237h-51l272 674h48l270 -674h-51zM191 278h267l-95 237c-18 45 -27 74 -37 107h-2c-10 -34 -21 -64 -37 -104zM383 825h76l-132 -115h-40z" />
    <glyph glyph-name="Acircumflex" unicode="&#xc2;" horiz-adv-x="640" 
d="M474 237h-300l-93 -237h-51l272 674h48l270 -674h-51zM191 278h267l-95 237c-18 45 -27 74 -37 107h-2c-10 -34 -21 -64 -37 -104zM310 825h36l113 -115h-54l-76 79h-2l-76 -79h-50z" />
    <glyph glyph-name="Atilde" unicode="&#xc3;" horiz-adv-x="640" 
d="M474 237h-300l-93 -237h-51l272 674h48l270 -674h-51zM191 278h267l-95 237c-18 45 -27 74 -37 107h-2c-10 -34 -21 -64 -37 -104zM239 715h-34c-1 47 23 88 65 88c20 0 35 -8 61 -22c16 -8 35 -17 53 -17c14 0 25 5 27 38h34c0 -49 -19 -82 -61 -82c-18 0 -35 6 -63 20
c-22 11 -38 20 -54 20c-18 0 -25 -20 -28 -45z" />
    <glyph glyph-name="Adieresis" unicode="&#xc4;" horiz-adv-x="640" 
d="M474 237h-300l-93 -237h-51l272 674h48l270 -674h-51zM191 278h267l-95 237c-18 45 -27 74 -37 107h-2c-10 -34 -21 -64 -37 -104zM235 724h-1c-23 0 -37 20 -37 41s17 41 39 41s38 -19 38 -41c0 -21 -14 -41 -39 -41zM415 724h-1c-23 0 -37 20 -37 41s17 41 39 41
s38 -19 38 -41c0 -21 -14 -41 -39 -41z" />
    <glyph glyph-name="Aring" unicode="&#xc5;" horiz-adv-x="640" 
d="M474 237h-300l-93 -237h-51l272 674h48l270 -674h-51zM191 278h267l-95 237c-18 45 -27 74 -37 107h-2c-10 -34 -21 -64 -37 -104zM325 868h1c53 0 90 -38 90 -86c0 -47 -40 -83 -91 -83c-54 0 -92 37 -92 83c0 47 37 86 92 86zM324 841h-1c-30 0 -49 -27 -49 -59
c0 -28 21 -55 50 -55c30 0 51 25 51 57s-21 57 -51 57z" />
    <glyph glyph-name="AE" unicode="&#xc6;" horiz-adv-x="807" 
d="M41 0h-51l360 674h399v-41h-326l36 -258h273v-41h-267l42 -293h259v-41h-300l-40 279h-237zM210 319h211l-29 207c-4 28 -12 78 -14 111h-4c-13 -29 -32 -66 -51 -102z" />
    <glyph glyph-name="Ccedilla" unicode="&#xc7;" horiz-adv-x="640" 
d="M590 66l15 -39c-38 -19 -114 -39 -222 -39l-30 -42c39 -6 70 -33 70 -70c0 -52 -44 -74 -97 -74c-23 0 -49 7 -63 14l11 36c15 -8 34 -13 56 -13c27 0 49 12 49 35c0 29 -35 40 -80 45l46 72c-163 18 -307 129 -307 343c0 176 130 352 383 352c102 0 159 -23 182 -34
l-16 -41c-40 20 -100 34 -163 34c-219 0 -335 -133 -335 -315c0 -166 111 -300 323 -300c66 0 132 13 178 36z" />
    <glyph glyph-name="Egrave" unicode="&#xc8;" horiz-adv-x="511" 
d="M437 376v-41h-300v-294h334v-41h-383v674h366v-41h-317v-257h300zM148 825h76l96 -115h-40z" />
    <glyph glyph-name="Eacute" unicode="&#xc9;" horiz-adv-x="511" 
d="M437 376v-41h-300v-294h334v-41h-383v674h366v-41h-317v-257h300zM328 825h76l-132 -115h-40z" />
    <glyph glyph-name="Ecircumflex" unicode="&#xca;" horiz-adv-x="511" 
d="M437 376v-41h-300v-294h334v-41h-383v674h366v-41h-317v-257h300zM247 825h36l113 -115h-54l-76 79h-2l-76 -79h-50z" />
    <glyph glyph-name="Edieresis" unicode="&#xcb;" horiz-adv-x="511" 
d="M437 376v-41h-300v-294h334v-41h-383v674h366v-41h-317v-257h300zM177 724h-1c-23 0 -37 20 -37 41s17 41 39 41s38 -19 38 -41c0 -21 -14 -41 -39 -41zM357 724h-1c-23 0 -37 20 -37 41s17 41 39 41s38 -19 38 -41c0 -21 -14 -41 -39 -41z" />
    <glyph glyph-name="Igrave" unicode="&#xcc;" horiz-adv-x="225" 
d="M88 674h49v-674h-49v674zM-16 825h76l96 -115h-40z" />
    <glyph glyph-name="Iacute" unicode="&#xcd;" horiz-adv-x="225" 
d="M88 674h49v-674h-49v674zM171 825h76l-132 -115h-40z" />
    <glyph glyph-name="Icircumflex" unicode="&#xce;" horiz-adv-x="225" 
d="M88 674h49v-674h-49v674zM93 825h36l113 -115h-54l-76 79h-2l-76 -79h-50z" />
    <glyph glyph-name="Idieresis" unicode="&#xcf;" horiz-adv-x="225" 
d="M88 674h49v-674h-49v674zM23 724h-1c-23 0 -37 20 -37 41s17 41 39 41s38 -19 38 -41c0 -21 -14 -41 -39 -41zM203 724h-1c-23 0 -37 20 -37 41s17 41 39 41s38 -19 38 -41c0 -21 -14 -41 -39 -41z" />
    <glyph glyph-name="Eth" unicode="&#xd0;" horiz-adv-x="725" 
d="M-6 317v40h94v311c60 8 127 15 202 15c143 0 252 -39 315 -108c56 -61 81 -133 81 -223c0 -77 -23 -171 -93 -246c-65 -69 -179 -112 -330 -112c-61 0 -117 1 -175 6v317h-94zM376 357v-40h-239v-276c32 -5 80 -6 134 -6c256 0 365 141 365 319c2 165 -104 288 -350 288
c-65 0 -114 -6 -149 -13v-272h239z" />
    <glyph glyph-name="Ntilde" unicode="&#xd1;" horiz-adv-x="706" 
d="M136 0h-48v674h46l305 -415c62 -84 102 -137 137 -197l2 2c-7 78 -8 158 -8 262v348h48v-674h-45l-295 401c-57 78 -109 149 -145 209l-3 -2c5 -76 6 -148 6 -248v-360zM275 715h-34c-1 47 23 88 65 88c20 0 35 -8 61 -22c16 -8 35 -17 53 -17c14 0 25 5 27 38h34
c0 -49 -19 -82 -61 -82c-18 0 -35 6 -63 20c-22 11 -38 20 -54 20c-18 0 -25 -20 -28 -45z" />
    <glyph glyph-name="Ograve" unicode="&#xd2;" horiz-adv-x="753" 
d="M380 686c198 0 335 -146 335 -340c0 -233 -166 -358 -342 -358c-192 0 -335 143 -335 340c0 212 150 358 342 358zM378 646c-192 0 -289 -150 -289 -316c0 -159 109 -302 286 -302c178 0 289 135 289 314c0 146 -95 304 -286 304zM247 830h76l96 -115h-40z" />
    <glyph glyph-name="Oacute" unicode="&#xd3;" horiz-adv-x="753" 
d="M380 686c198 0 335 -146 335 -340c0 -233 -166 -358 -342 -358c-192 0 -335 143 -335 340c0 212 150 358 342 358zM378 646c-192 0 -289 -150 -289 -316c0 -159 109 -302 286 -302c178 0 289 135 289 314c0 146 -95 304 -286 304zM430 830h76l-132 -115h-40z" />
    <glyph glyph-name="Ocircumflex" unicode="&#xd4;" horiz-adv-x="753" 
d="M380 686c198 0 335 -146 335 -340c0 -233 -166 -358 -342 -358c-192 0 -335 143 -335 340c0 212 150 358 342 358zM378 646c-192 0 -289 -150 -289 -316c0 -159 109 -302 286 -302c178 0 289 135 289 314c0 146 -95 304 -286 304zM356 830h36l113 -115h-54l-76 79h-2
l-76 -79h-50z" />
    <glyph glyph-name="Otilde" unicode="&#xd5;" horiz-adv-x="753" 
d="M380 686c198 0 335 -146 335 -340c0 -233 -166 -358 -342 -358c-192 0 -335 143 -335 340c0 212 150 358 342 358zM378 646c-192 0 -289 -150 -289 -316c0 -159 109 -302 286 -302c178 0 289 135 289 314c0 146 -95 304 -286 304zM290 720h-34c-1 47 23 88 65 88
c20 0 35 -8 61 -22c16 -8 35 -17 53 -17c14 0 25 5 27 38h34c0 -49 -19 -82 -61 -82c-18 0 -35 6 -63 20c-22 11 -38 20 -54 20c-18 0 -25 -20 -28 -45z" />
    <glyph glyph-name="Odieresis" unicode="&#xd6;" horiz-adv-x="753" 
d="M380 686c198 0 335 -146 335 -340c0 -233 -166 -358 -342 -358c-192 0 -335 143 -335 340c0 212 150 358 342 358zM378 646c-192 0 -289 -150 -289 -316c0 -159 109 -302 286 -302c178 0 289 135 289 314c0 146 -95 304 -286 304zM286 724h-1c-23 0 -37 20 -37 41
s17 41 39 41s38 -19 38 -41c0 -21 -14 -41 -39 -41zM466 724h-1c-23 0 -37 20 -37 41s17 41 39 41s38 -19 38 -41c0 -21 -14 -41 -39 -41z" />
    <glyph glyph-name="multiply" unicode="&#xd7;" horiz-adv-x="596" 
d="M40 495l32 31l226 -231l226 231l32 -31l-227 -232l227 -233l-32 -30l-226 231l-226 -231l-32 30l227 233z" />
    <glyph glyph-name="Oslash" unicode="&#xd8;" horiz-adv-x="753" 
d="M91 -28l-29 26l74 87c-61 61 -98 149 -98 245c0 213 154 356 344 356c76 0 147 -24 205 -69l72 85l32 -25l-74 -87c62 -60 98 -148 98 -244c0 -242 -172 -358 -336 -358c-82 0 -156 26 -214 71zM167 121l392 462c-48 39 -107 63 -180 63c-192 0 -290 -155 -290 -308
c0 -103 34 -164 76 -219zM586 555l-392 -463c48 -40 100 -64 182 -64c180 0 288 142 288 314c0 72 -20 146 -75 213h-3z" />
    <glyph glyph-name="Ugrave" unicode="&#xd9;" horiz-adv-x="691" 
d="M88 674h49v-389c0 -183 91 -256 203 -256c125 0 214 78 214 256v389h49v-385c0 -217 -123 -301 -266 -301c-131 0 -249 76 -249 296v390zM226 825h76l96 -115h-40z" />
    <glyph glyph-name="Uacute" unicode="&#xda;" horiz-adv-x="691" 
d="M88 674h49v-389c0 -183 91 -256 203 -256c125 0 214 78 214 256v389h49v-385c0 -217 -123 -301 -266 -301c-131 0 -249 76 -249 296v390zM408 825h76l-132 -115h-40z" />
    <glyph glyph-name="Ucircumflex" unicode="&#xdb;" horiz-adv-x="691" 
d="M88 674h49v-389c0 -183 91 -256 203 -256c125 0 214 78 214 256v389h49v-385c0 -217 -123 -301 -266 -301c-131 0 -249 76 -249 296v390zM330 825h36l113 -115h-54l-76 79h-2l-76 -79h-50z" />
    <glyph glyph-name="Udieresis" unicode="&#xdc;" horiz-adv-x="691" 
d="M88 674h49v-389c0 -183 91 -256 203 -256c125 0 214 78 214 256v389h49v-385c0 -217 -123 -301 -266 -301c-131 0 -249 76 -249 296v390zM255 724h-1c-23 0 -37 20 -37 41s17 41 39 41s38 -19 38 -41c0 -21 -14 -41 -39 -41zM435 724h-1c-23 0 -37 20 -37 41s17 41 39 41
s38 -19 38 -41c0 -21 -14 -41 -39 -41z" />
    <glyph glyph-name="Yacute" unicode="&#xdd;" horiz-adv-x="541" 
d="M297 0h-49v288l-236 386h56l125 -210c32 -54 57 -94 82 -141h2c22 43 51 88 84 141l131 210h56l-251 -388v-286zM338 815h76l-132 -115h-40z" />
    <glyph glyph-name="Thorn" unicode="&#xde;" horiz-adv-x="548" 
d="M88 0v674h48v-136c39 8 85 11 120 11c86 0 148 -20 189 -58c32 -30 52 -73 52 -120c0 -131 -106 -208 -266 -208c-31 0 -66 1 -95 6v-169h-48zM136 496v-284c33 -7 67 -8 98 -8c137 0 214 61 214 158c0 111 -90 146 -192 146c-53 0 -99 -6 -120 -12z" />
    <glyph glyph-name="germandbls" unicode="&#xdf;" horiz-adv-x="558" 
d="M137 0h-49v466c0 118 28 178 70 216c37 33 81 46 135 46c90 0 165 -59 165 -163c0 -39 -13 -67 -22 -81c-49 -20 -81 -48 -81 -87c0 -43 26 -64 64 -100c45 -42 87 -81 87 -154c0 -87 -62 -155 -171 -155c-40 0 -80 7 -116 26l14 41c36 -17 68 -27 103 -27
c82 0 123 50 123 107c0 51 -21 84 -68 124c-54 47 -84 82 -84 130c0 50 33 91 96 122c4 10 8 26 8 47c0 77 -45 129 -128 129c-101 0 -146 -68 -146 -219v-468z" />
    <glyph glyph-name="agrave" unicode="&#xe0;" horiz-adv-x="496" 
d="M107 692h74l91 -140h-38zM416 290v-174c0 -39 2 -77 8 -116h-45l-8 74h-2c-25 -37 -86 -86 -174 -86c-109 0 -153 74 -153 132c0 109 101 180 325 177v11c0 36 -8 144 -136 143c-48 0 -98 -12 -138 -40l-16 35c53 35 112 46 158 46c163 0 181 -126 181 -202zM367 154v102
c-127 4 -273 -16 -273 -127c0 -68 49 -101 105 -101c93 0 143 55 162 98c4 10 6 20 6 28z" />
    <glyph glyph-name="aacute" unicode="&#xe1;" horiz-adv-x="496" 
d="M292 692h74l-127 -140h-38zM416 290v-174c0 -39 2 -77 8 -116h-45l-8 74h-2c-25 -37 -86 -86 -174 -86c-109 0 -153 74 -153 132c0 109 101 180 325 177v11c0 36 -8 144 -136 143c-48 0 -98 -12 -138 -40l-16 35c53 35 112 46 158 46c163 0 181 -126 181 -202zM367 154
v102c-127 4 -273 -16 -273 -127c0 -68 49 -101 105 -101c93 0 143 55 162 98c4 10 6 20 6 28z" />
    <glyph glyph-name="acircumflex" unicode="&#xe2;" horiz-adv-x="496" 
d="M222 692h38l100 -140h-51l-67 102h-2l-67 -102h-47zM416 290v-174c0 -39 2 -77 8 -116h-45l-8 74h-2c-25 -37 -86 -86 -174 -86c-109 0 -153 74 -153 132c0 109 101 180 325 177v11c0 36 -8 144 -136 143c-48 0 -98 -12 -138 -40l-16 35c53 35 112 46 158 46
c163 0 181 -126 181 -202zM367 154v102c-127 4 -273 -16 -273 -127c0 -68 49 -101 105 -101c93 0 143 55 162 98c4 10 6 20 6 28z" />
    <glyph glyph-name="atilde" unicode="&#xe3;" horiz-adv-x="496" 
d="M167 576h-34c-1 56 23 90 61 90c20 0 36 -10 66 -25c16 -8 30 -15 42 -15c15 0 27 9 29 43h33c0 -54 -17 -87 -60 -87c-18 0 -37 9 -60 21c-24 13 -37 19 -49 19c-17 0 -26 -20 -28 -46zM416 290v-174c0 -39 2 -77 8 -116h-45l-8 74h-2c-25 -37 -86 -86 -174 -86
c-109 0 -153 74 -153 132c0 109 101 180 325 177v11c0 36 -8 144 -136 143c-48 0 -98 -12 -138 -40l-16 35c53 35 112 46 158 46c163 0 181 -126 181 -202zM367 154v102c-127 4 -273 -16 -273 -127c0 -68 49 -101 105 -101c93 0 143 55 162 98c4 10 6 20 6 28z" />
    <glyph glyph-name="adieresis" unicode="&#xe4;" horiz-adv-x="496" 
d="M158 581h-1c-23 0 -37 20 -37 41s17 41 39 41s38 -19 38 -41c0 -21 -14 -41 -39 -41zM337 581h-1c-23 0 -37 20 -37 41s17 41 39 41s38 -19 38 -41c0 -21 -14 -41 -39 -41zM416 290v-174c0 -39 2 -77 8 -116h-45l-8 74h-2c-25 -37 -86 -86 -174 -86
c-109 0 -153 74 -153 132c0 109 101 180 325 177v11c0 36 -8 144 -136 143c-48 0 -98 -12 -138 -40l-16 35c53 35 112 46 158 46c163 0 181 -126 181 -202zM367 154v102c-127 4 -273 -16 -273 -127c0 -68 49 -101 105 -101c93 0 143 55 162 98c4 10 6 20 6 28z" />
    <glyph glyph-name="aring" unicode="&#xe5;" horiz-adv-x="496" 
d="M246 538c-54 0 -95 40 -95 90c0 51 40 92 96 92c52 0 92 -40 92 -92c0 -51 -44 -90 -93 -90zM245 568c33 0 56 28 56 61c0 35 -23 61 -57 61c-32 0 -53 -28 -53 -62c0 -30 23 -60 54 -60zM416 290v-174c0 -39 2 -77 8 -116h-45l-8 74h-2c-25 -37 -86 -86 -174 -86
c-109 0 -153 74 -153 132c0 109 101 180 325 177v11c0 36 -8 144 -136 143c-48 0 -98 -12 -138 -40l-16 35c53 35 112 46 158 46c163 0 181 -126 181 -202zM367 154v102c-127 4 -273 -16 -273 -127c0 -68 49 -101 105 -101c93 0 143 55 162 98c4 10 6 20 6 28z" />
    <glyph glyph-name="ae" unicode="&#xe6;" horiz-adv-x="835" 
d="M787 249h-372c-8 -135 75 -219 186 -219c82 0 126 20 145 30l14 -39c-28 -13 -84 -33 -161 -33c-94 0 -175 46 -203 127h-2c-30 -83 -110 -127 -200 -127c-110 0 -151 72 -151 127c0 105 100 178 325 173v20c0 17 -10 143 -138 143c-48 0 -106 -16 -137 -40l-16 35
c58 38 121 46 153 46c108 0 154 -55 170 -124h2c33 76 100 124 190 124c168 0 198 -166 198 -213c0 -13 0 -23 -3 -30zM368 174v75c-119 4 -275 -12 -275 -129c0 -55 47 -92 106 -92c93 -1 145 52 163 106c4 13 6 27 6 40zM415 288h324c3 41 -28 164 -151 164
c-116 0 -169 -101 -173 -164z" />
    <glyph glyph-name="ccedilla" unicode="&#xe7;" horiz-adv-x="498" 
d="M444 62l14 -39c-20 -10 -76 -34 -156 -35l-30 -42c37 -5 70 -29 70 -66c0 -55 -43 -78 -99 -78c-17 0 -45 6 -60 15l11 35c15 -9 34 -13 55 -13c27 0 51 9 51 36c-2 30 -36 40 -81 44l47 71c-134 11 -223 114 -223 243c0 160 119 259 273 259c71 0 126 -20 146 -34
l-18 -40c-28 16 -70 32 -132 32c-143 0 -220 -94 -220 -211c0 -125 90 -209 212 -209c69 0 112 20 140 32z" />
    <glyph glyph-name="egrave" unicode="&#xe8;" horiz-adv-x="537" 
d="M172 692h74l91 -140h-38zM490 240h-399c0 -140 89 -210 203 -210c83 0 123 16 154 30l13 -39c-17 -8 -71 -33 -172 -33c-149 0 -246 101 -246 240c0 163 104 264 240 264c178 0 209 -158 209 -222c0 -15 0 -22 -2 -30zM94 279h347c1 50 -20 173 -164 173
c-122 0 -173 -100 -183 -173z" />
    <glyph glyph-name="eacute" unicode="&#xe9;" horiz-adv-x="537" 
d="M332 692h74l-127 -140h-38zM490 240h-399c0 -140 89 -210 203 -210c83 0 123 16 154 30l13 -39c-17 -8 -71 -33 -172 -33c-149 0 -246 101 -246 240c0 163 104 264 240 264c178 0 209 -158 209 -222c0 -15 0 -22 -2 -30zM94 279h347c1 50 -20 173 -164 173
c-122 0 -173 -100 -183 -173z" />
    <glyph glyph-name="ecircumflex" unicode="&#xea;" horiz-adv-x="537" 
d="M261 692h38l100 -140h-51l-67 102h-2l-67 -102h-47zM490 240h-399c0 -140 89 -210 203 -210c83 0 123 16 154 30l13 -39c-17 -8 -71 -33 -172 -33c-149 0 -246 101 -246 240c0 163 104 264 240 264c178 0 209 -158 209 -222c0 -15 0 -22 -2 -30zM94 279h347
c1 50 -20 173 -164 173c-122 0 -173 -100 -183 -173z" />
    <glyph glyph-name="edieresis" unicode="&#xeb;" horiz-adv-x="537" 
d="M198 581h-1c-23 0 -37 20 -37 41s17 41 39 41s38 -19 38 -41c0 -21 -14 -41 -39 -41zM377 581h-1c-23 0 -37 20 -37 41s17 41 39 41s38 -19 38 -41c0 -21 -14 -41 -39 -41zM490 240h-399c0 -140 89 -210 203 -210c83 0 123 16 154 30l13 -39c-17 -8 -71 -33 -172 -33
c-149 0 -246 101 -246 240c0 163 104 264 240 264c178 0 209 -158 209 -222c0 -15 0 -22 -2 -30zM94 279h347c1 50 -20 173 -164 173c-122 0 -173 -100 -183 -173z" />
    <glyph glyph-name="igrave" unicode="&#xec;" horiz-adv-x="225" 
d="M-24 692h74l91 -140h-38zM137 0h-49v480h49v-480z" />
    <glyph glyph-name="iacute" unicode="&#xed;" horiz-adv-x="225" 
d="M162 692h74l-127 -140h-38zM137 0h-49v480h49v-480z" />
    <glyph glyph-name="icircumflex" unicode="&#xee;" horiz-adv-x="225" 
d="M92 692h38l100 -140h-51l-67 102h-2l-67 -102h-47zM137 0h-49v480h49v-480z" />
    <glyph glyph-name="idieresis" unicode="&#xef;" horiz-adv-x="225" 
d="M23 581h-1c-23 0 -37 20 -37 41s17 41 39 41s38 -19 38 -41c0 -21 -14 -41 -39 -41zM202 581h-1c-23 0 -37 20 -37 41s17 41 39 41s38 -19 38 -41c0 -21 -14 -41 -39 -41zM137 0h-49v480h49v-480z" />
    <glyph glyph-name="eth" unicode="&#xf0;" horiz-adv-x="578" 
d="M282 28h1c110 0 198 76 198 218c0 75 -13 113 -49 148c-30 29 -76 58 -145 58c-134 0 -195 -119 -195 -217c0 -132 95 -207 190 -207zM137 530l-14 35l135 63c-32 22 -78 44 -122 60l20 40c50 -20 102 -47 146 -78l132 64l16 -37l-113 -53c64 -48 115 -108 149 -177
c29 -58 45 -123 45 -194c0 -189 -129 -265 -248 -265c-142 0 -240 105 -240 245c0 161 123 259 243 259c57 0 111 -12 168 -70l2 3c-37 65 -88 124 -161 178z" />
    <glyph glyph-name="ntilde" unicode="&#xf1;" horiz-adv-x="591" 
d="M214 576h-34c-1 56 23 90 61 90c20 0 36 -10 66 -25c16 -8 30 -15 42 -15c15 0 27 9 29 43h33c0 -54 -17 -87 -60 -87c-18 0 -37 9 -60 21c-24 13 -37 19 -49 19c-17 0 -26 -20 -28 -46zM88 0v364c0 39 -1 77 -4 116h46l4 -96h2c29 59 97 108 185 108
c44 0 187 -20 187 -219v-273h-49v273c0 94 -41 177 -151 177c-77 0 -141 -53 -163 -114c-4 -11 -8 -28 -8 -43v-293h-49z" />
    <glyph glyph-name="ograve" unicode="&#xf2;" horiz-adv-x="591" 
d="M179 692h74l91 -140h-38zM297 492c154 0 251 -109 251 -246c0 -180 -140 -258 -258 -258c-143 0 -247 105 -247 247c0 160 120 257 254 257zM297 452c-136 0 -205 -102 -205 -214c0 -134 97 -210 201 -210c106 0 206 77 206 215c0 91 -61 209 -202 209z" />
    <glyph glyph-name="oacute" unicode="&#xf3;" horiz-adv-x="591" 
d="M339 692h74l-127 -140h-38zM297 492c154 0 251 -109 251 -246c0 -180 -140 -258 -258 -258c-143 0 -247 105 -247 247c0 160 120 257 254 257zM297 452c-136 0 -205 -102 -205 -214c0 -134 97 -210 201 -210c106 0 206 77 206 215c0 91 -61 209 -202 209z" />
    <glyph glyph-name="ocircumflex" unicode="&#xf4;" horiz-adv-x="591" 
d="M274 692h38l100 -140h-51l-67 102h-2l-67 -102h-47zM297 492c154 0 251 -109 251 -246c0 -180 -140 -258 -258 -258c-143 0 -247 105 -247 247c0 160 120 257 254 257zM297 452c-136 0 -205 -102 -205 -214c0 -134 97 -210 201 -210c106 0 206 77 206 215
c0 91 -61 209 -202 209z" />
    <glyph glyph-name="otilde" unicode="&#xf5;" horiz-adv-x="591" 
d="M214 576h-34c-1 56 23 90 61 90c20 0 36 -10 66 -25c16 -8 30 -15 42 -15c15 0 27 9 29 43h33c0 -54 -17 -87 -60 -87c-18 0 -37 9 -60 21c-24 13 -37 19 -49 19c-17 0 -26 -20 -28 -46zM297 492c154 0 251 -109 251 -246c0 -180 -140 -258 -258 -258
c-143 0 -247 105 -247 247c0 160 120 257 254 257zM297 452c-136 0 -205 -102 -205 -214c0 -134 97 -210 201 -210c106 0 206 77 206 215c0 91 -61 209 -202 209z" />
    <glyph glyph-name="odieresis" unicode="&#xf6;" horiz-adv-x="591" 
d="M205 581h-1c-23 0 -37 20 -37 41s17 41 39 41s38 -19 38 -41c0 -21 -14 -41 -39 -41zM384 581h-1c-23 0 -37 20 -37 41s17 41 39 41s38 -19 38 -41c0 -21 -14 -41 -39 -41zM297 492c154 0 251 -109 251 -246c0 -180 -140 -258 -258 -258c-143 0 -247 105 -247 247
c0 160 120 257 254 257zM297 452c-136 0 -205 -102 -205 -214c0 -134 97 -210 201 -210c106 0 206 77 206 215c0 91 -61 209 -202 209z" />
    <glyph glyph-name="divide" unicode="&#xf7;" horiz-adv-x="596" 
d="M298 394h-1c-24 0 -42 22 -41 46c0 27 18 47 43 47s42 -20 42 -47c0 -24 -17 -46 -43 -46zM556 247h-516v40h516v-40zM298 47h-1c-24 0 -42 22 -41 46c0 27 18 47 43 47s42 -20 42 -47c0 -24 -17 -46 -43 -46z" />
    <glyph glyph-name="oslash" unicode="&#xf8;" horiz-adv-x="591" 
d="M298 492h1c49 0 100 -14 141 -41l45 56l31 -23l-45 -57c50 -48 77 -113 77 -180c0 -180 -136 -259 -253 -259c-53 0 -105 14 -145 42l-47 -57l-28 27l45 55c-48 45 -77 108 -77 180c0 160 119 257 255 257zM149 88l265 328c-32 24 -72 36 -119 36
c-139 0 -203 -107 -203 -214c0 -56 17 -109 55 -150h2zM441 391l-264 -328c35 -26 73 -35 113 -35c114 0 209 79 209 216c0 40 -14 101 -56 147h-2z" />
    <glyph glyph-name="ugrave" unicode="&#xf9;" horiz-adv-x="586" 
d="M168 692h74l91 -140h-38zM498 480v-364c0 -39 1 -77 4 -116h-46l-3 97h-2c-29 -53 -90 -109 -187 -109c-55 0 -181 19 -181 223v269h49v-259c0 -112 39 -190 145 -190c73 0 134 46 160 102c6 15 12 35 12 56v291h49z" />
    <glyph glyph-name="uacute" unicode="&#xfa;" horiz-adv-x="586" 
d="M352 692h74l-127 -140h-38zM498 480v-364c0 -39 1 -77 4 -116h-46l-3 97h-2c-29 -53 -90 -109 -187 -109c-55 0 -181 19 -181 223v269h49v-259c0 -112 39 -190 145 -190c73 0 134 46 160 102c6 15 12 35 12 56v291h49z" />
    <glyph glyph-name="ucircumflex" unicode="&#xfb;" horiz-adv-x="586" 
d="M272 692h38l100 -140h-51l-67 102h-2l-67 -102h-47zM498 480v-364c0 -39 1 -77 4 -116h-46l-3 97h-2c-29 -53 -90 -109 -187 -109c-55 0 -181 19 -181 223v269h49v-259c0 -112 39 -190 145 -190c73 0 134 46 160 102c6 15 12 35 12 56v291h49z" />
    <glyph glyph-name="udieresis" unicode="&#xfc;" horiz-adv-x="586" 
d="M206 581h-1c-23 0 -37 20 -37 41s17 41 39 41s38 -19 38 -41c0 -21 -14 -41 -39 -41zM385 581h-1c-23 0 -37 20 -37 41s17 41 39 41s38 -19 38 -41c0 -21 -14 -41 -39 -41zM498 480v-364c0 -39 1 -77 4 -116h-46l-3 97h-2c-29 -53 -90 -109 -187 -109
c-55 0 -181 19 -181 223v269h49v-259c0 -112 39 -190 145 -190c73 0 134 46 160 102c6 15 12 35 12 56v291h49z" />
    <glyph glyph-name="yacute" unicode="&#xfd;" horiz-adv-x="480" 
d="M299 692h74l-127 -140h-38zM9 480h53l143 -321c14 -31 30 -71 39 -101h2c11 30 24 66 40 105l134 317h53l-170 -388c-66 -152 -109 -227 -173 -273c-41 -30 -78 -41 -88 -43l-13 41c24 7 58 21 88 47c25 21 62 61 92 129c4 9 6 15 6 19s-2 11 -7 22z" />
    <glyph glyph-name="thorn" unicode="&#xfe;" horiz-adv-x="613" 
d="M88 666h49v-281h2c37 60 99 107 200 107c139 0 231 -110 231 -242c0 -173 -116 -262 -246 -262c-72 0 -143 30 -185 97h-2v-285h-49v866zM137 273v-84c0 -14 3 -31 8 -44c23 -64 93 -117 183 -117c109 0 193 79 193 221c0 109 -74 203 -192 203c-75 0 -150 -42 -180 -120
c-6 -17 -12 -40 -12 -59z" />
    <glyph glyph-name="ydieresis" unicode="&#xff;" horiz-adv-x="480" 
d="M164 581h-1c-23 0 -37 20 -37 41s17 41 39 41s38 -19 38 -41c0 -21 -14 -41 -39 -41zM343 581h-1c-23 0 -37 20 -37 41s17 41 39 41s38 -19 38 -41c0 -21 -14 -41 -39 -41zM9 480h53l143 -321c14 -31 30 -71 39 -101h2c11 30 24 66 40 105l134 317h53l-170 -388
c-66 -152 -109 -227 -173 -273c-41 -30 -78 -41 -88 -43l-13 41c24 7 58 21 88 47c25 21 62 61 92 129c4 9 6 15 6 19s-2 11 -7 22z" />
    <glyph glyph-name="Amacron" unicode="&#x100;" horiz-adv-x="640" 
d="M474 237h-300l-93 -237h-51l272 674h48l270 -674h-51zM191 278h267l-95 237c-18 45 -27 74 -37 107h-2c-10 -34 -21 -64 -37 -104zM202 772h237v-40h-237v40z" />
    <glyph glyph-name="amacron" unicode="&#x101;" horiz-adv-x="496" 
d="M140 633h217v-41h-217v41zM416 290v-174c0 -39 2 -77 8 -116h-45l-8 74h-2c-25 -37 -86 -86 -174 -86c-109 0 -153 74 -153 132c0 109 101 180 325 177v11c0 36 -8 144 -136 143c-48 0 -98 -12 -138 -40l-16 35c53 35 112 46 158 46c163 0 181 -126 181 -202zM367 154
v102c-127 4 -273 -16 -273 -127c0 -68 49 -101 105 -101c93 0 143 55 162 98c4 10 6 20 6 28z" />
    <glyph glyph-name="Abreve" unicode="&#x102;" horiz-adv-x="640" 
d="M474 237h-300l-93 -237h-51l272 674h48l270 -674h-51zM191 278h267l-95 237c-18 45 -27 74 -37 107h-2c-10 -34 -21 -64 -37 -104zM201 810h36c6 -22 24 -53 84 -53c59 0 78 28 82 53h36c-2 -50 -33 -97 -121 -97c-84 0 -115 47 -117 97z" />
    <glyph glyph-name="abreve" unicode="&#x103;" horiz-adv-x="496" 
d="M127 681h38c8 -42 38 -77 83 -77c56 0 79 44 83 77h38c-1 -72 -53 -117 -121 -117c-91 0 -120 67 -121 117zM416 290v-174c0 -39 2 -77 8 -116h-45l-8 74h-2c-25 -37 -86 -86 -174 -86c-109 0 -153 74 -153 132c0 109 101 180 325 177v11c0 36 -8 144 -136 143
c-48 0 -98 -12 -138 -40l-16 35c53 35 112 46 158 46c163 0 181 -126 181 -202zM367 154v102c-127 4 -273 -16 -273 -127c0 -68 49 -101 105 -101c93 0 143 55 162 98c4 10 6 20 6 28z" />
    <glyph glyph-name="Aogonek" unicode="&#x104;" horiz-adv-x="640" 
d="M350 674l270 -674l-10 -4c-19 -15 -75 -64 -75 -109c0 -31 20 -49 51 -49c17 0 34 5 47 11l9 -29c-16 -12 -48 -18 -68 -18c-50 0 -84 27 -84 75c0 50 43 94 77 128l-93 232h-300l-93 -237h-51l272 674h48zM191 278h267l-95 237c-18 45 -27 74 -37 107h-2
c-10 -34 -21 -64 -37 -104z" />
    <glyph glyph-name="aogonek" unicode="&#x105;" horiz-adv-x="496" 
d="M416 290v-174c0 -39 2 -77 8 -116h-7c-19 -22 -51 -70 -51 -110c0 -33 20 -49 51 -49c19 0 34 4 47 10l9 -30c-16 -12 -48 -18 -70 -18c-48 0 -82 27 -82 75c0 50 33 94 57 128l-7 68h-2c-25 -37 -86 -86 -174 -86c-109 0 -153 74 -153 132c0 109 101 180 325 177v11
c0 36 -8 144 -136 143c-48 0 -98 -12 -138 -40l-16 35c53 35 112 46 158 46c163 0 181 -126 181 -202zM367 154v102c-127 4 -273 -16 -273 -127c0 -68 49 -101 105 -101c93 0 143 55 162 98c4 10 6 20 6 28z" />
    <glyph glyph-name="Cacute" unicode="&#x106;" horiz-adv-x="640" 
d="M590 66l15 -39c-38 -19 -114 -39 -211 -39c-182 0 -356 111 -356 346c0 176 130 352 383 352c102 0 159 -23 182 -34l-16 -41c-40 20 -100 34 -163 34c-219 0 -335 -133 -335 -315c0 -166 111 -300 323 -300c66 0 132 13 178 36zM453 829h76l-132 -115h-40z" />
    <glyph glyph-name="cacute" unicode="&#x107;" horiz-adv-x="498" 
d="M332 692h74l-127 -140h-38zM444 62l14 -39c-21 -10 -79 -35 -161 -35c-153 0 -254 106 -254 245c0 160 119 259 273 259c71 0 126 -20 146 -34l-18 -40c-28 16 -70 32 -132 32c-143 0 -220 -94 -220 -211c0 -125 90 -209 212 -209c69 0 112 20 140 32z" />
    <glyph glyph-name="Ccircumflex" unicode="&#x108;" horiz-adv-x="640" 
d="M590 66l15 -39c-38 -19 -114 -39 -211 -39c-182 0 -356 111 -356 346c0 176 130 352 383 352c102 0 159 -23 182 -34l-16 -41c-40 20 -100 34 -163 34c-219 0 -335 -133 -335 -315c0 -166 111 -300 323 -300c66 0 132 13 178 36zM361 830h36l113 -115h-54l-76 79h-2
l-76 -79h-50z" />
    <glyph glyph-name="ccircumflex" unicode="&#x109;" horiz-adv-x="498" 
d="M260 692h38l100 -140h-51l-67 102h-2l-67 -102h-47zM444 62l14 -39c-21 -10 -79 -35 -161 -35c-153 0 -254 106 -254 245c0 160 119 259 273 259c71 0 126 -20 146 -34l-18 -40c-28 16 -70 32 -132 32c-143 0 -220 -94 -220 -211c0 -125 90 -209 212 -209
c69 0 112 20 140 32z" />
    <glyph glyph-name="Cdotaccent" unicode="&#x10a;" horiz-adv-x="640" 
d="M590 66l15 -39c-38 -19 -114 -39 -211 -39c-182 0 -356 111 -356 346c0 176 130 352 383 352c102 0 159 -23 182 -34l-16 -41c-40 20 -100 34 -163 34c-219 0 -335 -133 -335 -315c0 -166 111 -300 323 -300c66 0 132 13 178 36zM376 724h-1c-21 0 -37 21 -37 41
c0 19 17 41 39 41s38 -22 38 -41c0 -20 -16 -41 -39 -41z" />
    <glyph glyph-name="cdotaccent" unicode="&#x10b;" horiz-adv-x="498" 
d="M281 581h-1c-22 0 -38 20 -38 42c0 21 18 42 40 42s39 -20 39 -42s-15 -42 -40 -42zM444 62l14 -39c-21 -10 -79 -35 -161 -35c-153 0 -254 106 -254 245c0 160 119 259 273 259c71 0 126 -20 146 -34l-18 -40c-28 16 -70 32 -132 32c-143 0 -220 -94 -220 -211
c0 -125 90 -209 212 -209c69 0 112 20 140 32z" />
    <glyph glyph-name="Ccaron" unicode="&#x10c;" horiz-adv-x="640" 
d="M590 66l15 -39c-38 -19 -114 -39 -211 -39c-182 0 -356 111 -356 346c0 176 130 352 383 352c102 0 159 -23 182 -34l-16 -41c-40 20 -100 34 -163 34c-219 0 -335 -133 -335 -315c0 -166 111 -300 323 -300c66 0 132 13 178 36zM404 715h-36l-113 115h54l77 -78h2l75 78
h50z" />
    <glyph glyph-name="ccaron" unicode="&#x10d;" horiz-adv-x="498" 
d="M304 552h-42l-100 140h51l69 -103h2l69 103h47zM444 62l14 -39c-21 -10 -79 -35 -161 -35c-153 0 -254 106 -254 245c0 160 119 259 273 259c71 0 126 -20 146 -34l-18 -40c-28 16 -70 32 -132 32c-143 0 -220 -94 -220 -211c0 -125 90 -209 212 -209c69 0 112 20 140 32
z" />
    <glyph glyph-name="Dcaron" unicode="&#x10e;" horiz-adv-x="724" 
d="M88 0v665c60 8 127 15 202 15c143 0 252 -39 315 -108c56 -61 81 -133 81 -220c0 -77 -23 -171 -93 -246c-65 -69 -179 -112 -330 -112c-61 0 -117 1 -175 6zM137 626v-585c32 -5 80 -6 134 -6c256 0 365 141 365 316c2 165 -104 288 -350 288c-65 0 -114 -6 -149 -13z
M358 714h-36l-113 115h54l77 -78h2l75 78h50z" />
    <glyph glyph-name="dcaron" unicode="&#x10f;" horiz-adv-x="612" 
d="M465 716h49v-600c0 -39 1 -77 4 -116h-45l-3 100h-2c-28 -60 -94 -112 -194 -112c-135 0 -231 108 -231 241c-1 156 107 263 242 263c100 0 157 -53 178 -92h2v316zM465 202v85c0 14 -2 33 -6 47c-21 65 -83 118 -173 118c-114 0 -194 -87 -194 -217
c0 -108 63 -207 193 -207c82 0 154 56 174 132c4 13 6 26 6 42zM581 547l-18 25c18 12 45 33 45 78c0 23 -17 47 -38 61l43 12c18 -10 39 -37 39 -71c0 -70 -57 -98 -71 -105z" />
    <glyph glyph-name="Dcroat" unicode="&#x110;" horiz-adv-x="725" 
d="M-6 317v40h94v311c60 8 127 15 202 15c143 0 252 -39 315 -108c56 -61 81 -133 81 -223c0 -77 -23 -171 -93 -246c-65 -69 -179 -112 -330 -112c-61 0 -117 1 -175 6v317h-94zM376 357v-40h-239v-276c32 -5 80 -6 134 -6c256 0 365 141 365 319c2 165 -104 288 -350 288
c-65 0 -114 -6 -149 -13v-272h239z" />
    <glyph glyph-name="dcroat" unicode="&#x111;" horiz-adv-x="602" 
d="M596 562h-82v-446c0 -39 1 -77 4 -116h-45l-3 100h-2c-28 -60 -94 -112 -194 -112c-135 0 -231 108 -231 241c-1 156 107 263 242 263c100 0 157 -53 178 -92h2v162h-233v39h233v115h49v-115h82v-39zM465 202v85c0 14 -2 33 -6 47c-21 65 -83 118 -173 118
c-114 0 -194 -87 -194 -217c0 -108 63 -207 193 -207c82 0 154 56 174 132c4 13 6 26 6 42z" />
    <glyph glyph-name="Emacron" unicode="&#x112;" horiz-adv-x="511" 
d="M437 376v-41h-300v-294h334v-41h-383v674h366v-41h-317v-257h300zM155 772h237v-40h-237v40z" />
    <glyph glyph-name="emacron" unicode="&#x113;" horiz-adv-x="537" 
d="M160 633h217v-41h-217v41zM490 240h-399c0 -140 89 -210 203 -210c83 0 123 16 154 30l13 -39c-17 -8 -71 -33 -172 -33c-149 0 -246 101 -246 240c0 163 104 264 240 264c178 0 209 -158 209 -222c0 -15 0 -22 -2 -30zM94 279h347c1 50 -20 173 -164 173
c-122 0 -173 -100 -183 -173z" />
    <glyph glyph-name="Ebreve" unicode="&#x114;" horiz-adv-x="511" 
d="M437 376v-41h-300v-294h334v-41h-383v674h366v-41h-317v-257h300zM142 825h36c6 -22 24 -53 84 -53c59 0 78 28 82 53h36c-2 -50 -33 -97 -121 -97c-84 0 -115 47 -117 97z" />
    <glyph glyph-name="ebreve" unicode="&#x115;" horiz-adv-x="537" 
d="M147 681h38c8 -42 38 -77 83 -77c56 0 79 44 83 77h38c-1 -72 -53 -117 -121 -117c-91 0 -120 67 -121 117zM490 240h-399c0 -140 89 -210 203 -210c83 0 123 16 154 30l13 -39c-17 -8 -71 -33 -172 -33c-149 0 -246 101 -246 240c0 163 104 264 240 264
c178 0 209 -158 209 -222c0 -15 0 -22 -2 -30zM94 279h347c1 50 -20 173 -164 173c-122 0 -173 -100 -183 -173z" />
    <glyph glyph-name="Edotaccent" unicode="&#x116;" horiz-adv-x="511" 
d="M437 376v-41h-300v-294h334v-41h-383v674h366v-41h-317v-257h300zM255 724h-1c-21 0 -37 21 -37 41c0 19 17 41 39 41s38 -22 38 -41c0 -20 -16 -41 -39 -41z" />
    <glyph glyph-name="edotaccent" unicode="&#x117;" horiz-adv-x="537" 
d="M268 581h-1c-22 0 -38 20 -38 42c0 21 18 42 40 42s39 -20 39 -42s-15 -42 -40 -42zM490 240h-399c0 -140 89 -210 203 -210c83 0 123 16 154 30l13 -39c-17 -8 -71 -33 -172 -33c-149 0 -246 101 -246 240c0 163 104 264 240 264c178 0 209 -158 209 -222
c0 -15 0 -22 -2 -30zM94 279h347c1 50 -20 173 -164 173c-122 0 -173 -100 -183 -173z" />
    <glyph glyph-name="Eogonek" unicode="&#x118;" horiz-adv-x="511" 
d="M466 -153l9 -32c-21 -9 -41 -13 -64 -13c-54 0 -88 26 -88 74c0 53 48 101 85 124h-320v674h366v-41h-317v-257h300v-41h-300v-294h334v-41h-11c-47 -30 -92 -76 -92 -115c0 -29 20 -45 53 -45c17 0 30 2 45 7z" />
    <glyph glyph-name="eogonek" unicode="&#x119;" horiz-adv-x="537" 
d="M402 -150l9 -30c-18 -11 -41 -17 -67 -17c-50 0 -83 26 -83 75c0 46 40 89 75 111v1c-15 -1 -29 -2 -47 -2c-149 0 -246 101 -246 240c0 163 104 264 240 264c178 0 209 -158 209 -222c0 -15 0 -22 -2 -30h-399c0 -140 89 -210 203 -210c83 0 123 16 154 30l13 -39
c-18 -9 -49 -18 -57 -21c-40 -16 -98 -66 -98 -111c0 -33 22 -48 46 -48c15 0 37 3 50 9zM94 279h347c1 50 -20 173 -164 173c-122 0 -173 -100 -183 -173z" />
    <glyph glyph-name="Ecaron" unicode="&#x11a;" horiz-adv-x="511" 
d="M437 376v-41h-300v-294h334v-41h-383v674h366v-41h-317v-257h300zM290 710h-36l-113 115h54l77 -78h2l75 78h50z" />
    <glyph glyph-name="ecaron" unicode="&#x11b;" horiz-adv-x="537" 
d="M291 552h-42l-100 140h51l69 -103h2l69 103h47zM490 240h-399c0 -140 89 -210 203 -210c83 0 123 16 154 30l13 -39c-17 -8 -71 -33 -172 -33c-149 0 -246 101 -246 240c0 163 104 264 240 264c178 0 209 -158 209 -222c0 -15 0 -22 -2 -30zM94 279h347
c1 50 -20 173 -164 173c-122 0 -173 -100 -183 -173z" />
    <glyph glyph-name="Gcircumflex" unicode="&#x11c;" horiz-adv-x="694" 
d="M631 333v-299c-36 -14 -116 -41 -226 -41c-103 0 -194 26 -269 96c-60 56 -98 147 -98 249c0 158 120 343 391 343c84 0 152 -21 180 -34l-16 -40c-41 19 -93 33 -166 33c-221 0 -338 -137 -338 -304c0 -175 119 -302 325 -302c83 0 137 12 168 28v231h-174v40h223z
M368 829h36l113 -115h-54l-76 79h-2l-76 -79h-50z" />
    <glyph glyph-name="gcircumflex" unicode="&#x11d;" horiz-adv-x="602" 
d="M280 698h38l100 -140h-51l-67 102h-2l-67 -102h-47zM514 364v-293c0 -117 -29 -184 -74 -224c-50 -45 -122 -59 -180 -59c-60 0 -129 15 -171 47l18 39c39 -26 91 -46 161 -46c115 0 197 58 197 204v70h-2c-28 -51 -91 -102 -191 -102c-137 0 -229 113 -229 234
c0 161 118 258 240 258c106 0 163 -55 185 -101h2l3 89h45c-3 -39 -4 -77 -4 -116zM465 207v80c0 19 -2 35 -7 50c-23 64 -84 115 -170 115c-115 0 -196 -84 -196 -212c0 -96 60 -200 194 -200c76 0 143 49 169 115c6 15 10 34 10 52z" />
    <glyph glyph-name="Gbreve" unicode="&#x11e;" horiz-adv-x="694" 
d="M631 333v-299c-36 -14 -116 -41 -226 -41c-103 0 -194 26 -269 96c-60 56 -98 147 -98 249c0 158 120 343 391 343c84 0 152 -21 180 -34l-16 -40c-41 19 -93 33 -166 33c-221 0 -338 -137 -338 -304c0 -175 119 -302 325 -302c83 0 137 12 168 28v231h-174v40h223z
M255 825h36c6 -22 24 -53 84 -53c59 0 78 28 82 53h36c-2 -50 -33 -97 -121 -97c-84 0 -115 47 -117 97z" />
    <glyph glyph-name="gbreve" unicode="&#x11f;" horiz-adv-x="602" 
d="M165 681h38c8 -42 38 -77 83 -77c56 0 79 44 83 77h38c-1 -72 -53 -117 -121 -117c-91 0 -120 67 -121 117zM514 364v-293c0 -117 -29 -184 -74 -224c-50 -45 -122 -59 -180 -59c-60 0 -129 15 -171 47l18 39c39 -26 91 -46 161 -46c115 0 197 58 197 204v70h-2
c-28 -51 -91 -102 -191 -102c-137 0 -229 113 -229 234c0 161 118 258 240 258c106 0 163 -55 185 -101h2l3 89h45c-3 -39 -4 -77 -4 -116zM465 207v80c0 19 -2 35 -7 50c-23 64 -84 115 -170 115c-115 0 -196 -84 -196 -212c0 -96 60 -200 194 -200c76 0 143 49 169 115
c6 15 10 34 10 52z" />
    <glyph glyph-name="Gdotaccent" unicode="&#x120;" horiz-adv-x="694" 
d="M631 333v-299c-36 -14 -116 -41 -226 -41c-103 0 -194 26 -269 96c-60 56 -98 147 -98 249c0 158 120 343 391 343c84 0 152 -21 180 -34l-16 -40c-41 19 -93 33 -166 33c-221 0 -338 -137 -338 -304c0 -175 119 -302 325 -302c83 0 137 12 168 28v231h-174v40h223z
M389 724h-1c-21 0 -37 21 -37 41c0 19 17 41 39 41s38 -22 38 -41c0 -20 -16 -41 -39 -41z" />
    <glyph glyph-name="gdotaccent" unicode="&#x121;" horiz-adv-x="602" 
d="M301 587h-1c-22 0 -38 20 -38 42c0 21 18 42 40 42s39 -20 39 -42s-15 -42 -40 -42zM514 364v-293c0 -117 -29 -184 -74 -224c-50 -45 -122 -59 -180 -59c-60 0 -129 15 -171 47l18 39c39 -26 91 -46 161 -46c115 0 197 58 197 204v70h-2c-28 -51 -91 -102 -191 -102
c-137 0 -229 113 -229 234c0 161 118 258 240 258c106 0 163 -55 185 -101h2l3 89h45c-3 -39 -4 -77 -4 -116zM465 207v80c0 19 -2 35 -7 50c-23 64 -84 115 -170 115c-115 0 -196 -84 -196 -212c0 -96 60 -200 194 -200c76 0 143 49 169 115c6 15 10 34 10 52z" />
    <glyph glyph-name="Gcommaaccent" unicode="&#x122;" horiz-adv-x="694" 
d="M631 333v-299c-36 -14 -116 -41 -226 -41c-103 0 -194 26 -269 96c-60 56 -98 147 -98 249c0 158 120 343 391 343c84 0 152 -21 180 -34l-16 -40c-41 19 -93 33 -166 33c-221 0 -338 -137 -338 -304c0 -175 119 -302 325 -302c83 0 137 12 168 28v231h-174v40h223z
M337 -210l-13 27c45 5 85 23 85 68c0 23 -17 47 -38 61l40 12c21 -12 42 -39 42 -71c0 -70 -70 -95 -116 -97z" />
    <glyph glyph-name="gcommaaccent" unicode="&#x123;" horiz-adv-x="602" 
d="M514 364v-293c0 -117 -29 -184 -74 -224c-50 -45 -122 -59 -180 -59c-60 0 -129 15 -171 47l18 39c39 -26 91 -46 161 -46c115 0 197 58 197 204v70h-2c-28 -51 -91 -102 -191 -102c-137 0 -229 113 -229 234c0 161 118 258 240 258c106 0 163 -55 185 -101h2l3 89h45
c-3 -39 -4 -77 -4 -116zM465 207v80c0 19 -2 35 -7 50c-23 64 -84 115 -170 115c-115 0 -196 -84 -196 -212c0 -96 60 -200 194 -200c76 0 143 49 169 115c6 15 10 34 10 52zM350 704l13 -27c-45 -5 -85 -23 -85 -68c0 -23 17 -47 38 -61l-40 -12c-21 12 -42 39 -42 71
c0 70 70 95 116 97z" />
    <glyph glyph-name="Hcircumflex" unicode="&#x124;" horiz-adv-x="696" 
d="M88 674h49v-295h422v295h49v-674h-49v338h-422v-338h-49v674zM328 825h36l113 -115h-54l-76 79h-2l-76 -79h-50z" />
    <glyph glyph-name="hcircumflex" unicode="&#x125;" horiz-adv-x="591" 
d="M88 0v716h49v-333h2c15 30 41 59 74 78c31 19 69 31 108 31c46 0 187 -20 187 -218v-274h-49v272c0 93 -40 177 -151 177c-76 0 -140 -54 -163 -113c-6 -15 -8 -29 -8 -51v-285h-49zM97 843h36l113 -115h-54l-76 79h-2l-76 -79h-50z" />
    <glyph glyph-name="Hbar" unicode="&#x126;" horiz-adv-x="696" 
d="M662 482h-54v-482h-49v330h-422v-330h-49v482h-54v39h54v153h49v-153h422v153h49v-153h54v-39zM559 371v111h-422v-111h422z" />
    <glyph glyph-name="hbar" unicode="&#x127;" horiz-adv-x="591" 
d="M508 0h-49v272c0 93 -40 177 -151 177c-76 0 -140 -54 -163 -113c-6 -15 -8 -29 -8 -51v-285h-49v562h-82v39h82v115h49v-115h223v-39h-223v-179h2c15 30 41 59 74 78c31 19 69 31 108 31c46 0 187 -20 187 -218v-274z" />
    <glyph glyph-name="Itilde" unicode="&#x128;" horiz-adv-x="225" 
d="M88 674h49v-674h-49v674zM27 715h-34c-1 47 23 88 65 88c20 0 35 -8 61 -22c16 -8 35 -17 53 -17c14 0 25 5 27 38h34c0 -49 -19 -82 -61 -82c-18 0 -35 6 -63 20c-22 11 -38 20 -54 20c-18 0 -25 -20 -28 -45z" />
    <glyph glyph-name="itilde" unicode="&#x129;" horiz-adv-x="225" 
d="M32 576h-34c-1 56 23 90 61 90c20 0 36 -10 66 -25c16 -8 30 -15 42 -15c15 0 27 9 29 43h33c0 -54 -17 -87 -60 -87c-18 0 -37 9 -60 21c-24 13 -37 19 -49 19c-17 0 -26 -20 -28 -46zM137 0h-49v480h49v-480z" />
    <glyph glyph-name="Imacron" unicode="&#x12a;" horiz-adv-x="225" 
d="M88 674h49v-674h-49v674zM-5 772h237v-40h-237v40z" />
    <glyph glyph-name="imacron" unicode="&#x12b;" horiz-adv-x="225" 
d="M5 633h217v-41h-217v41zM137 0h-49v480h49v-480z" />
    <glyph glyph-name="Ibreve" unicode="&#x12c;" horiz-adv-x="225" 
d="M88 674h49v-674h-49v674zM-6 818h36c6 -22 24 -53 84 -53c59 0 78 28 82 53h36c-2 -50 -33 -97 -121 -97c-84 0 -115 47 -117 97z" />
    <glyph glyph-name="ibreve" unicode="&#x12d;" horiz-adv-x="225" 
d="M-2 681h38c8 -42 38 -77 83 -77c56 0 79 44 83 77h38c-1 -72 -53 -117 -121 -117c-91 0 -120 67 -121 117zM137 0h-49v480h49v-480z" />
    <glyph glyph-name="Iogonek" unicode="&#x12e;" horiz-adv-x="225" 
d="M137 674v-674h-6c-19 -24 -55 -73 -55 -116c0 -33 20 -49 51 -49c19 0 34 4 47 10l9 -30c-16 -12 -48 -18 -70 -18c-48 0 -82 27 -82 75c0 50 33 94 57 128v674h49z" />
    <glyph glyph-name="iogonek" unicode="&#x12f;" horiz-adv-x="225" 
d="M112 588h-1c-23 0 -39 21 -39 43s18 43 41 43s40 -20 40 -43c0 -22 -16 -43 -41 -43zM137 480v-480h-6c-19 -24 -55 -73 -55 -116c0 -33 20 -49 51 -49c19 0 34 4 47 10l9 -30c-16 -12 -48 -18 -70 -18c-48 0 -82 27 -82 75c0 50 33 94 57 128v480h49z" />
    <glyph glyph-name="Idotaccent" unicode="&#x130;" horiz-adv-x="225" 
d="M88 674h49v-674h-49v674zM113 724h-1c-21 0 -37 21 -37 41c0 19 17 41 39 41s38 -22 38 -41c0 -20 -16 -41 -39 -41z" />
    <glyph glyph-name="dotlessi" unicode="&#x131;" horiz-adv-x="225" 
d="M137 0h-49v480h49v-480z" />
    <glyph glyph-name="IJ" unicode="&#x132;" horiz-adv-x="603" 
d="M88 674h49v-674h-49v674zM474 233v441h49v-454c0 -188 -100 -232 -196 -232c-36 0 -78 10 -96 19l12 40c19 -9 48 -17 84 -17c93 0 147 44 147 203z" />
    <glyph glyph-name="ij" unicode="&#x133;" horiz-adv-x="455" 
d="M137 0h-49v480h49v-480zM113 665c23 0 40 -20 40 -43c0 -22 -16 -43 -42 -43c-23 0 -39 21 -39 43s18 43 41 43zM172 -212l-5 40c48 1 87 14 111 39c28 30 40 68 40 204v409h49v-445c0 -83 -10 -146 -55 -194c-38 -40 -105 -53 -140 -53zM344 665c23 0 39 -21 39 -43
c0 -21 -15 -43 -42 -43c-24 0 -39 22 -39 43c0 22 18 43 42 43z" />
    <glyph glyph-name="Jcircumflex" unicode="&#x134;" horiz-adv-x="378" 
d="M249 233v441h49v-454c0 -188 -100 -232 -196 -232c-36 0 -78 10 -96 19l12 40c19 -9 48 -17 84 -17c93 0 147 44 147 203zM249 825h36l113 -115h-54l-76 79h-2l-76 -79h-50z" />
    <glyph glyph-name="jcircumflex" unicode="&#x135;" horiz-adv-x="230" 
d="M-53 -212l-5 40c48 1 87 14 111 39c28 30 40 68 40 204v409h49v-445c0 -83 -10 -146 -55 -194c-38 -40 -105 -53 -140 -53zM91 682h38l100 -140h-51l-67 102h-2l-67 -102h-47z" />
    <glyph glyph-name="Kcommaaccent" unicode="&#x136;" horiz-adv-x="540" 
d="M88 0v674h49v-345h4c20 26 42 48 61 68l269 277h62l-284 -287l314 -387h-61l-287 356l-78 -78v-278h-49zM216 -210l-13 27c45 5 85 23 85 68c0 23 -17 47 -38 61l40 12c21 -12 42 -39 42 -71c0 -70 -70 -95 -116 -97z" />
    <glyph glyph-name="kcommaaccent" unicode="&#x137;" horiz-adv-x="458" 
d="M137 716v-467h2c13 15 36 39 53 55l187 176h62l-214 -198l245 -282h-61l-219 254l-55 -53v-201h-49v716h49zM175 -210l-13 27c45 5 85 23 85 68c0 23 -17 47 -38 61l40 12c21 -12 42 -39 42 -71c0 -70 -70 -95 -116 -97z" />
    <glyph glyph-name="kgreenlandic" unicode="&#x138;" horiz-adv-x="458" 
d="M137 480v-231h2c13 15 36 39 53 55l187 176h62l-214 -198l245 -282h-61l-219 254l-55 -53v-201h-49v480h49z" />
    <glyph glyph-name="Lacute" unicode="&#x139;" horiz-adv-x="490" 
d="M88 0v674h49v-633h334v-41h-383zM196 825h76l-132 -115h-40z" />
    <glyph glyph-name="lacute" unicode="&#x13a;" horiz-adv-x="225" 
d="M88 0v716h49v-716h-49zM162 861h76l-132 -115h-40z" />
    <glyph glyph-name="Lcommaaccent" unicode="&#x13b;" horiz-adv-x="490" 
d="M88 0v674h49v-633h334v-41h-383zM206 -210l-13 27c45 5 85 23 85 68c0 23 -17 47 -38 61l40 12c21 -12 42 -39 42 -71c0 -70 -70 -95 -116 -97z" />
    <glyph glyph-name="lcommaaccent" unicode="&#x13c;" horiz-adv-x="225" 
d="M88 0v716h49v-716h-49zM51 -210l-13 27c45 5 85 23 85 68c0 23 -17 47 -38 61l40 12c21 -12 42 -39 42 -71c0 -70 -70 -95 -116 -97z" />
    <glyph glyph-name="Lcaron" unicode="&#x13d;" horiz-adv-x="490" 
d="M88 0v674h49v-633h334v-41h-383zM259 518l-13 27c45 5 85 23 85 68c0 23 -17 47 -38 61l40 12c21 -12 42 -39 42 -71c0 -70 -70 -95 -116 -97z" />
    <glyph glyph-name="lcaron" unicode="&#x13e;" horiz-adv-x="235" 
d="M88 0v716h49v-716h-49zM196 547l-18 25c18 12 45 33 45 78c0 23 -17 47 -38 61l43 12c18 -10 39 -37 39 -71c0 -70 -57 -98 -71 -105z" />
    <glyph glyph-name="Ldot" unicode="&#x13f;" horiz-adv-x="490" 
d="M88 0v674h49v-633h334v-41h-383zM349 328h-1c-21 0 -37 21 -37 41c0 19 17 41 39 41s38 -22 38 -41c0 -20 -16 -41 -39 -41z" />
    <glyph glyph-name="ldot" unicode="&#x140;" horiz-adv-x="235" 
d="M88 0v716h49v-716h-49zM227 349h-1c-22 0 -37 20 -37 41s17 41 39 41s38 -19 38 -41c0 -21 -15 -41 -39 -41z" />
    <glyph glyph-name="Lslash" unicode="&#x141;" horiz-adv-x="490" 
d="M471 0h-383v298l-94 -65v44l94 64v333h49v-302l147 99v-44l-147 -99v-287h334v-41z" />
    <glyph glyph-name="lslash" unicode="&#x142;" horiz-adv-x="225" 
d="M137 0h-49v330l-72 -59v45l72 59v341h49v-304l72 59v-46l-72 -59v-366z" />
    <glyph glyph-name="Nacute" unicode="&#x143;" horiz-adv-x="706" 
d="M136 0h-48v674h46l305 -415c62 -84 102 -137 137 -197l2 2c-7 78 -8 158 -8 262v348h48v-674h-45l-295 401c-57 78 -109 149 -145 209l-3 -2c5 -76 6 -148 6 -248v-360zM411 825h76l-132 -115h-40z" />
    <glyph glyph-name="nacute" unicode="&#x144;" horiz-adv-x="591" 
d="M354 692h74l-127 -140h-38zM88 0v364c0 39 -1 77 -4 116h46l4 -96h2c29 59 97 108 185 108c44 0 187 -20 187 -219v-273h-49v273c0 94 -41 177 -151 177c-77 0 -141 -53 -163 -114c-4 -11 -8 -28 -8 -43v-293h-49z" />
    <glyph glyph-name="Ncommaaccent" unicode="&#x145;" horiz-adv-x="706" 
d="M136 0h-48v674h46l305 -415c62 -84 102 -137 137 -197l2 2c-7 78 -8 158 -8 262v348h48v-674h-45l-295 401c-57 78 -109 149 -145 209l-3 -2c5 -76 6 -148 6 -248v-360zM299 -210l-13 27c45 5 85 23 85 68c0 23 -17 47 -38 61l40 12c21 -12 42 -39 42 -71
c0 -70 -70 -95 -116 -97z" />
    <glyph glyph-name="ncommaaccent" unicode="&#x146;" horiz-adv-x="591" 
d="M88 0v364c0 39 -1 77 -4 116h46l4 -96h2c29 59 97 108 185 108c44 0 187 -20 187 -219v-273h-49v273c0 94 -41 177 -151 177c-77 0 -141 -53 -163 -114c-4 -11 -8 -28 -8 -43v-293h-49zM241 -210l-13 27c45 5 85 23 85 68c0 23 -17 47 -38 61l40 12c21 -12 42 -39 42 -71
c0 -70 -70 -95 -116 -97z" />
    <glyph glyph-name="Ncaron" unicode="&#x147;" horiz-adv-x="706" 
d="M136 0h-48v674h46l305 -415c62 -84 102 -137 137 -197l2 2c-7 78 -8 158 -8 262v348h48v-674h-45l-295 401c-57 78 -109 149 -145 209l-3 -2c5 -76 6 -148 6 -248v-360zM373 700h-36l-113 115h54l77 -78h2l75 78h50z" />
    <glyph glyph-name="ncaron" unicode="&#x148;" horiz-adv-x="591" 
d="M318 552h-42l-100 140h51l69 -103h2l69 103h47zM88 0v364c0 39 -1 77 -4 116h46l4 -96h2c29 59 97 108 185 108c44 0 187 -20 187 -219v-273h-49v273c0 94 -41 177 -151 177c-77 0 -141 -53 -163 -114c-4 -11 -8 -28 -8 -43v-293h-49z" />
    <glyph glyph-name="napostrophe" unicode="&#x149;" horiz-adv-x="591" 
d="M88 0v364c0 39 -1 77 -4 116h46l4 -96h2c29 59 97 108 185 108c44 0 187 -20 187 -219v-273h-49v273c0 94 -41 177 -151 177c-77 0 -141 -53 -163 -114c-4 -11 -8 -28 -8 -43v-293h-49zM41 547l-18 25c18 12 45 33 45 78c0 23 -17 47 -38 61l43 12c18 -10 39 -37 39 -71
c0 -70 -57 -98 -71 -105z" />
    <glyph glyph-name="Eng" unicode="&#x14a;" horiz-adv-x="706" 
d="M136 0h-48v674h46l305 -415c62 -84 102 -137 137 -197l2 2c-7 78 -8 158 -8 262v348h48v-636c0 -133 -56 -211 -188 -232l-8 41c98 16 144 65 151 153l-295 401c-57 78 -109 149 -145 209l-3 -2c5 -76 6 -148 6 -248v-360z" />
    <glyph glyph-name="eng" unicode="&#x14b;" horiz-adv-x="591" 
d="M88 0v364c0 39 -1 77 -4 116h46l4 -96h2c29 59 97 108 185 108c44 0 187 -20 187 -219v-203c0 -146 -87 -224 -198 -241l-9 42c105 21 158 90 158 199v203c0 94 -41 177 -151 177c-77 0 -141 -53 -163 -114c-4 -11 -8 -28 -8 -43v-293h-49z" />
    <glyph glyph-name="Omacron" unicode="&#x14c;" horiz-adv-x="753" 
d="M380 686c198 0 335 -146 335 -340c0 -233 -166 -358 -342 -358c-192 0 -335 143 -335 340c0 212 150 358 342 358zM378 646c-192 0 -289 -150 -289 -316c0 -159 109 -302 286 -302c178 0 289 135 289 314c0 146 -95 304 -286 304zM258 782h237v-40h-237v40z" />
    <glyph glyph-name="omacron" unicode="&#x14d;" horiz-adv-x="591" 
d="M187 633h217v-41h-217v41zM297 492c154 0 251 -109 251 -246c0 -180 -140 -258 -258 -258c-143 0 -247 105 -247 247c0 160 120 257 254 257zM297 452c-136 0 -205 -102 -205 -214c0 -134 97 -210 201 -210c106 0 206 77 206 215c0 91 -61 209 -202 209z" />
    <glyph glyph-name="Obreve" unicode="&#x14e;" horiz-adv-x="753" 
d="M380 686c198 0 335 -146 335 -340c0 -233 -166 -358 -342 -358c-192 0 -335 143 -335 340c0 212 150 358 342 358zM378 646c-192 0 -289 -150 -289 -316c0 -159 109 -302 286 -302c178 0 289 135 289 314c0 146 -95 304 -286 304zM257 830h36c6 -22 24 -53 84 -53
c59 0 78 28 82 53h36c-2 -50 -33 -97 -121 -97c-84 0 -115 47 -117 97z" />
    <glyph glyph-name="obreve" unicode="&#x14f;" horiz-adv-x="591" 
d="M174 681h38c8 -42 38 -77 83 -77c56 0 79 44 83 77h38c-1 -72 -53 -117 -121 -117c-91 0 -120 67 -121 117zM297 492c154 0 251 -109 251 -246c0 -180 -140 -258 -258 -258c-143 0 -247 105 -247 247c0 160 120 257 254 257zM297 452c-136 0 -205 -102 -205 -214
c0 -134 97 -210 201 -210c106 0 206 77 206 215c0 91 -61 209 -202 209z" />
    <glyph glyph-name="Ohungarumlaut" unicode="&#x150;" horiz-adv-x="753" 
d="M380 686c198 0 335 -146 335 -340c0 -233 -166 -358 -342 -358c-192 0 -335 143 -335 340c0 212 150 358 342 358zM378 646c-192 0 -289 -150 -289 -316c0 -159 109 -302 286 -302c178 0 289 135 289 314c0 146 -95 304 -286 304zM384 830h69l-122 -115h-38zM514 830h69
l-122 -115h-38z" />
    <glyph glyph-name="ohungarumlaut" unicode="&#x151;" horiz-adv-x="591" 
d="M290 691h69l-122 -127h-38zM420 691h69l-122 -127h-38zM297 492c154 0 251 -109 251 -246c0 -180 -140 -258 -258 -258c-143 0 -247 105 -247 247c0 160 120 257 254 257zM297 452c-136 0 -205 -102 -205 -214c0 -134 97 -210 201 -210c106 0 206 77 206 215
c0 91 -61 209 -202 209z" />
    <glyph glyph-name="OE" unicode="&#x152;" horiz-adv-x="962" 
d="M921 41v-41h-351c-24 0 -51 -3 -80 -6c-30 -3 -62 -6 -100 -6c-207 0 -352 140 -352 345c0 211 142 353 358 353c41 0 74 -3 103 -6s54 -6 76 -6h329v-41h-317v-258h300v-41h-300v-293h334zM538 45v584c-36 9 -77 17 -144 17c-214 0 -305 -155 -305 -310
c0 -165 108 -308 313 -308c53 0 106 7 136 17z" />
    <glyph glyph-name="oe" unicode="&#x153;" horiz-adv-x="955" 
d="M908 240h-381c-3 -126 79 -210 197 -210c72 0 113 17 142 30l15 -39c-31 -16 -93 -33 -159 -33c-104 0 -181 44 -222 138h-2c-38 -95 -130 -138 -214 -138c-142 0 -241 106 -241 247c0 155 111 257 245 257c103 0 181 -54 213 -141h2c40 97 115 141 201 141
c176 0 206 -162 206 -220c0 -15 0 -25 -2 -32zM285 452h-1c-135 0 -192 -116 -192 -214c0 -133 96 -210 193 -210c104 0 194 73 194 212c0 107 -63 212 -194 212zM527 279h332c1 50 -22 173 -158 173c-118 0 -165 -101 -174 -173z" />
    <glyph glyph-name="Racute" unicode="&#x154;" horiz-adv-x="549" 
d="M88 0v665c46 9 112 15 164 15c96 0 156 -20 197 -60c29 -27 48 -72 48 -118c0 -89 -57 -150 -139 -175v-2c55 -19 91 -70 107 -137c25 -106 39 -159 55 -188h-52c-11 19 -26 78 -45 162c-22 97 -66 142 -158 147h-128v-309h-49zM137 629v-280h130c111 0 181 58 181 145
c0 108 -89 146 -197 146c-55 0 -95 -6 -114 -11zM327 830h76l-132 -115h-40z" />
    <glyph glyph-name="racute" unicode="&#x155;" horiz-adv-x="320" 
d="M231 692h74l-127 -140h-38zM88 0v325c0 52 -1 103 -4 155h45l2 -104h3c24 67 76 116 147 116c8 0 16 -1 23 -3v-45c-9 2 -17 2 -28 2c-67 0 -118 -56 -134 -139c-3 -14 -5 -31 -5 -47v-260h-49z" />
    <glyph glyph-name="Rcommaaccent" unicode="&#x156;" horiz-adv-x="549" 
d="M88 0v665c46 9 112 15 164 15c96 0 156 -20 197 -60c29 -27 48 -72 48 -118c0 -89 -57 -150 -139 -175v-2c55 -19 91 -70 107 -137c25 -106 39 -159 55 -188h-52c-11 19 -26 78 -45 162c-22 97 -66 142 -158 147h-128v-309h-49zM137 629v-280h130c111 0 181 58 181 145
c0 108 -89 146 -197 146c-55 0 -95 -6 -114 -11zM220 -200l-13 27c45 5 85 23 85 68c0 23 -17 47 -38 61l40 12c21 -12 42 -39 42 -71c0 -70 -70 -95 -116 -97z" />
    <glyph glyph-name="rcommaaccent" unicode="&#x157;" horiz-adv-x="320" 
d="M88 0v325c0 52 -1 103 -4 155h45l2 -104h3c24 67 76 116 147 116c8 0 16 -1 23 -3v-45c-9 2 -17 2 -28 2c-67 0 -118 -56 -134 -139c-3 -14 -5 -31 -5 -47v-260h-49zM60 -210l-13 27c45 5 85 23 85 68c0 23 -17 47 -38 61l40 12c21 -12 42 -39 42 -71
c0 -70 -70 -95 -116 -97z" />
    <glyph glyph-name="Rcaron" unicode="&#x158;" horiz-adv-x="549" 
d="M88 0v665c46 9 112 15 164 15c96 0 156 -20 197 -60c29 -27 48 -72 48 -118c0 -89 -57 -150 -139 -175v-2c55 -19 91 -70 107 -137c25 -106 39 -159 55 -188h-52c-11 19 -26 78 -45 162c-22 97 -66 142 -158 147h-128v-309h-49zM137 629v-280h130c111 0 181 58 181 145
c0 108 -89 146 -197 146c-55 0 -95 -6 -114 -11zM290 715h-36l-113 115h54l77 -78h2l75 78h50z" />
    <glyph glyph-name="rcaron" unicode="&#x159;" horiz-adv-x="320" 
d="M208 552h-42l-100 140h51l69 -103h2l69 103h47zM88 0v325c0 52 -1 103 -4 155h45l2 -104h3c24 67 76 116 147 116c8 0 16 -1 23 -3v-45c-9 2 -17 2 -28 2c-67 0 -118 -56 -134 -139c-3 -14 -5 -31 -5 -47v-260h-49z" />
    <glyph glyph-name="Sacute" unicode="&#x15a;" horiz-adv-x="505" 
d="M46 38l19 41c44 -30 102 -50 167 -50c109 0 175 58 175 141c0 77 -39 121 -152 157c-135 43 -189 98 -189 186c0 99 85 173 209 173c71 0 124 -17 150 -34l-19 -41c-19 13 -67 35 -133 35c-121 0 -159 -73 -159 -126c0 -72 43 -113 152 -148c123 -40 189 -88 189 -197
c0 -93 -68 -187 -229 -187c-64 0 -139 20 -180 50zM325 830h76l-132 -115h-40z" />
    <glyph glyph-name="sacute" unicode="&#x15b;" horiz-adv-x="408" 
d="M263 692h74l-127 -140h-38zM50 23l18 42c29 -18 72 -36 120 -36c84 0 121 44 121 93c0 56 -38 83 -113 107c-87 28 -130 73 -130 130c0 68 54 133 158 133c47 0 88 -13 116 -32l-19 -40c-16 11 -51 31 -106 31c-66 0 -101 -40 -101 -86c0 -54 41 -75 112 -99
c88 -30 131 -68 131 -140c0 -78 -64 -138 -173 -138c-51 0 -98 14 -134 35z" />
    <glyph glyph-name="Scircumflex" unicode="&#x15c;" horiz-adv-x="505" 
d="M46 38l19 41c44 -30 102 -50 167 -50c109 0 175 58 175 141c0 77 -39 121 -152 157c-135 43 -189 98 -189 186c0 99 85 173 209 173c71 0 124 -17 150 -34l-19 -41c-19 13 -67 35 -133 35c-121 0 -159 -73 -159 -126c0 -72 43 -113 152 -148c123 -40 189 -88 189 -197
c0 -93 -68 -187 -229 -187c-64 0 -139 20 -180 50zM232 831h36l113 -115h-54l-76 79h-2l-76 -79h-50z" />
    <glyph glyph-name="scircumflex" unicode="&#x15d;" horiz-adv-x="408" 
d="M185 692h38l100 -140h-51l-67 102h-2l-67 -102h-47zM50 23l18 42c29 -18 72 -36 120 -36c84 0 121 44 121 93c0 56 -38 83 -113 107c-87 28 -130 73 -130 130c0 68 54 133 158 133c47 0 88 -13 116 -32l-19 -40c-16 11 -51 31 -106 31c-66 0 -101 -40 -101 -86
c0 -54 41 -75 112 -99c88 -30 131 -68 131 -140c0 -78 -64 -138 -173 -138c-51 0 -98 14 -134 35z" />
    <glyph glyph-name="Scedilla" unicode="&#x15e;" horiz-adv-x="505" 
d="M46 38l19 41c44 -30 102 -50 167 -50c109 0 175 58 175 141c0 77 -39 121 -152 157c-135 43 -189 98 -189 186c0 99 85 173 209 173c71 0 124 -17 150 -34l-19 -41c-19 13 -67 35 -133 35c-121 0 -159 -73 -159 -126c0 -72 43 -113 152 -148c123 -40 189 -88 189 -197
c0 -83 -54 -165 -178 -184l-32 -45c39 -6 70 -33 70 -70c0 -51 -44 -74 -97 -74c-23 0 -49 7 -63 15l11 35c15 -7 32 -13 57 -13c27 0 48 12 48 35c0 29 -35 40 -80 45l45 69h-10c-64 0 -139 20 -180 50z" />
    <glyph glyph-name="scedilla" unicode="&#x15f;" horiz-adv-x="408" 
d="M50 23l18 42c29 -18 72 -36 120 -36c84 0 121 44 121 93c0 56 -38 83 -113 107c-87 28 -130 73 -130 130c0 68 54 133 158 133c47 0 88 -13 116 -32l-19 -40c-16 11 -51 31 -106 31c-66 0 -101 -40 -101 -86c0 -54 41 -75 112 -99c88 -30 131 -68 131 -140
c0 -66 -47 -120 -128 -134l-32 -46c37 -5 70 -29 70 -66c0 -56 -43 -78 -99 -78c-18 0 -45 6 -60 15l11 35c16 -9 37 -13 56 -13c26 0 51 9 50 36c-1 30 -36 40 -81 44l45 69h-5c-51 0 -98 14 -134 35z" />
    <glyph glyph-name="Scaron" unicode="&#x160;" horiz-adv-x="505" 
d="M46 38l19 41c44 -30 102 -50 167 -50c109 0 175 58 175 141c0 77 -39 121 -152 157c-135 43 -189 98 -189 186c0 99 85 173 209 173c71 0 124 -17 150 -34l-19 -41c-19 13 -67 35 -133 35c-121 0 -159 -73 -159 -126c0 -72 43 -113 152 -148c123 -40 189 -88 189 -197
c0 -93 -68 -187 -229 -187c-64 0 -139 20 -180 50zM282 715h-36l-113 115h54l77 -78h2l75 78h50z" />
    <glyph glyph-name="scaron" unicode="&#x161;" horiz-adv-x="408" 
d="M232 552h-42l-100 140h51l69 -103h2l69 103h47zM50 23l18 42c29 -18 72 -36 120 -36c84 0 121 44 121 93c0 56 -38 83 -113 107c-87 28 -130 73 -130 130c0 68 54 133 158 133c47 0 88 -13 116 -32l-19 -40c-16 11 -51 31 -106 31c-66 0 -101 -40 -101 -86
c0 -54 41 -75 112 -99c88 -30 131 -68 131 -140c0 -78 -64 -138 -173 -138c-51 0 -98 14 -134 35z" />
    <glyph glyph-name="Tcommaaccent" unicode="&#x162;" horiz-adv-x="510" 
d="M231 0v633h-251v41h551v-41h-251v-633h-49zM191 -210l-13 27c45 5 85 23 85 68c0 23 -17 47 -38 61l40 12c21 -12 42 -39 42 -71c0 -70 -70 -95 -116 -97z" />
    <glyph glyph-name="tcommaaccent" unicode="&#x163;" horiz-adv-x="339" 
d="M108 571l49 15v-106h152v-39h-152v-307c0 -59 18 -104 77 -104c29 0 49 4 63 9l6 -38c-17 -7 -42 -13 -74 -13c-38 0 -69 12 -89 36c-24 27 -32 71 -32 116v301h-88v39h88v91zM133 -220l-13 27c45 5 85 23 85 68c0 23 -17 47 -38 61l40 12c21 -12 42 -39 42 -71
c0 -70 -70 -95 -116 -97z" />
    <glyph glyph-name="Tcaron" unicode="&#x164;" horiz-adv-x="510" 
d="M231 0v633h-251v41h551v-41h-251v-633h-49zM275 710h-36l-113 115h54l77 -78h2l75 78h50z" />
    <glyph glyph-name="tcaron" unicode="&#x165;" horiz-adv-x="349" 
d="M108 571l49 15v-106h152v-39h-152v-307c0 -59 18 -104 77 -104c29 0 49 4 63 9l6 -38c-17 -7 -42 -13 -74 -13c-38 0 -69 12 -89 36c-24 27 -32 71 -32 116v301h-88v39h88v91zM251 547l-18 25c18 12 45 33 45 78c0 23 -17 47 -38 61l43 12c18 -10 39 -37 39 -71
c0 -70 -57 -98 -71 -105z" />
    <glyph glyph-name="Tbar" unicode="&#x166;" horiz-adv-x="510" 
d="M531 633h-251v-255h145v-39h-145v-339h-49v339h-145v39h145v255h-251v41h551v-41z" />
    <glyph glyph-name="tbar" unicode="&#x167;" horiz-adv-x="339" 
d="M309 441h-152v-142h120v-39h-120v-126c0 -59 18 -104 77 -104c29 0 49 4 63 9l6 -38c-17 -7 -42 -13 -74 -13c-38 0 -69 12 -89 36c-24 27 -32 71 -32 116v120h-74v39h74v142h-88v39h88v91l49 15v-106h152v-39z" />
    <glyph glyph-name="Utilde" unicode="&#x168;" horiz-adv-x="691" 
d="M88 674h49v-389c0 -183 91 -256 203 -256c125 0 214 78 214 256v389h49v-385c0 -217 -123 -301 -266 -301c-131 0 -249 76 -249 296v390zM259 715h-34c-1 47 23 88 65 88c20 0 35 -8 61 -22c16 -8 35 -17 53 -17c14 0 25 5 27 38h34c0 -49 -19 -82 -61 -82
c-18 0 -35 6 -63 20c-22 11 -38 20 -54 20c-18 0 -25 -20 -28 -45z" />
    <glyph glyph-name="utilde" unicode="&#x169;" horiz-adv-x="586" 
d="M212 576h-34c-1 56 23 90 61 90c20 0 36 -10 66 -25c16 -8 30 -15 42 -15c15 0 27 9 29 43h33c0 -54 -17 -87 -60 -87c-18 0 -37 9 -60 21c-24 13 -37 19 -49 19c-17 0 -26 -20 -28 -46zM498 480v-364c0 -39 1 -77 4 -116h-46l-3 97h-2c-29 -53 -90 -109 -187 -109
c-55 0 -181 19 -181 223v269h49v-259c0 -112 39 -190 145 -190c73 0 134 46 160 102c6 15 12 35 12 56v291h49z" />
    <glyph glyph-name="Umacron" unicode="&#x16a;" horiz-adv-x="691" 
d="M88 674h49v-389c0 -183 91 -256 203 -256c125 0 214 78 214 256v389h49v-385c0 -217 -123 -301 -266 -301c-131 0 -249 76 -249 296v390zM227 772h237v-40h-237v40z" />
    <glyph glyph-name="umacron" unicode="&#x16b;" horiz-adv-x="586" 
d="M185 633h217v-41h-217v41zM498 480v-364c0 -39 1 -77 4 -116h-46l-3 97h-2c-29 -53 -90 -109 -187 -109c-55 0 -181 19 -181 223v269h49v-259c0 -112 39 -190 145 -190c73 0 134 46 160 102c6 15 12 35 12 56v291h49z" />
    <glyph glyph-name="Ubreve" unicode="&#x16c;" horiz-adv-x="691" 
d="M88 674h49v-389c0 -183 91 -256 203 -256c125 0 214 78 214 256v389h49v-385c0 -217 -123 -301 -266 -301c-131 0 -249 76 -249 296v390zM226 830h36c6 -22 24 -53 84 -53c59 0 78 28 82 53h36c-2 -50 -33 -97 -121 -97c-84 0 -115 47 -117 97z" />
    <glyph glyph-name="ubreve" unicode="&#x16d;" horiz-adv-x="586" 
d="M172 681h38c8 -42 38 -77 83 -77c56 0 79 44 83 77h38c-1 -72 -53 -117 -121 -117c-91 0 -120 67 -121 117zM498 480v-364c0 -39 1 -77 4 -116h-46l-3 97h-2c-29 -53 -90 -109 -187 -109c-55 0 -181 19 -181 223v269h49v-259c0 -112 39 -190 145 -190
c73 0 134 46 160 102c6 15 12 35 12 56v291h49z" />
    <glyph glyph-name="Uring" unicode="&#x16e;" horiz-adv-x="691" 
d="M88 674h49v-389c0 -183 91 -256 203 -256c125 0 214 78 214 256v389h49v-385c0 -217 -123 -301 -266 -301c-131 0 -249 76 -249 296v390zM346 868h1c53 0 90 -38 90 -86c0 -47 -40 -83 -91 -83c-54 0 -92 37 -92 83c0 47 37 86 92 86zM345 841h-1c-30 0 -49 -27 -49 -59
c0 -28 21 -55 50 -55c30 0 51 25 51 57s-21 57 -51 57z" />
    <glyph glyph-name="uring" unicode="&#x16f;" horiz-adv-x="586" 
d="M294 538c-54 0 -95 40 -95 90c0 51 40 92 96 92c52 0 92 -40 92 -92c0 -51 -44 -90 -93 -90zM293 568c33 0 56 28 56 61c0 35 -23 61 -57 61c-32 0 -53 -28 -53 -62c0 -30 23 -60 54 -60zM498 480v-364c0 -39 1 -77 4 -116h-46l-3 97h-2c-29 -53 -90 -109 -187 -109
c-55 0 -181 19 -181 223v269h49v-259c0 -112 39 -190 145 -190c73 0 134 46 160 102c6 15 12 35 12 56v291h49z" />
    <glyph glyph-name="Uhungarumlaut" unicode="&#x170;" horiz-adv-x="691" 
d="M88 674h49v-389c0 -183 91 -256 203 -256c125 0 214 78 214 256v389h49v-385c0 -217 -123 -301 -266 -301c-131 0 -249 76 -249 296v390zM329 825h69l-122 -115h-38zM459 825h69l-122 -115h-38z" />
    <glyph glyph-name="uhungarumlaut" unicode="&#x171;" horiz-adv-x="586" 
d="M288 691h69l-122 -127h-38zM418 691h69l-122 -127h-38zM498 480v-364c0 -39 1 -77 4 -116h-46l-3 97h-2c-29 -53 -90 -109 -187 -109c-55 0 -181 19 -181 223v269h49v-259c0 -112 39 -190 145 -190c73 0 134 46 160 102c6 15 12 35 12 56v291h49z" />
    <glyph glyph-name="Uogonek" unicode="&#x172;" horiz-adv-x="691" 
d="M422 -151l9 -29c-16 -12 -48 -18 -68 -18c-50 0 -84 27 -84 75c0 42 30 80 60 111h-4c-133 4 -247 80 -247 296v390h49v-389c0 -183 91 -256 203 -256c125 0 214 78 214 256v389h49v-385c0 -193 -97 -281 -217 -297c-24 -24 -62 -67 -62 -105c0 -31 20 -48 51 -48
c17 0 34 4 47 10z" />
    <glyph glyph-name="uogonek" unicode="&#x173;" horiz-adv-x="586" 
d="M498 480v-364c0 -39 1 -77 4 -116l-3 6c-19 -24 -55 -73 -55 -116c0 -33 20 -49 51 -49c19 0 34 4 47 10l9 -30c-16 -12 -48 -18 -70 -18c-48 0 -82 27 -82 75c0 50 33 94 57 128l-3 91h-2c-29 -53 -90 -109 -187 -109c-55 0 -181 19 -181 223v269h49v-259
c0 -112 39 -190 145 -190c73 0 135 46 160 102c7 15 12 35 12 56v291h49z" />
    <glyph glyph-name="Wcircumflex" unicode="&#x174;" horiz-adv-x="881" 
d="M250 0h-48l-191 674h50l107 -387c24 -86 47 -169 61 -226h2c12 55 39 138 68 226l124 387h48l109 -386c23 -82 47 -168 58 -227h2c16 63 40 136 68 225l124 388h51l-223 -674h-48l-109 386c-30 106 -47 170 -57 231h-2c-12 -59 -33 -124 -68 -229zM420 825h36l113 -115
h-54l-76 79h-2l-76 -79h-50z" />
    <glyph glyph-name="wcircumflex" unicode="&#x175;" horiz-adv-x="784" 
d="M371 692h38l100 -140h-51l-67 102h-2l-67 -102h-47zM24 480h51l88 -280c18 -58 32 -104 44 -148h2c13 42 31 90 53 148l107 280h49l102 -279c22 -60 38 -108 51 -149h2c11 42 27 90 47 148l96 280h50l-174 -480h-44l-98 265c-23 61 -43 117 -57 171h-2
c-16 -56 -37 -113 -60 -172l-105 -264h-44z" />
    <glyph glyph-name="Ycircumflex" unicode="&#x176;" horiz-adv-x="541" 
d="M297 0h-49v288l-236 386h56l125 -210c32 -54 57 -94 82 -141h2c22 43 51 88 84 141l131 210h56l-251 -388v-286zM250 825h36l113 -115h-54l-76 79h-2l-76 -79h-50z" />
    <glyph glyph-name="ycircumflex" unicode="&#x177;" horiz-adv-x="480" 
d="M219 692h38l100 -140h-51l-67 102h-2l-67 -102h-47zM9 480h53l143 -321c14 -31 30 -71 39 -101h2c11 30 24 66 40 105l134 317h53l-170 -388c-66 -152 -109 -227 -173 -273c-41 -30 -78 -41 -88 -43l-13 41c24 7 58 21 88 47c25 21 62 61 92 129c4 9 6 15 6 19
s-2 11 -7 22z" />
    <glyph glyph-name="Ydieresis" unicode="&#x178;" horiz-adv-x="541" 
d="M297 0h-49v288l-236 386h56l125 -210c32 -54 57 -94 82 -141h2c22 43 51 88 84 141l131 210h56l-251 -388v-286zM190 714h-1c-23 0 -37 20 -37 41s17 41 39 41s38 -19 38 -41c0 -21 -14 -41 -39 -41zM370 714h-1c-23 0 -37 20 -37 41s17 41 39 41s38 -19 38 -41
c0 -21 -14 -41 -39 -41z" />
    <glyph glyph-name="Zacute" unicode="&#x179;" horiz-adv-x="605" 
d="M37 0v33l461 597v3h-423v41h488v-34l-462 -596v-3h469v-41h-533zM375 825h76l-132 -115h-40z" />
    <glyph glyph-name="zacute" unicode="&#x17a;" horiz-adv-x="440" 
d="M279 692h74l-127 -140h-38zM16 0v30l287 338c20 24 40 46 62 70v2h-328v40h388l-1 -34l-287 -338l-57 -66v-2h348v-40h-412z" />
    <glyph glyph-name="Zdotaccent" unicode="&#x17b;" horiz-adv-x="605" 
d="M37 0v33l461 597v3h-423v41h488v-34l-462 -596v-3h469v-41h-533zM302 724h-1c-21 0 -37 21 -37 41c0 19 17 41 39 41s38 -22 38 -41c0 -20 -16 -41 -39 -41z" />
    <glyph glyph-name="zdotaccent" unicode="&#x17c;" horiz-adv-x="440" 
d="M220 581h-1c-22 0 -38 20 -38 42c0 21 18 42 40 42s39 -20 39 -42s-15 -42 -40 -42zM16 0v30l287 338c20 24 40 46 62 70v2h-328v40h388l-1 -34l-287 -338l-57 -66v-2h348v-40h-412z" />
    <glyph glyph-name="Zcaron" unicode="&#x17d;" horiz-adv-x="605" 
d="M37 0v33l461 597v3h-423v41h488v-34l-462 -596v-3h469v-41h-533zM334 710h-36l-113 115h54l77 -78h2l75 78h50z" />
    <glyph glyph-name="zcaron" unicode="&#x17e;" horiz-adv-x="440" 
d="M263 552h-42l-100 140h51l69 -103h2l69 103h47zM16 0v30l287 338c20 24 40 46 62 70v2h-328v40h388l-1 -34l-287 -338l-57 -66v-2h348v-40h-412z" />
    <glyph glyph-name="florin" unicode="&#x192;" horiz-adv-x="530" 
d="M120 352v39h110l6 52c15 129 74 219 188 219c31 -2 52 -9 63 -15l-12 -38c-18 6 -36 12 -59 12c-87 0 -124 -88 -133 -179l-5 -51h145v-39h-150l-23 -208c-15 -137 -60 -224 -168 -224c-29 0 -54 6 -72 16l12 37c21 -10 40 -13 65 -13c75 0 104 78 113 161l25 231h-105z
" />
    <glyph glyph-name="Ohorn" unicode="&#x1a0;" horiz-adv-x="753" 
d="M375 28c178 0 289 135 289 314c0 146 -95 304 -286 304c-192 0 -289 -150 -289 -316c0 -159 109 -302 286 -302zM668 742l45 8c8 -20 15 -42 15 -74c0 -55 -36 -93 -115 -79c58 -53 102 -142 102 -251c0 -233 -166 -358 -342 -358c-192 0 -335 143 -335 340
c0 212 150 358 342 358c38 0 78 -7 103 -14c31 -9 99 -42 142 -42c44 0 57 18 57 49c0 24 -6 45 -14 63z" />
    <glyph glyph-name="ohorn" unicode="&#x1a1;" horiz-adv-x="591" 
d="M297 452c-136 0 -205 -102 -205 -214c0 -134 97 -210 201 -210c106 0 206 77 206 215c0 91 -61 209 -202 209zM519 548l44 8c8 -19 13 -38 13 -62c0 -49 -29 -86 -94 -76c44 -45 66 -106 66 -172c0 -180 -140 -258 -258 -258c-143 0 -247 105 -247 247
c0 160 120 257 254 257c32 0 58 -4 89 -13c27 -8 59 -29 99 -29c32 0 47 17 47 45c0 19 -5 37 -13 53z" />
    <glyph glyph-name="Uhorn" unicode="&#x1af;" horiz-adv-x="714" 
d="M643 768l44 8c10 -20 16 -40 16 -66c0 -44 -32 -73 -84 -73h-16v-348c0 -217 -123 -301 -266 -301c-131 0 -249 76 -249 296v390h49v-389c0 -183 91 -256 203 -256c125 0 214 78 214 256v389h60c31 0 45 13 45 41c0 17 -6 37 -16 53z" />
    <glyph glyph-name="uhorn" unicode="&#x1b0;" horiz-adv-x="586" 
d="M538 574l44 8c10 -20 16 -40 16 -63c0 -47 -39 -76 -84 -76h-16v-327c0 -39 1 -77 4 -116h-46l-3 97h-2c-29 -53 -90 -109 -187 -109c-55 0 -181 19 -181 223v269h49v-259c0 -112 39 -190 145 -190c73 0 134 46 160 102c6 15 12 35 12 56v291h60c30 0 45 13 45 41
c0 17 -6 37 -16 53z" />
    <glyph glyph-name="uni01FA" unicode="&#x1fa;" horiz-adv-x="640" 
d="M331 692c-49 0 -82 31 -82 71s32 73 83 73c47 0 80 -33 80 -73c0 -41 -35 -71 -81 -71zM330 721c27 0 46 17 46 43c0 25 -19 44 -47 44c-27 0 -44 -21 -44 -45c0 -23 19 -42 45 -42zM395 939h84l-142 -84h-48zM474 237h-300l-93 -237h-51l272 674h48l270 -674h-51z
M191 278h267l-95 237c-18 45 -27 74 -37 107h-2c-10 -34 -21 -64 -37 -104z" />
    <glyph glyph-name="uni01FB" unicode="&#x1fb;" horiz-adv-x="496" 
d="M310 825h74l-147 -101h-38zM416 290v-174c0 -39 2 -77 8 -116h-45l-8 74h-2c-25 -37 -86 -86 -174 -86c-109 0 -153 74 -153 132c0 109 101 180 325 177v11c0 36 -8 144 -136 143c-48 0 -98 -12 -138 -40l-16 35c53 35 112 46 158 46c163 0 181 -126 181 -202zM367 154
v102c-127 4 -273 -16 -273 -127c0 -68 49 -101 105 -101c93 0 143 55 162 98c4 10 6 20 6 28zM247 518c-54 0 -95 40 -95 90c0 51 40 92 96 92c52 0 92 -40 92 -92c0 -51 -44 -90 -93 -90zM246 548c33 0 56 28 56 61c0 35 -23 61 -57 61c-32 0 -53 -28 -53 -62
c0 -30 23 -60 54 -60z" />
    <glyph glyph-name="AEacute" unicode="&#x1fc;" horiz-adv-x="807" 
d="M41 0h-51l360 674h399v-41h-326l36 -258h273v-41h-267l42 -293h259v-41h-300l-40 279h-237zM210 319h211l-29 207c-4 28 -12 78 -14 111h-4c-13 -29 -32 -66 -51 -102zM526 825h76l-132 -115h-40z" />
    <glyph glyph-name="aeacute" unicode="&#x1fd;" horiz-adv-x="835" 
d="M476 692h74l-127 -140h-38zM787 249h-372c-8 -135 75 -219 186 -219c82 0 126 20 145 30l14 -39c-28 -13 -84 -33 -161 -33c-94 0 -175 46 -203 127h-2c-30 -83 -110 -127 -200 -127c-110 0 -151 72 -151 127c0 105 100 178 325 173v20c0 17 -10 143 -138 143
c-48 0 -106 -16 -137 -40l-16 35c58 38 121 46 153 46c108 0 154 -55 170 -124h2c33 76 100 124 190 124c168 0 198 -166 198 -213c0 -13 0 -23 -3 -30zM368 174v75c-119 4 -275 -12 -275 -129c0 -55 47 -92 106 -92c93 -1 145 52 163 106c4 13 6 27 6 40zM415 288h324
c3 41 -28 164 -151 164c-116 0 -169 -101 -173 -164z" />
    <glyph glyph-name="Oslashacute" unicode="&#x1fe;" horiz-adv-x="753" 
d="M91 -28l-29 26l74 87c-61 61 -98 149 -98 245c0 213 154 356 344 356c76 0 147 -24 205 -69l72 85l32 -25l-74 -87c62 -60 98 -148 98 -244c0 -242 -172 -358 -336 -358c-82 0 -156 26 -214 71zM167 121l392 462c-48 39 -107 63 -180 63c-192 0 -290 -155 -290 -308
c0 -103 34 -164 76 -219zM586 555l-392 -463c48 -40 100 -64 182 -64c180 0 288 142 288 314c0 72 -20 146 -75 213h-3zM449 838h76l-132 -115h-40z" />
    <glyph glyph-name="oslashacute" unicode="&#x1ff;" horiz-adv-x="591" 
d="M354 692h74l-127 -140h-38zM298 492h1c49 0 100 -14 141 -41l45 56l31 -23l-45 -57c50 -48 77 -113 77 -180c0 -180 -136 -259 -253 -259c-53 0 -105 14 -145 42l-47 -57l-28 27l45 55c-48 45 -77 108 -77 180c0 160 119 257 255 257zM149 88l265 328
c-32 24 -72 36 -119 36c-139 0 -203 -107 -203 -214c0 -56 17 -109 55 -150h2zM441 391l-264 -328c35 -26 73 -35 113 -35c114 0 209 79 209 216c0 40 -14 101 -56 147h-2z" />
    <glyph glyph-name="Scommaaccent" unicode="&#x218;" horiz-adv-x="505" 
d="M46 38l19 41c44 -30 102 -50 167 -50c109 0 175 58 175 141c0 77 -39 121 -152 157c-135 43 -189 98 -189 186c0 99 85 173 209 173c71 0 124 -17 150 -34l-19 -41c-19 13 -67 35 -133 35c-121 0 -159 -73 -159 -126c0 -72 43 -113 152 -148c123 -40 189 -88 189 -197
c0 -93 -68 -187 -229 -187c-64 0 -139 20 -180 50zM198 -210l-13 27c45 5 85 23 85 68c0 23 -17 47 -38 61l40 12c21 -12 42 -39 42 -71c0 -70 -70 -95 -116 -97z" />
    <glyph glyph-name="scommaaccent" unicode="&#x219;" horiz-adv-x="408" 
d="M50 23l18 42c29 -18 72 -36 120 -36c84 0 121 44 121 93c0 56 -38 83 -113 107c-87 28 -130 73 -130 130c0 68 54 133 158 133c47 0 88 -13 116 -32l-19 -40c-16 11 -51 31 -106 31c-66 0 -101 -40 -101 -86c0 -54 41 -75 112 -99c88 -30 131 -68 131 -140
c0 -78 -64 -138 -173 -138c-51 0 -98 14 -134 35zM144 -210l-13 27c45 5 85 23 85 68c0 23 -17 47 -38 61l40 12c21 -12 42 -39 42 -71c0 -70 -70 -95 -116 -97z" />
    <glyph glyph-name="uni021A" unicode="&#x21a;" horiz-adv-x="510" 
d="M231 0v633h-251v41h551v-41h-251v-633h-49zM191 -210l-13 27c45 5 85 23 85 68c0 23 -17 47 -38 61l40 12c21 -12 42 -39 42 -71c0 -70 -70 -95 -116 -97z" />
    <glyph glyph-name="uni021B" unicode="&#x21b;" horiz-adv-x="339" 
d="M108 571l49 15v-106h152v-39h-152v-307c0 -59 18 -104 77 -104c29 0 49 4 63 9l6 -38c-17 -7 -42 -13 -74 -13c-38 0 -69 12 -89 36c-24 27 -32 71 -32 116v301h-88v39h88v91zM133 -220l-13 27c45 5 85 23 85 68c0 23 -17 47 -38 61l40 12c21 -12 42 -39 42 -71
c0 -70 -70 -95 -116 -97z" />
    <glyph glyph-name="uni021C" unicode="&#x21c;" horiz-adv-x="490" 
d="M64 -112l-9 41c226 36 344 140 344 259c0 88 -69 158 -183 156c-21 0 -62 -8 -102 -20l-8 38c144 35 231 101 231 176c0 66 -58 106 -136 106c-64 0 -139 -29 -161 -42l-12 33c24 17 105 51 177 51c109 0 182 -56 182 -144c0 -76 -65 -131 -138 -161v-3
c116 -5 200 -76 200 -186c0 -136 -120 -259 -385 -304z" />
    <glyph glyph-name="uni021D" unicode="&#x21d;" horiz-adv-x="438" 
d="M48 -212l-4 39c0 1 317 23 317 220c0 75 -55 129 -156 129c-34 0 -71 -9 -102 -18l-8 38c132 34 212 77 212 159c0 60 -49 97 -127 97c-60 0 -121 -33 -143 -46l-13 33c36 22 97 53 166 53c95 0 166 -49 166 -132c0 -69 -52 -123 -116 -144v-3c101 -8 170 -67 170 -159
c0 -97 -71 -234 -362 -266z" />
    <glyph glyph-name="uni0232" unicode="&#x232;" horiz-adv-x="541" 
d="M297 0h-49v288l-236 386h56l125 -210c32 -54 57 -94 82 -141h2c22 43 51 88 84 141l131 210h56l-251 -388v-286zM152 772h237v-40h-237v40z" />
    <glyph glyph-name="uni0233" unicode="&#x233;" horiz-adv-x="480" 
d="M132 633h217v-41h-217v41zM9 480h53l143 -321c14 -31 30 -71 39 -101h2c11 30 24 66 40 105l134 317h53l-170 -388c-66 -152 -109 -227 -173 -273c-41 -30 -78 -41 -88 -43l-13 41c24 7 58 21 88 47c25 21 62 61 92 129c4 9 6 15 6 19s-2 11 -7 22z" />
    <glyph glyph-name="circumflex" unicode="&#x2c6;" 
d="M129 692h38l100 -140h-51l-67 102h-2l-67 -102h-47z" />
    <glyph glyph-name="caron" unicode="&#x2c7;" 
d="M173 552h-42l-100 140h51l69 -103h2l69 103h47z" />
    <glyph glyph-name="uni02C9" unicode="&#x2c9;" 
d="M42 633h217v-41h-217v41z" />
    <glyph glyph-name="breve" unicode="&#x2d8;" 
d="M29 681h38c8 -42 38 -77 83 -77c56 0 79 44 83 77h38c-1 -72 -53 -117 -121 -117c-91 0 -120 67 -121 117z" />
    <glyph glyph-name="dotaccent" unicode="&#x2d9;" 
d="M150 581h-1c-22 0 -38 20 -38 42c0 21 18 42 40 42s39 -20 39 -42s-15 -42 -40 -42z" />
    <glyph glyph-name="ring" unicode="&#x2da;" 
d="M151 538c-54 0 -95 40 -95 90c0 51 40 92 96 92c52 0 92 -40 92 -92c0 -51 -44 -90 -93 -90zM150 568c33 0 56 28 56 61c0 35 -23 61 -57 61c-32 0 -53 -28 -53 -62c0 -30 23 -60 54 -60z" />
    <glyph glyph-name="ogonek" unicode="&#x2db;" 
d="M151 5h43c-19 -19 -75 -72 -75 -118c0 -31 20 -48 51 -48c17 0 34 4 47 10l9 -29c-16 -12 -48 -18 -68 -18c-50 0 -84 27 -84 75c0 50 43 95 77 128z" />
    <glyph glyph-name="tilde" unicode="&#x2dc;" 
d="M69 576h-34c-1 56 23 90 61 90c20 0 36 -10 66 -25c16 -8 30 -15 42 -15c15 0 27 9 29 43h33c0 -54 -17 -87 -60 -87c-18 0 -37 9 -60 21c-24 13 -37 19 -49 19c-17 0 -26 -20 -28 -46z" />
    <glyph glyph-name="hungarumlaut" unicode="&#x2dd;" 
d="M179 691h69l-122 -127h-38zM309 691h69l-122 -127h-38z" />
    <glyph glyph-name="uni037E" unicode="&#x37e;" horiz-adv-x="183" 
d="M73 -121l-39 -5c14 42 36 150 42 212l64 5c-13 -70 -53 -184 -67 -212zM103 343h-1c-25 0 -43 23 -43 48c0 29 19 50 45 50s44 -21 44 -50c0 -25 -18 -48 -45 -48z" />
    <glyph glyph-name="tonos" unicode="&#x384;" 
d="M155 692h66l-96 -140h-36z" />
    <glyph glyph-name="dieresistonos" unicode="&#x385;" horiz-adv-x="287" 
d="M134 704h56l-50 -148h-30zM31 582h-1c-23 0 -37 20 -37 41s17 41 39 41s38 -19 38 -41c0 -21 -14 -41 -39 -41zM253 582h-1c-23 0 -37 20 -37 41s17 41 39 41s38 -19 38 -41c0 -21 -14 -41 -39 -41z" />
    <glyph glyph-name="Alphatonos" unicode="&#x386;" horiz-adv-x="640" 
d="M474 237h-300l-93 -237h-51l272 674h48l270 -674h-51zM191 278h267l-95 237c-18 45 -27 74 -37 107h-2c-10 -34 -21 -64 -37 -104zM112 674h56l-36 -145h-32z" />
    <glyph glyph-name="anoteleia" unicode="&#x387;" horiz-adv-x="183" 
d="M91 273h-1c-25 0 -44 23 -43 48c0 29 19 50 45 50s44 -21 44 -50c0 -25 -18 -48 -45 -48z" />
    <glyph glyph-name="Epsilontonos" unicode="&#x388;" horiz-adv-x="561" 
d="M487 376v-41h-300v-294h334v-41h-383v674h366v-41h-317v-257h300zM12 674h56l-36 -145h-32z" />
    <glyph glyph-name="Etatonos" unicode="&#x389;" horiz-adv-x="746" 
d="M138 674h49v-295h422v295h49v-674h-49v338h-422v-338h-49v674zM12 674h56l-36 -145h-32z" />
    <glyph glyph-name="Iotatonos" unicode="&#x38a;" horiz-adv-x="275" 
d="M138 674h49v-674h-49v674zM12 674h56l-36 -145h-32z" />
    <glyph glyph-name="Omicrontonos" unicode="&#x38c;" horiz-adv-x="771" 
d="M392 -12h-1c-192 0 -335 143 -335 340c0 212 150 358 342 358c198 0 335 -146 335 -340c0 -233 -166 -358 -341 -358zM392 28h1c178 0 289 135 289 314c0 146 -95 304 -286 304c-192 0 -289 -150 -289 -316c0 -159 109 -302 285 -302zM12 674h56l-36 -145h-32z" />
    <glyph glyph-name="Upsilontonos" unicode="&#x38e;" horiz-adv-x="727" 
d="M119 642l11 38c52 -6 128 -53 173 -109c52 -63 97 -148 113 -254h2c21 113 83 204 135 260c47 49 110 91 161 103l10 -36c-63 -25 -202 -111 -264 -313c-11 -36 -22 -86 -22 -145v-186h-49v188c0 52 -8 105 -19 145c-55 203 -180 294 -251 309zM12 674h56l-36 -145h-32z
" />
    <glyph glyph-name="Omegatonos" unicode="&#x38f;" horiz-adv-x="778" 
d="M581 44v-3h171v-41h-250v34c92 48 182 160 182 315c0 133 -96 297 -284 297c-186 0 -291 -150 -291 -301c0 -148 90 -263 182 -311v-34h-250v41h171v3c-83 58 -154 162 -154 299c0 199 151 343 342 343c202 0 335 -151 335 -334c0 -146 -69 -250 -154 -308zM12 674h56
l-36 -145h-32z" />
    <glyph glyph-name="iotadieresistonos" unicode="&#x390;" horiz-adv-x="225" 
d="M137 480v-378c0 -52 7 -75 53 -73l-4 -38c-7 -2 -16 -3 -26 -3c-37 0 -72 19 -72 107v385h49zM112 686h56l-50 -148h-30zM8 566h-1c-22 0 -35 19 -35 39s16 39 37 39s36 -18 36 -39c0 -20 -13 -39 -37 -39zM232 566h-1c-22 0 -35 19 -35 39s16 39 37 39s36 -18 36 -39
c0 -20 -13 -39 -37 -39z" />
    <glyph glyph-name="Alpha" unicode="&#x391;" horiz-adv-x="640" 
d="M474 237h-300l-93 -237h-51l272 674h48l270 -674h-51zM191 278h267l-95 237c-18 45 -27 74 -37 107h-2c-10 -34 -21 -64 -37 -104z" />
    <glyph glyph-name="Beta" unicode="&#x392;" horiz-adv-x="548" 
d="M88 0v665c41 9 95 15 151 15c92 0 150 -19 190 -59c28 -28 42 -64 42 -111c0 -67 -51 -127 -119 -150v-3c49 -10 147 -55 147 -169c0 -55 -20 -96 -51 -127c-47 -47 -124 -67 -233 -67c-52 0 -97 4 -127 6zM137 631v-255h118c106 0 166 59 166 132
c0 103 -85 131 -185 131c-53 0 -82 -4 -99 -8zM137 336v-295c23 -5 55 -6 95 -6c106 0 216 31 216 151c0 106 -96 150 -210 150h-101z" />
    <glyph glyph-name="Gamma" unicode="&#x393;" horiz-adv-x="473" 
d="M88 674h366v-41h-317v-633h-49v674z" />
    <glyph glyph-name="uni0394" unicode="&#x394;" horiz-adv-x="665" 
d="M31 0v34l275 640h48l273 -640v-34h-596zM81 41h495l-183 428c-21 49 -48 113 -63 154h-2c-11 -29 -34 -84 -55 -132z" />
    <glyph glyph-name="Epsilon" unicode="&#x395;" horiz-adv-x="511" 
d="M437 376v-41h-300v-294h334v-41h-383v674h366v-41h-317v-257h300z" />
    <glyph glyph-name="Zeta" unicode="&#x396;" horiz-adv-x="605" 
d="M37 0v33l461 597v3h-423v41h488v-34l-462 -596v-3h469v-41h-533z" />
    <glyph glyph-name="Eta" unicode="&#x397;" horiz-adv-x="696" 
d="M88 674h49v-295h422v295h49v-674h-49v338h-422v-338h-49v674z" />
    <glyph glyph-name="Theta" unicode="&#x398;" horiz-adv-x="753" 
d="M374 -12h-1c-192 0 -335 143 -335 340c0 212 150 358 342 358c198 0 335 -146 335 -340c0 -233 -166 -358 -341 -358zM374 28h1c178 0 289 135 289 314c0 146 -95 304 -286 304c-192 0 -289 -150 -289 -316c0 -159 109 -302 285 -302zM199 370h355v-41h-355v41z" />
    <glyph glyph-name="Iota" unicode="&#x399;" horiz-adv-x="225" 
d="M88 674h49v-674h-49v674z" />
    <glyph glyph-name="Kappa" unicode="&#x39a;" horiz-adv-x="540" 
d="M88 0v674h49v-345h4c20 26 42 48 61 68l269 277h62l-284 -287l314 -387h-61l-287 356l-78 -78v-278h-49z" />
    <glyph glyph-name="Lambda" unicode="&#x39b;" horiz-adv-x="640" 
d="M620 0h-51l-206 515c-18 45 -27 74 -37 107h-2c-10 -34 -21 -64 -37 -104l-206 -518h-51l272 674h48z" />
    <glyph glyph-name="Mu" unicode="&#x39c;" horiz-adv-x="845" 
d="M732 0l-21 318c-7 100 -16 230 -16 302h-2c-27 -72 -58 -150 -101 -252l-156 -368h-37l-146 363c-42 105 -73 185 -95 257h-2c-3 -78 -8 -201 -17 -312l-24 -308h-48l54 674h56l162 -402c34 -84 60 -154 80 -215h2c18 57 45 125 83 214l170 403h58l48 -674h-48z" />
    <glyph glyph-name="Nu" unicode="&#x39d;" horiz-adv-x="706" 
d="M136 0h-48v674h46l305 -415c62 -84 102 -137 137 -197l2 2c-7 78 -8 158 -8 262v348h48v-674h-45l-295 401c-57 78 -109 149 -145 209l-3 -2c5 -76 6 -148 6 -248v-360z" />
    <glyph glyph-name="Xi" unicode="&#x39e;" horiz-adv-x="583" 
d="M59 674h479v-41h-479v41zM99 370h399v-41h-399v41zM50 41h497v-41h-497v41z" />
    <glyph glyph-name="Omicron" unicode="&#x39f;" horiz-adv-x="753" 
d="M374 -12h-1c-192 0 -335 143 -335 340c0 212 150 358 342 358c198 0 335 -146 335 -340c0 -233 -166 -358 -341 -358zM374 28h1c178 0 289 135 289 314c0 146 -95 304 -286 304c-192 0 -289 -150 -289 -316c0 -159 109 -302 285 -302z" />
    <glyph glyph-name="Pi" unicode="&#x3a0;" horiz-adv-x="680" 
d="M591 674v-674h-49v633h-405v-633h-49v674h503z" />
    <glyph glyph-name="Rho" unicode="&#x3a1;" horiz-adv-x="548" 
d="M88 0v667c43 7 98 13 160 13c90 0 155 -22 195 -60c34 -32 54 -76 54 -131c0 -59 -18 -105 -52 -139c-46 -48 -123 -73 -212 -73c-35 0 -68 1 -96 10v-287h-49zM137 630v-300c28 -9 64 -12 102 -12c134 0 209 61 209 165c0 116 -92 156 -201 156c-51 0 -90 -5 -110 -9z
" />
    <glyph glyph-name="Sigma" unicode="&#x3a3;" horiz-adv-x="581" 
d="M93 44v-3h465v-41h-533v31l278 305l-264 304v34h481v-41h-415v-3l255 -293z" />
    <glyph glyph-name="Tau" unicode="&#x3a4;" horiz-adv-x="510" 
d="M231 0v633h-251v41h551v-41h-251v-633h-49z" />
    <glyph glyph-name="Upsilon" unicode="&#x3a5;" horiz-adv-x="620" 
d="M12 642l11 38c52 -6 128 -53 173 -109c52 -63 97 -148 113 -254h2c21 113 83 204 135 260c47 49 110 91 161 103l10 -36c-63 -25 -202 -111 -264 -313c-11 -36 -22 -86 -22 -145v-186h-49v188c0 52 -8 105 -19 145c-55 203 -180 294 -251 309z" />
    <glyph glyph-name="Phi" unicode="&#x3a6;" horiz-adv-x="751" 
d="M399 21v-51h-49v51c-154 8 -312 109 -312 311c0 213 172 318 314 323v49h49v-49c153 -7 312 -110 312 -320c0 -200 -156 -308 -314 -314zM351 58v560c-115 -3 -261 -100 -261 -281c0 -171 124 -269 261 -279zM400 618v-560c130 6 261 107 261 277
c0 179 -128 274 -261 283z" />
    <glyph glyph-name="Chi" unicode="&#x3a7;" horiz-adv-x="600" 
d="M568 0h-58l-112 159l-103 148h-2c-23 -37 -47 -73 -98 -149l-105 -158h-58l236 341l-226 333h58l120 -182l78 -118h2c22 34 46 67 81 117l128 183h59l-242 -330z" />
    <glyph glyph-name="Psi" unicode="&#x3a8;" horiz-adv-x="707" 
d="M657 674v-194c0 -163 -114 -259 -279 -263v-217h-49v217c-129 0 -279 55 -279 236v221h49v-210c0 -145 98 -201 230 -206v416h49v-416c113 4 230 63 230 222v194h49z" />
    <glyph glyph-name="uni03A9" unicode="&#x3a9;" horiz-adv-x="763" 
d="M565 44v-3h172v-41h-250v34c91 50 182 162 182 317c0 133 -96 295 -284 295c-186 0 -291 -148 -291 -299c0 -148 91 -263 182 -313v-34h-250v41h171v3c-81 58 -154 164 -154 301c0 199 151 341 342 341c202 0 335 -149 335 -332c0 -144 -72 -249 -155 -310z" />
    <glyph glyph-name="Iotadieresis" unicode="&#x3aa;" horiz-adv-x="225" 
d="M21 710h-1c-23 0 -37 20 -37 41s17 41 39 41s38 -19 38 -41c0 -21 -14 -41 -39 -41zM201 710h-1c-23 0 -37 20 -37 41s17 41 39 41s38 -19 38 -41c0 -21 -14 -41 -39 -41zM88 674h49v-674h-49v674z" />
    <glyph glyph-name="Upsilondieresis" unicode="&#x3ab;" horiz-adv-x="620" 
d="M223 695h-1c-23 0 -37 20 -37 41s17 41 39 41s38 -19 38 -41c0 -21 -14 -41 -39 -41zM403 695h-1c-23 0 -37 20 -37 41s17 41 39 41s38 -19 38 -41c0 -21 -14 -41 -39 -41zM12 642l11 38c52 -6 128 -53 173 -109c52 -63 97 -148 113 -254h2c21 113 83 204 135 260
c47 49 110 91 161 103l10 -36c-63 -25 -202 -111 -264 -313c-11 -36 -22 -86 -22 -145v-186h-49v188c0 52 -8 105 -19 145c-55 203 -180 294 -251 309z" />
    <glyph glyph-name="alphatonos" unicode="&#x3ac;" horiz-adv-x="587" 
d="M313 682h66l-96 -140h-36zM470 480h41c-4 -39 -13 -229 -13 -349c0 -69 13 -101 57 -103l-6 -39c-6 -1 -15 -1 -19 -1c-37 0 -74 31 -74 119h-3c-37 -66 -101 -119 -194 -119c-132 0 -216 104 -216 243c0 149 106 261 234 261c93 0 157 -53 182 -120h4c1 51 4 80 7 108z
M92 231v-1c0 -103 60 -202 178 -202c81 0 154 73 176 145c7 24 7 43 7 79c0 19 0 37 -5 55c-18 70 -81 145 -171 145c-105 0 -185 -87 -185 -221z" />
    <glyph glyph-name="epsilontonos" unicode="&#x3ad;" horiz-adv-x="464" 
d="M289 682h66l-96 -140h-36zM181 256v4c-77 12 -110 57 -110 103c0 62 65 129 197 129c64 0 119 -14 156 -42l-15 -35c-19 15 -87 38 -144 38c-83 0 -145 -32 -145 -90s74 -85 159 -85h83v-40h-86c-106 0 -182 -33 -182 -102s76 -108 166 -108c66 0 139 26 171 48l14 -36
c-29 -24 -107 -52 -190 -52c-98 0 -210 37 -210 146c0 55 48 111 136 122z" />
    <glyph glyph-name="etatonos" unicode="&#x3ae;" horiz-adv-x="591" 
d="M345 682h66l-96 -140h-36zM134 384h2c29 59 97 108 185 108c44 0 187 -20 187 -219v-273c0 -54 1 -156 13 -200h-48c-12 37 -14 135 -14 200v273c0 94 -41 177 -151 177c-77 0 -141 -53 -163 -114c-4 -11 -8 -28 -8 -43v-293h-49v364c0 39 -2 84 -13 116h46
c10 -21 14 -58 13 -96z" />
    <glyph glyph-name="iotatonos" unicode="&#x3af;" horiz-adv-x="225" 
d="M148 682h66l-96 -140h-36zM137 480v-378c0 -52 7 -75 53 -73l-4 -38c-7 -2 -16 -3 -26 -3c-37 0 -72 19 -72 107v385h49z" />
    <glyph glyph-name="upsilondieresistonos" unicode="&#x3b0;" horiz-adv-x="557" 
d="M419 480h48c15 -27 36 -110 36 -185c0 -132 -41 -307 -225 -307c-107 0 -195 64 -195 204v128c0 99 -3 138 -10 160h45c7 -7 14 -31 14 -84v-191c0 -131 82 -174 150 -174c106 0 172 89 172 257c0 94 -25 175 -35 192zM273 686h56l-50 -148h-30zM169 566h-1
c-22 0 -35 19 -35 39s16 39 37 39s36 -18 36 -39c0 -20 -13 -39 -37 -39zM393 566h-1c-22 0 -35 19 -35 39s16 39 37 39s36 -18 36 -39c0 -20 -13 -39 -37 -39z" />
    <glyph glyph-name="alpha" unicode="&#x3b1;" horiz-adv-x="587" 
d="M470 480h41c-4 -39 -13 -229 -13 -349c0 -69 13 -101 57 -103l-6 -39c-6 -1 -15 -1 -19 -1c-37 0 -74 31 -74 119h-3c-37 -66 -101 -119 -194 -119c-132 0 -216 104 -216 243c0 149 106 261 234 261c93 0 157 -53 182 -120h4c1 51 4 80 7 108zM92 231v-1
c0 -103 60 -202 178 -202c81 0 154 73 176 145c7 24 7 43 7 79c0 19 0 37 -5 55c-18 70 -81 145 -171 145c-105 0 -185 -87 -185 -221z" />
    <glyph glyph-name="beta" unicode="&#x3b2;" horiz-adv-x="600" 
d="M137 71h-2v-71c0 -54 1 -156 13 -200h-48c-12 37 -14 110 -14 188v441c0 154 45 214 81 247c34 31 78 52 144 52c81 0 176 -54 176 -171c0 -86 -55 -141 -98 -160v-4c90 -15 168 -81 168 -198c0 -140 -119 -207 -226 -207c-88 0 -147 30 -194 83zM135 427v-288
c20 -39 87 -111 192 -111c97 0 181 63 181 164c0 116 -88 172 -205 172h-36v40h19c107 0 152 80 152 145c0 96 -63 139 -136 139c-111 0 -167 -92 -167 -261z" />
    <glyph glyph-name="gamma" unicode="&#x3b3;" horiz-adv-x="478" 
d="M262 -200h-51c2 76 8 178 -16 272c-41 164 -146 346 -196 408h59c54 -69 149 -249 186 -407h3c54 77 158 244 158 382v25h47c2 -8 2 -19 2 -30c0 -127 -92 -289 -190 -425c-6 -7 -5 -13 -5 -23c3 -67 3 -135 3 -202z" />
    <glyph glyph-name="delta" unicode="&#x3b4;" horiz-adv-x="584" 
d="M489 679l-18 -37c-24 18 -86 46 -148 46c-77 0 -114 -29 -114 -60c0 -36 36 -56 94 -96l88 -60c97 -65 150 -133 150 -237c0 -150 -113 -247 -246 -247c-129 0 -252 85 -252 250c0 123 91 213 216 268v5l-29 19c-27 19 -68 49 -68 94c0 50 52 104 165 104
c68 0 133 -25 162 -49zM364 437l-69 47c-99 -44 -203 -118 -203 -248c0 -138 107 -208 205 -208c101 0 195 73 195 207c0 77 -40 142 -128 202z" />
    <glyph glyph-name="epsilon" unicode="&#x3b5;" horiz-adv-x="464" 
d="M181 256v4c-77 12 -110 57 -110 103c0 62 65 129 197 129c64 0 119 -14 156 -41l-15 -36c-19 15 -87 38 -144 38c-83 0 -145 -32 -145 -90s74 -85 159 -85h83v-40h-86c-106 0 -182 -33 -182 -102s76 -108 166 -108c66 0 139 26 171 48l14 -36c-29 -24 -107 -52 -190 -52
c-98 0 -210 37 -210 146c0 55 48 111 136 122z" />
    <glyph glyph-name="zeta" unicode="&#x3b6;" horiz-adv-x="421" 
d="M361 -142l-35 10c11 17 34 90 35 120c-43 5 -94 14 -134 25c-109 30 -183 100 -183 231c0 141 102 318 294 429v3h-96c-48 0 -92 0 -131 9l5 36c35 -5 80 -5 120 -5h175l7 -40c-201 -101 -326 -278 -326 -425c0 -129 69 -175 165 -202c54 -15 97 -19 147 -24
c5 -1 9 -5 9 -9c0 -58 -35 -134 -52 -158z" />
    <glyph glyph-name="eta" unicode="&#x3b7;" horiz-adv-x="591" 
d="M134 384h2c29 59 97 108 185 108c44 0 187 -20 187 -219v-273c0 -54 1 -156 13 -200h-48c-12 37 -14 135 -14 200v273c0 94 -41 177 -151 177c-77 0 -141 -53 -163 -114c-4 -11 -8 -28 -8 -43v-293h-49v364c0 39 -2 84 -13 116h46c10 -21 14 -58 13 -96z" />
    <glyph glyph-name="theta" unicode="&#x3b8;" horiz-adv-x="566" 
d="M288 -12h-1c-153 0 -244 140 -244 375c0 185 81 365 244 365c169 0 236 -164 236 -365c0 -199 -67 -375 -235 -375zM92 392h382c0 160 -60 296 -193 296c-117 0 -189 -147 -189 -296zM474 353h-382c0 -213 88 -325 196 -325c122 0 186 136 186 325z" />
    <glyph glyph-name="iota" unicode="&#x3b9;" horiz-adv-x="225" 
d="M137 480v-378c0 -52 7 -75 53 -73l-4 -38c-7 -2 -16 -3 -26 -3c-37 0 -72 19 -72 107v385h49z" />
    <glyph glyph-name="kappa" unicode="&#x3ba;" horiz-adv-x="502" 
d="M205 259v-3c51 -9 122 -75 186 -143l105 -113h-60l-98 103c-70 72 -131 120 -191 120h-10v-223h-49v394c0 25 -2 68 -10 86h47c8 -11 12 -44 12 -76v-145h6l282 221h63v-3c-82 -60 -179 -140 -283 -218z" />
    <glyph glyph-name="lambda" unicode="&#x3bb;" horiz-adv-x="490" 
d="M414 0l-133 318c-15 36 -28 69 -39 101h-4c-8 -26 -26 -66 -39 -97l-137 -322h-52l196 446c5 11 7 18 7 22s0 10 -7 25c-40 94 -75 194 -155 194c-5 0 -10 0 -15 -1l5 39c8 2 17 3 25 3c90 0 130 -92 194 -242l207 -486h-53z" />
    <glyph glyph-name="uni03BC" unicode="&#x3bc;" horiz-adv-x="590" 
d="M457 90h-3c-27 -46 -82 -102 -170 -102c-63 0 -120 23 -147 76v-64c0 -54 1 -156 13 -200h-46c-12 37 -16 111 -16 200v480h49v-283c0 -88 43 -166 149 -166c73 0 130 46 156 102c6 15 12 35 12 56v291h49v-351c0 -70 10 -96 55 -100l-6 -40c-11 -1 -6 -1 -15 -1
c-39 0 -77 25 -80 102z" />
    <glyph glyph-name="nu" unicode="&#x3bd;" horiz-adv-x="491" 
d="M6 480h52l124 -296c23 -52 39 -94 57 -136h3c45 71 172 256 172 379c0 21 0 38 -1 53h46c2 -10 4 -24 4 -36c0 -144 -109 -299 -206 -444h-46z" />
    <glyph glyph-name="xi" unicode="&#x3be;" horiz-adv-x="444" 
d="M368 442v-40h-29c-177 0 -246 -87 -246 -177c0 -96 68 -147 184 -176c60 -15 118 -21 152 -24c5 0 9 -5 9 -10c0 -50 -32 -133 -51 -157l-35 10c11 17 35 91 36 120c-149 17 -344 54 -344 237c0 99 82 175 169 195v4c-84 21 -123 71 -123 140c0 72 64 164 211 164
c53 0 101 -12 126 -30l-15 -38c-19 13 -64 29 -118 29c-101 0 -155 -59 -155 -125c0 -78 73 -122 158 -122h71z" />
    <glyph glyph-name="omicron" unicode="&#x3bf;" horiz-adv-x="591" 
d="M291 -12h-1c-143 0 -247 105 -247 247c0 160 120 257 254 257c154 0 251 -109 251 -246c0 -180 -140 -258 -257 -258zM292 28h1c106 0 206 77 206 215c0 91 -61 209 -202 209c-136 0 -205 -102 -205 -214c0 -134 97 -210 200 -210z" />
    <glyph glyph-name="pi" unicode="&#x3c0;" horiz-adv-x="583" 
d="M541 440h-79v-296c0 -94 8 -121 16 -144h-49c-7 13 -16 41 -16 136v304h-216c-8 -132 -45 -359 -85 -440h-47c42 94 77 299 85 440c-49 0 -89 -3 -119 -11l-10 30c27 12 57 21 125 21h403z" />
    <glyph glyph-name="rho" unicode="&#x3c1;" horiz-adv-x="606" 
d="M133 84h-3v-84c0 -54 1 -156 9 -200h-46c-10 37 -12 111 -12 200v189c0 118 26 172 61 215c34 43 99 88 190 88c145 0 231 -108 231 -238c0 -168 -111 -266 -242 -266c-75 0 -149 31 -188 96zM130 215v-22c0 -13 2 -26 5 -38c20 -68 92 -127 182 -127
c120 0 197 89 197 221c0 109 -70 203 -190 203c-89 0 -194 -67 -194 -237z" />
    <glyph glyph-name="uni03C2" unicode="&#x3c2;" horiz-adv-x="430" 
d="M427 469l-15 -39c-29 14 -57 22 -106 22c-129 0 -214 -96 -214 -209c0 -116 68 -170 178 -197c58 -14 90 -17 136 -21c8 -1 11 -4 11 -16c0 -51 -32 -127 -47 -151l-38 10c11 17 34 92 36 119c-45 5 -92 13 -127 21c-111 26 -198 99 -198 230c0 120 94 254 268 254
c45 0 90 -8 116 -23z" />
    <glyph glyph-name="sigma" unicode="&#x3c3;" horiz-adv-x="589" 
d="M417 454v-3c71 -36 121 -109 121 -202c0 -180 -140 -261 -249 -261c-142 0 -246 105 -246 247c0 160 113 257 265 257h112h48c33 0 94 -1 109 1l-1 -41c-24 0 -58 -1 -159 2zM290 28h1c98 0 198 80 198 218c0 91 -63 206 -199 206c-129 0 -198 -102 -198 -214
c0 -134 97 -210 198 -210z" />
    <glyph glyph-name="tau" unicode="&#x3c4;" horiz-adv-x="429" 
d="M321 32l-3 -36c-7 -5 -26 -8 -38 -8c-57 0 -97 33 -97 140v312h-64c-63 0 -93 -4 -118 -7l-6 27c15 9 52 20 120 20h304l-9 -40h-178v-313c0 -80 31 -97 66 -97c9 0 16 1 23 2z" />
    <glyph glyph-name="upsilon" unicode="&#x3c5;" horiz-adv-x="557" 
d="M419 480h48c15 -27 36 -110 36 -185c0 -132 -41 -307 -225 -307c-107 0 -195 64 -195 204v128c0 99 -3 138 -10 160h45c7 -7 14 -31 14 -84v-191c0 -131 82 -174 150 -174c106 0 172 89 172 257c0 94 -25 175 -35 192z" />
    <glyph glyph-name="phi" unicode="&#x3c6;" horiz-adv-x="654" 
d="M220 499l17 -30c-61 -31 -145 -100 -145 -223c0 -108 66 -200 211 -218v328c0 94 47 136 108 136c90 0 199 -91 199 -237c0 -167 -123 -255 -258 -267v-188h-49v188c-131 7 -260 86 -260 257c0 145 109 227 177 254zM352 360v-332c125 15 209 93 209 228
c0 102 -73 196 -151 196c-34 0 -58 -31 -58 -92z" />
    <glyph glyph-name="chi" unicode="&#x3c7;" horiz-adv-x="470" 
d="M29 480h54l158 -288h4l69 126l90 162h51l-189 -323l200 -349l-45 -16l-182 324h-3l-55 -102l-118 -222l-42 17l192 345z" />
    <glyph glyph-name="psi" unicode="&#x3c8;" horiz-adv-x="670" 
d="M323 -200v188c-140 7 -240 71 -240 248v141c0 40 -3 85 -10 103h46c7 -8 13 -31 13 -84v-160c0 -149 94 -205 191 -209v589h49v-589c101 4 195 83 195 257c0 100 -28 179 -44 196h51c22 -27 42 -101 42 -192c0 -129 -62 -293 -244 -300v-188h-49z" />
    <glyph glyph-name="omega" unicode="&#x3c9;" horiz-adv-x="735" 
d="M392 368l-2 -199c-1 -87 54 -140 117 -140c62 0 136 73 136 228c0 100 -40 193 -92 233v2h52c50 -38 89 -122 89 -235c0 -192 -104 -269 -185 -269c-68 0 -119 36 -140 97h-3c-25 -63 -76 -97 -140 -97c-79 0 -181 68 -181 264c0 100 42 197 91 240h49v-2
c-51 -46 -91 -137 -91 -243c0 -163 83 -218 140 -218c58 0 114 57 113 138l-2 201h49z" />
    <glyph glyph-name="iotadieresis" unicode="&#x3ca;" horiz-adv-x="225" 
d="M25 564h-1c-23 0 -37 20 -37 41s17 41 39 41s38 -19 38 -41c0 -21 -14 -41 -39 -41zM205 564h-1c-23 0 -37 20 -37 41s17 41 39 41s38 -19 38 -41c0 -21 -14 -41 -39 -41zM137 480v-378c0 -52 7 -75 53 -73l-4 -38c-7 -2 -16 -3 -26 -3c-37 0 -72 19 -72 107v385h49z" />
    <glyph glyph-name="upsilondieresis" unicode="&#x3cb;" horiz-adv-x="557" 
d="M186 564h-1c-23 0 -37 20 -37 41s17 41 39 41s38 -19 38 -41c0 -21 -14 -41 -39 -41zM366 564h-1c-23 0 -37 20 -37 41s17 41 39 41s38 -19 38 -41c0 -21 -14 -41 -39 -41zM419 480h48c15 -27 36 -110 36 -185c0 -132 -41 -307 -225 -307c-107 0 -195 64 -195 204v128
c0 99 -3 138 -10 160h45c7 -7 14 -31 14 -84v-191c0 -131 82 -174 150 -174c106 0 172 89 172 257c0 94 -25 175 -35 192z" />
    <glyph glyph-name="omicrontonos" unicode="&#x3cc;" horiz-adv-x="591" 
d="M329 682h66l-96 -140h-36zM291 -12h-1c-143 0 -247 105 -247 247c0 160 120 257 254 257c154 0 251 -109 251 -246c0 -180 -140 -258 -257 -258zM292 28h1c106 0 206 77 206 215c0 91 -61 209 -202 209c-136 0 -205 -102 -205 -214c0 -134 97 -210 200 -210z" />
    <glyph glyph-name="upsilontonos" unicode="&#x3cd;" horiz-adv-x="557" 
d="M308 682h66l-96 -140h-36zM419 480h48c15 -27 36 -110 36 -185c0 -132 -41 -307 -225 -307c-107 0 -195 64 -195 204v128c0 99 -3 138 -10 160h45c7 -7 14 -31 14 -84v-191c0 -131 82 -174 150 -174c106 0 172 89 172 257c0 94 -25 175 -35 192z" />
    <glyph glyph-name="omegatonos" unicode="&#x3ce;" horiz-adv-x="735" 
d="M395 682h66l-96 -140h-36zM392 368l-2 -199c-1 -87 54 -140 117 -140c62 0 136 73 136 228c0 100 -40 193 -92 233v2h52c50 -38 89 -122 89 -235c0 -192 -104 -269 -185 -269c-68 0 -119 36 -140 97h-3c-25 -63 -76 -97 -140 -97c-79 0 -181 68 -181 264
c0 100 42 197 91 240h49v-2c-51 -46 -91 -137 -91 -243c0 -163 83 -218 140 -218c58 0 114 57 113 138l-2 201h49z" />
    <glyph glyph-name="afii10023" unicode="&#x401;" horiz-adv-x="511" 
d="M437 376v-41h-300v-294h334v-41h-383v674h366v-41h-317v-257h300zM177 724h-1c-23 0 -37 20 -37 41s17 41 39 41s38 -19 38 -41c0 -21 -14 -41 -39 -41zM357 724h-1c-23 0 -37 20 -37 41s17 41 39 41s38 -19 38 -41c0 -21 -14 -41 -39 -41z" />
    <glyph glyph-name="afii10051" unicode="&#x402;" horiz-adv-x="688" 
d="M-20 674h548v-41h-282v-234h2c41 27 103 55 167 55c81 0 136 -33 175 -86c38 -51 52 -118 52 -183c0 -92 -26 -171 -64 -222c-45 -61 -110 -88 -168 -97l-9 34c45 10 99 34 135 82c36 47 56 115 56 193c0 63 -13 120 -41 161c-32 47 -76 76 -143 76
c-62 0 -119 -24 -162 -57v-355h-49v633h-217v41z" />
    <glyph glyph-name="afii10052" unicode="&#x403;" horiz-adv-x="427" 
d="M88 674h359v-41h-310v-633h-49v674zM310 825h76l-132 -115h-40z" />
    <glyph glyph-name="afii10053" unicode="&#x404;" horiz-adv-x="629" 
d="M594 650l-16 -39c-39 20 -94 34 -156 34c-183 0 -314 -106 -331 -279h422v-40h-422c1 -178 134 -297 318 -297c66 0 121 12 172 35l11 -38c-39 -21 -104 -38 -200 -38c-171 0 -354 107 -354 346c0 212 169 352 381 352c104 0 152 -23 175 -36z" />
    <glyph glyph-name="afii10054" unicode="&#x405;" horiz-adv-x="505" 
d="M46 38l19 41c44 -30 102 -50 167 -50c109 0 175 58 175 141c0 77 -39 121 -152 157c-135 43 -189 98 -189 186c0 99 85 173 209 173c71 0 124 -17 150 -34l-19 -41c-19 13 -67 35 -133 35c-121 0 -159 -73 -159 -126c0 -72 43 -113 152 -148c123 -40 189 -88 189 -197
c0 -93 -68 -187 -229 -187c-64 0 -139 20 -180 50z" />
    <glyph glyph-name="afii10055" unicode="&#x406;" horiz-adv-x="225" 
d="M88 674h49v-674h-49v674z" />
    <glyph glyph-name="afii10056" unicode="&#x407;" horiz-adv-x="225" 
d="M88 674h49v-674h-49v674zM23 724h-1c-23 0 -37 20 -37 41s17 41 39 41s38 -19 38 -41c0 -21 -14 -41 -39 -41zM203 724h-1c-23 0 -37 20 -37 41s17 41 39 41s38 -19 38 -41c0 -21 -14 -41 -39 -41z" />
    <glyph glyph-name="afii10057" unicode="&#x408;" horiz-adv-x="378" 
d="M249 233v441h49v-454c0 -188 -100 -232 -196 -232c-36 0 -78 10 -96 19l12 40c19 -9 48 -17 84 -17c93 0 147 44 147 203z" />
    <glyph glyph-name="afii10058" unicode="&#x409;" horiz-adv-x="927" 
d="M140 674h371v-257c21 3 74 5 95 5c137 0 275 -50 275 -208c0 -63 -21 -109 -53 -143c-55 -57 -145 -77 -237 -77c-53 0 -99 4 -129 6v633h-275v-221c0 -111 4 -307 -92 -381c-21 -16 -64 -37 -94 -37l-9 38c29 5 64 26 81 43c69 67 67 247 67 333v266zM511 376v-337
c25 -4 53 -5 94 -5c116 0 226 50 226 177c0 132 -114 170 -229 170c-24 0 -63 -2 -91 -5z" />
    <glyph glyph-name="afii10059" unicode="&#x40a;" horiz-adv-x="939" 
d="M88 674h49v-277h337v277h49v-272c21 3 69 5 115 5c128 0 255 -50 255 -196c0 -65 -21 -109 -53 -142c-55 -58 -137 -75 -234 -75c-56 0 -102 4 -132 6v356h-337v-356h-49v674zM523 361v-321c25 -4 53 -6 94 -6c113 0 226 43 226 174c0 121 -110 158 -219 158
c-44 0 -78 -2 -101 -5z" />
    <glyph glyph-name="afii10060" unicode="&#x40b;" horiz-adv-x="699" 
d="M-20 674h534v-41h-273v-224h2c45 27 113 55 178 55c62 0 102 -18 133 -46c41 -39 60 -94 60 -167v-251h-49v247c0 62 -13 104 -43 135c-28 27 -62 41 -110 41c-53 0 -128 -25 -171 -56v-367h-49v633h-212v41z" />
    <glyph glyph-name="afii10061" unicode="&#x40c;" horiz-adv-x="553" 
d="M88 674h49v-310h41l290 310h58l-299 -314c138 -11 189 -82 235 -184c31 -69 51 -121 81 -176h-52c-28 48 -53 109 -76 163c-43 102 -100 162 -246 162h-32v-325h-49v674zM349 820h76l-132 -115h-40z" />
    <glyph glyph-name="afii10062" unicode="&#x40e;" horiz-adv-x="522" 
d="M-2 674h56l177 -328c17 -32 36 -71 54 -109h2c16 39 31 72 49 112l144 325h52l-178 -389c-39 -86 -86 -177 -129 -225c-47 -52 -93 -71 -140 -71c-18 0 -31 1 -36 3l8 41c4 -1 12 -2 24 -2c89 1 137 85 168 144c10 19 7 29 -4 49zM142 820h46c6 -27 14 -65 74 -65
c59 0 68 35 72 65h46c-2 -55 -33 -102 -121 -102c-84 0 -115 47 -117 102z" />
    <glyph glyph-name="afii10145" unicode="&#x40f;" horiz-adv-x="674" 
d="M88 674h49v-633h402v633h49v-674h-222l-8 -180h-41l-8 180h-221v674z" />
    <glyph glyph-name="afii10017" unicode="&#x410;" horiz-adv-x="640" 
d="M474 237h-300l-93 -237h-51l272 674h48l270 -674h-51zM191 278h267l-95 237c-18 45 -27 74 -37 107h-2c-10 -34 -21 -64 -37 -104z" />
    <glyph glyph-name="afii10018" unicode="&#x411;" horiz-adv-x="553" 
d="M88 674h365v-41h-316v-216c21 3 74 5 95 5c61 0 122 -10 170 -34c62 -31 105 -86 105 -174c0 -63 -21 -109 -53 -143c-55 -57 -145 -77 -237 -77c-53 0 -99 4 -129 6v674zM137 376v-336c25 -4 53 -6 94 -6c68 0 142 21 184 65c26 27 42 64 42 112c0 68 -30 111 -76 137
c-42 24 -96 33 -153 33c-24 0 -63 -2 -91 -5z" />
    <glyph glyph-name="afii10019" unicode="&#x412;" horiz-adv-x="548" 
d="M88 0v665c41 9 95 15 151 15c92 0 150 -19 190 -59c28 -28 42 -64 42 -111c0 -67 -51 -127 -119 -150v-3c49 -10 147 -55 147 -169c0 -55 -20 -96 -51 -127c-47 -47 -124 -67 -233 -67c-52 0 -97 4 -127 6zM137 631v-255h118c106 0 166 59 166 132
c0 103 -85 131 -185 131c-53 0 -82 -4 -99 -8zM137 336v-295c23 -5 55 -6 95 -6c106 0 216 31 216 151c0 106 -96 150 -210 150h-101z" />
    <glyph glyph-name="afii10020" unicode="&#x413;" horiz-adv-x="427" 
d="M88 674h359v-41h-310v-633h-49v674z" />
    <glyph glyph-name="afii10021" unicode="&#x414;" horiz-adv-x="647" 
d="M169 674h375v-633h59l-6 -206h-40l-5 165h-491l-5 -165h-40l-6 206h49c22 38 52 81 70 131c29 81 40 183 40 328v174zM215 633v-161c0 -135 -12 -234 -42 -313c-17 -45 -43 -89 -62 -118h384v592h-280z" />
    <glyph glyph-name="afii10022" unicode="&#x415;" horiz-adv-x="511" 
d="M437 376v-41h-300v-294h334v-41h-383v674h366v-41h-317v-257h300z" />
    <glyph glyph-name="afii10024" unicode="&#x416;" horiz-adv-x="834" 
d="M36 674h57l260 -310h41v310h47v-310h42l258 310h58l-270 -315c125 -10 171 -73 215 -181c25 -59 43 -120 72 -178h-51c-27 48 -44 109 -66 160c-45 110 -83 165 -217 165h-41v-325h-47v325h-43c-134 0 -172 -55 -218 -165c-21 -51 -40 -112 -64 -160h-51
c30 58 47 119 72 178c44 108 91 171 215 181z" />
    <glyph glyph-name="afii10025" unicode="&#x417;" horiz-adv-x="490" 
d="M79 598l-16 37c51 34 105 51 168 51c100 0 184 -50 184 -160c0 -84 -67 -153 -149 -169v-2c105 -8 177 -69 177 -174c0 -139 -115 -193 -236 -193c-61 0 -118 12 -172 44l18 38c44 -26 104 -43 156 -43c121 0 183 69 183 154c0 122 -122 153 -223 153h-26v38h28
c110 0 193 69 193 148c0 86 -59 127 -139 127c-55 0 -107 -22 -146 -49z" />
    <glyph glyph-name="afii10026" unicode="&#x418;" horiz-adv-x="706" 
d="M88 674h48v-348c0 -104 -1 -184 -8 -262l2 -2c35 60 76 113 138 197l305 415h45v-674h-48v360c0 100 1 172 6 248l-3 2c-36 -60 -89 -131 -146 -209l-295 -401h-44v674z" />
    <glyph glyph-name="afii10027" unicode="&#x419;" horiz-adv-x="706" 
d="M88 674h48v-348c0 -104 -1 -184 -8 -262l2 -2c35 60 76 113 138 197l305 415h45v-674h-48v360c0 100 1 172 6 248l-3 2c-36 -60 -89 -131 -146 -209l-295 -401h-44v674zM234 815h46c6 -27 14 -65 74 -65c59 0 68 35 72 65h46c-2 -55 -33 -102 -121 -102
c-84 0 -115 47 -117 102z" />
    <glyph glyph-name="afii10028" unicode="&#x41a;" horiz-adv-x="553" 
d="M88 674h49v-310h41l290 310h58l-299 -314c138 -11 189 -82 235 -184c31 -69 51 -121 81 -176h-52c-28 48 -53 109 -76 163c-43 102 -100 162 -246 162h-32v-325h-49v674z" />
    <glyph glyph-name="afii10029" unicode="&#x41b;" horiz-adv-x="620" 
d="M136 674h396v-674h-49v633h-298v-221c0 -111 4 -307 -92 -381c-21 -16 -64 -37 -98 -37l-5 38c27 5 62 26 79 43c69 67 67 247 67 333v266z" />
    <glyph glyph-name="afii10030" unicode="&#x41c;" horiz-adv-x="845" 
d="M732 0l-21 318c-7 100 -16 230 -16 302h-2c-27 -72 -58 -150 -101 -252l-156 -368h-37l-146 363c-42 105 -73 185 -95 257h-2c-3 -78 -8 -201 -17 -312l-24 -308h-48l54 674h56l162 -402c34 -84 60 -154 80 -215h2c18 57 45 125 83 214l170 403h58l48 -674h-48z" />
    <glyph glyph-name="afii10031" unicode="&#x41d;" horiz-adv-x="696" 
d="M88 674h49v-295h422v295h49v-674h-49v338h-422v-338h-49v674z" />
    <glyph glyph-name="afii10032" unicode="&#x41e;" horiz-adv-x="753" 
d="M380 686c198 0 335 -146 335 -340c0 -233 -166 -358 -342 -358c-192 0 -335 143 -335 340c0 212 150 358 342 358zM378 646c-192 0 -289 -150 -289 -316c0 -159 109 -302 286 -302c178 0 289 135 289 314c0 146 -95 304 -286 304z" />
    <glyph glyph-name="afii10033" unicode="&#x41f;" horiz-adv-x="679" 
d="M88 674h503v-674h-49v633h-405v-633h-49v674z" />
    <glyph glyph-name="afii10034" unicode="&#x420;" horiz-adv-x="548" 
d="M88 0v667c43 7 98 13 160 13c90 0 155 -22 195 -60c34 -32 54 -76 54 -131c0 -59 -18 -105 -52 -139c-46 -48 -123 -73 -212 -73c-35 0 -68 1 -96 10v-287h-49zM137 630v-300c28 -9 64 -12 102 -12c134 0 209 61 209 165c0 116 -92 156 -201 156c-51 0 -90 -5 -110 -9z
" />
    <glyph glyph-name="afii10035" unicode="&#x421;" horiz-adv-x="640" 
d="M590 66l15 -39c-38 -19 -114 -39 -211 -39c-182 0 -356 111 -356 346c0 176 130 352 383 352c102 0 159 -23 182 -34l-16 -41c-40 20 -100 34 -163 34c-219 0 -335 -133 -335 -315c0 -166 111 -300 323 -300c66 0 132 13 178 36z" />
    <glyph glyph-name="afii10036" unicode="&#x422;" horiz-adv-x="510" 
d="M231 0v633h-251v41h551v-41h-251v-633h-49z" />
    <glyph glyph-name="afii10037" unicode="&#x423;" horiz-adv-x="522" 
d="M-2 674h56l177 -328c17 -32 36 -71 54 -109h2c16 39 31 72 49 112l144 325h52l-178 -389c-39 -86 -86 -177 -129 -225c-47 -52 -93 -71 -140 -71c-18 0 -31 1 -36 3l8 41c4 -1 12 -2 24 -2c89 1 137 85 168 144c10 19 7 29 -4 49z" />
    <glyph glyph-name="afii10038" unicode="&#x424;" horiz-adv-x="763" 
d="M358 704h49v-64c157 -2 318 -88 318 -305c0 -207 -158 -293 -320 -299v-66h-49v66c-158 8 -318 87 -318 296c0 225 174 303 320 308v64zM357 73v530c-119 -3 -267 -69 -267 -266c0 -178 126 -254 267 -264zM406 603v-530c134 6 267 82 267 262c0 195 -130 264 -267 268z
" />
    <glyph glyph-name="afii10039" unicode="&#x425;" horiz-adv-x="600" 
d="M568 0h-58l-112 159l-103 148h-2c-23 -37 -47 -73 -98 -149l-105 -158h-58l236 341l-226 333h58l120 -182l78 -118h2c22 34 46 67 81 117l128 183h59l-242 -330z" />
    <glyph glyph-name="afii10040" unicode="&#x426;" horiz-adv-x="689" 
d="M88 674h49v-633h400v633h49v-633h59l-6 -206h-41l-4 165h-506v674z" />
    <glyph glyph-name="afii10041" unicode="&#x427;" horiz-adv-x="627" 
d="M85 674h49v-225c0 -112 62 -174 180 -174c64 0 132 23 176 54v345h49v-674h-49v287h-2c-50 -35 -120 -54 -189 -54c-70 0 -214 16 -214 214v227z" />
    <glyph glyph-name="afii10042" unicode="&#x428;" horiz-adv-x="883" 
d="M88 674h49v-633h280v633h49v-633h280v633h49v-674h-707v674z" />
    <glyph glyph-name="afii10043" unicode="&#x429;" horiz-adv-x="898" 
d="M88 674h49v-633h280v633h49v-633h280v633h49v-633h59l-6 -206h-41l-4 165h-715v674z" />
    <glyph glyph-name="afii10044" unicode="&#x42a;" horiz-adv-x="621" 
d="M-20 674h235v-257c21 3 64 5 90 5c132 0 270 -50 270 -208c0 -63 -21 -109 -53 -143c-55 -57 -145 -77 -232 -77c-48 0 -94 4 -124 6v633h-186v41zM215 376v-336c25 -4 53 -6 89 -6c119 0 221 50 221 177c0 132 -114 170 -219 170c-29 0 -63 -2 -91 -5z" />
    <glyph glyph-name="afii10045" unicode="&#x42b;" horiz-adv-x="732" 
d="M88 674h49v-258c21 4 74 6 95 6c144 0 275 -50 275 -208c0 -63 -21 -109 -53 -143c-55 -57 -145 -77 -237 -77c-53 0 -99 4 -129 6v674zM137 376v-336c25 -4 53 -6 94 -6c118 0 226 50 226 177c0 132 -114 170 -229 170c-47 0 -84 -4 -91 -5zM595 674h49v-674h-49v674z
" />
    <glyph glyph-name="afii10046" unicode="&#x42c;" horiz-adv-x="553" 
d="M88 674h49v-258c21 4 74 6 95 6c137 0 275 -50 275 -208c0 -63 -21 -109 -53 -143c-55 -57 -145 -77 -237 -77c-53 0 -99 4 -129 6v674zM137 376v-336c25 -4 53 -6 94 -6c116 0 226 48 226 177c0 132 -114 170 -229 170c-24 0 -63 -2 -91 -5z" />
    <glyph glyph-name="afii10047" unicode="&#x42d;" horiz-adv-x="616" 
d="M158 326v40h367c-16 173 -127 279 -289 279c-65 0 -117 -18 -175 -44l-16 39c63 28 124 46 194 46c200 0 339 -134 339 -352c0 -239 -171 -346 -335 -346c-74 0 -140 12 -208 41l14 42c51 -24 121 -42 177 -42c178 0 298 113 301 297h-369z" />
    <glyph glyph-name="afii10048" unicode="&#x42e;" horiz-adv-x="925" 
d="M88 674h49v-310h122c13 197 134 322 317 322c194 0 311 -146 311 -340c0 -238 -151 -358 -317 -358c-186 0 -310 135 -312 335h-121v-323h-49v674zM570 28h1c165 0 265 135 265 314c0 146 -84 304 -262 304c-179 0 -267 -150 -267 -316c0 -159 99 -302 263 -302z" />
    <glyph glyph-name="afii10049" unicode="&#x42f;" horiz-adv-x="554" 
d="M74 0h-54c8 14 17 29 24 46c35 80 58 184 121 245c17 16 38 28 59 34v2c-99 12 -167 82 -167 167c0 55 19 98 53 128c38 34 101 58 197 58c52 0 113 -6 159 -15v-665h-49v309h-97c-53 0 -90 -10 -118 -39c-52 -53 -77 -160 -107 -230c-7 -15 -13 -26 -21 -40zM417 350
v279c-19 5 -59 11 -111 11c-100 0 -200 -27 -200 -142c0 -93 86 -148 207 -149c43 0 83 0 104 1z" />
    <glyph glyph-name="afii10065" unicode="&#x430;" horiz-adv-x="496" 
d="M416 290v-174c0 -39 2 -77 8 -116h-45l-8 74h-2c-25 -37 -86 -86 -174 -86c-109 0 -153 74 -153 132c0 109 101 180 325 177v11c0 36 -8 144 -136 143c-48 0 -98 -12 -138 -40l-16 35c53 35 112 46 158 46c163 0 181 -126 181 -202zM367 154v102
c-127 4 -273 -16 -273 -127c0 -68 49 -101 105 -101c93 0 143 55 162 98c4 10 6 20 6 28z" />
    <glyph glyph-name="afii10066" unicode="&#x431;" horiz-adv-x="547" 
d="M454 728l-1 -45c-23 -10 -63 -20 -91 -24c-98 -16 -171 -47 -217 -115c-37 -53 -55 -132 -60 -195h2c38 93 122 131 195 131c125 0 222 -83 222 -236c0 -147 -69 -256 -230 -256c-187 0 -231 182 -231 336c0 93 19 171 62 239c52 83 130 114 244 135c36 7 71 17 105 30z
M455 237v1c0 88 -42 202 -179 202c-71 0 -123 -37 -151 -91c-16 -30 -25 -65 -25 -103c0 -102 61 -219 178 -219c127 0 177 101 177 210z" />
    <glyph glyph-name="afii10067" unicode="&#x432;" horiz-adv-x="505" 
d="M83 0v474c36 6 92 10 141 10c81 0 212 -12 212 -119c0 -59 -45 -98 -102 -110v-2c69 -8 126 -45 126 -119c0 -125 -159 -138 -252 -138c-46 0 -98 3 -125 4zM128 437v-167h96c74 0 162 17 162 89c0 55 -50 83 -168 83c-43 0 -65 -3 -90 -5zM127 231v-189
c37 -3 61 -4 95 -4c63 0 188 8 188 96c0 89 -94 97 -192 97h-91z" />
    <glyph glyph-name="afii10068" unicode="&#x433;" horiz-adv-x="397" 
d="M83 480h295v-41h-246v-439h-49v480z" />
    <glyph glyph-name="afii10069" unicode="&#x434;" horiz-adv-x="532" 
d="M130 480h309v-439h50l-4 -200h-42l-3 159h-383l-3 -159h-42l-4 200h42c20 31 36 62 47 94c23 70 33 144 33 222v123zM175 440v-95c0 -79 -11 -150 -30 -211c-12 -37 -27 -65 -41 -93h286v399h-215z" />
    <glyph glyph-name="afii10070" unicode="&#x435;" horiz-adv-x="537" 
d="M490 240h-399c0 -140 89 -210 203 -210c83 0 123 16 154 30l13 -39c-17 -8 -71 -33 -172 -33c-149 0 -246 101 -246 240c0 163 104 264 240 264c178 0 209 -158 209 -222c0 -15 0 -22 -2 -30zM94 279h347c1 50 -20 173 -164 173c-122 0 -173 -100 -183 -173z" />
    <glyph glyph-name="afii10072" unicode="&#x436;" horiz-adv-x="667" 
d="M22 480h61l207 -219h20v219h47v-219h19l207 219h61l-219 -224c89 -6 138 -37 177 -131c17 -38 33 -90 54 -125h-50c-20 35 -35 77 -50 114c-39 92 -96 111 -179 111h-20v-225h-47v225h-21c-81 0 -141 -19 -180 -111c-16 -37 -32 -79 -51 -114h-48c21 35 38 87 54 125
c40 94 89 125 178 131z" />
    <glyph glyph-name="afii10073" unicode="&#x437;" horiz-adv-x="425" 
d="M125 232v40h25c93 0 154 44 154 96c0 51 -47 85 -108 85c-38 0 -85 -14 -121 -38l-18 35c46 28 94 42 147 42c67 0 153 -33 153 -126c0 -57 -58 -100 -116 -110v-1c83 -5 141 -57 141 -126c0 -95 -86 -141 -198 -141c-55 0 -108 16 -148 37l19 39c40 -22 86 -36 131 -36
c83 0 140 41 140 103c0 83 -90 101 -174 101h-27z" />
    <glyph glyph-name="afii10074" unicode="&#x438;" horiz-adv-x="578" 
d="M83 480h49v-248c0 -74 0 -111 -4 -175l2 -1c37 56 51 73 95 132l219 292h51v-480h-49v256c0 71 1 114 4 171h-2c-46 -69 -72 -105 -110 -155l-205 -272h-50v480z" />
    <glyph glyph-name="afii10075" unicode="&#x439;" horiz-adv-x="578" 
d="M83 480h49v-248c0 -74 0 -111 -4 -175l2 -1c37 56 51 73 95 132l219 292h51v-480h-49v256c0 71 1 114 4 171h-2c-46 -69 -72 -105 -110 -155l-205 -272h-50v480zM162 679h46c3 -42 28 -82 78 -82c54 0 78 39 83 82h45c-1 -72 -53 -117 -130 -117c-96 0 -121 67 -122 117z
" />
    <glyph glyph-name="afii10076" unicode="&#x43a;" horiz-adv-x="485" 
d="M88 480h49v-219h28l239 219h67l-251 -223c95 -8 154 -55 205 -162c10 -21 28 -62 50 -95h-52c-13 17 -35 58 -49 88c-46 97 -107 136 -215 136h-22v-224h-49v480z" />
    <glyph glyph-name="afii10077" unicode="&#x43b;" horiz-adv-x="527" 
d="M118 480h326v-480h-49v439h-228v-131c0 -148 -14 -247 -85 -289c-22 -13 -40 -23 -76 -23l-2 41c13 2 32 8 45 16c62 38 69 123 69 251v176z" />
    <glyph glyph-name="afii10078" unicode="&#x43c;" horiz-adv-x="619" 
d="M40 0l40 480h58l118 -290c13 -32 42 -105 52 -132h1c11 30 53 141 76 194l97 228h60l37 -480h-50l-14 260c-3 53 -8 113 -11 165h-3c-8 -23 -29 -75 -60 -148l-119 -277h-37l-112 276c-14 34 -41 111 -54 149h-4c-2 -52 -6 -112 -9 -165l-16 -260h-50z" />
    <glyph glyph-name="afii10079" unicode="&#x43d;" horiz-adv-x="576" 
d="M83 480h49v-202h312v202h49v-480h-49v237h-312v-237h-49v480z" />
    <glyph glyph-name="afii10080" unicode="&#x43e;" horiz-adv-x="591" 
d="M297 492c154 0 251 -109 251 -246c0 -180 -140 -258 -258 -258c-143 0 -247 105 -247 247c0 160 120 257 254 257zM297 452c-136 0 -205 -102 -205 -214c0 -134 97 -210 201 -210c106 0 206 77 206 215c0 91 -61 209 -202 209z" />
    <glyph glyph-name="afii10081" unicode="&#x43f;" horiz-adv-x="572" 
d="M83 480h406v-480h-49v439h-308v-439h-49v480z" />
    <glyph glyph-name="afii10082" unicode="&#x440;" horiz-adv-x="613" 
d="M88 -200v525c0 52 -1 103 -4 155h47l4 -100h2c36 65 102 112 202 112c141 0 231 -112 231 -242c0 -168 -112 -262 -243 -262c-75 0 -148 31 -188 98h-2v-286h-49zM137 278v-85c0 -13 2 -26 5 -38c20 -68 91 -127 181 -127c122 0 198 86 198 220c0 109 -72 204 -192 204
c-79 0 -156 -45 -183 -132c-4 -13 -9 -29 -9 -42z" />
    <glyph glyph-name="afii10083" unicode="&#x441;" horiz-adv-x="498" 
d="M444 62l14 -39c-21 -10 -79 -35 -161 -35c-153 0 -254 106 -254 245c0 160 119 259 273 259c71 0 126 -20 146 -34l-18 -40c-28 16 -70 32 -132 32c-143 0 -220 -94 -220 -211c0 -125 90 -209 212 -209c69 0 112 20 140 32z" />
    <glyph glyph-name="afii10084" unicode="&#x442;" horiz-adv-x="411" 
d="M10 480h391v-41h-171v-439h-49v439h-171v41z" />
    <glyph glyph-name="afii10085" unicode="&#x443;" horiz-adv-x="480" 
d="M9 480h53l143 -321c14 -31 30 -71 39 -101h2c11 30 24 66 40 105l134 317h53l-170 -388c-66 -152 -109 -227 -173 -273c-41 -30 -78 -41 -88 -43l-13 41c24 7 58 21 88 47c25 21 62 61 92 129c4 9 6 15 6 19s-2 11 -7 22z" />
    <glyph glyph-name="afii10086" unicode="&#x444;" horiz-adv-x="648" 
d="M302 716h45v-224c160 -8 258 -107 258 -247c0 -158 -108 -247 -258 -256v-189h-45v188c-160 8 -259 106 -259 247c0 159 109 248 259 256v225zM302 25v430c-120 -8 -210 -95 -210 -217s94 -205 210 -213zM347 455v-430c118 9 209 97 209 217c0 124 -91 204 -209 213z" />
    <glyph glyph-name="afii10087" unicode="&#x445;" horiz-adv-x="470" 
d="M22 480h56l92 -118c23 -29 41 -53 61 -81h2c20 28 40 53 62 81l92 118h55l-184 -233l193 -247h-57l-96 122l-68 91h-2c-20 -31 -41 -57 -67 -91l-94 -122h-57l195 246z" />
    <glyph glyph-name="afii10088" unicode="&#x446;" horiz-adv-x="576" 
d="M83 480h49v-439h302v439h49v-439h50l-4 -200h-42l-3 159h-401v480z" />
    <glyph glyph-name="afii10089" unicode="&#x447;" horiz-adv-x="531" 
d="M78 480h49v-162c0 -69 30 -121 131 -121c50 0 104 17 141 45v238h49v-488h-49v210h-1c-38 -26 -101 -45 -151 -45c-91 0 -169 41 -169 155v168z" />
    <glyph glyph-name="afii10090" unicode="&#x448;" horiz-adv-x="741" 
d="M83 480h49v-439h214v439h49v-439h214v439h49v-480h-575v480z" />
    <glyph glyph-name="afii10091" unicode="&#x449;" horiz-adv-x="751" 
d="M83 480h49v-439h214v439h49v-439h214v439h49v-439h50l-4 -200h-42l-3 159h-576v480z" />
    <glyph glyph-name="afii10092" unicode="&#x44a;" horiz-adv-x="572" 
d="M10 480h204v-172c26 4 64 5 99 5c92 0 216 -32 216 -160c0 -44 -14 -75 -38 -99c-51 -51 -133 -59 -208 -59c-49 0 -91 4 -119 5v439h-154v41zM213 267v-229c22 -3 48 -5 86 -5c90 0 181 25 181 119c0 99 -98 122 -183 122c-28 0 -55 -3 -84 -7z" />
    <glyph glyph-name="afii10093" unicode="&#x44b;" horiz-adv-x="640" 
d="M83 480h50v-174c21 4 54 7 89 7c106 0 216 -38 216 -160c0 -42 -14 -73 -38 -97c-51 -51 -133 -61 -198 -61c-49 0 -91 4 -119 5v480zM132 267v-229c22 -3 48 -5 81 -5c81 0 176 27 176 119c0 98 -91 122 -171 122c-30 0 -62 -3 -86 -7zM506 480h49v-480h-49v480z" />
    <glyph glyph-name="afii10094" unicode="&#x44c;" horiz-adv-x="501" 
d="M83 480h50v-172c21 4 64 5 94 5c109 0 231 -27 231 -163c0 -41 -14 -70 -38 -94c-51 -51 -143 -61 -218 -61c-49 0 -91 4 -119 5v480zM132 267v-229c22 -3 48 -5 86 -5c76 0 191 21 191 119c0 104 -116 122 -193 122c-28 0 -55 -2 -84 -7z" />
    <glyph glyph-name="afii10095" unicode="&#x44d;" horiz-adv-x="503" 
d="M116 226v40h294c-8 104 -75 184 -211 184c-64 0 -112 -21 -140 -36l-16 34c48 28 105 44 162 44c80 0 145 -25 191 -74c42 -43 64 -106 64 -185c0 -139 -99 -245 -266 -245c-62 0 -114 15 -158 38l15 39c28 -12 73 -35 146 -35c129 0 208 78 214 196h-295z" />
    <glyph glyph-name="afii10096" unicode="&#x44e;" horiz-adv-x="728" 
d="M83 480h47v-218h105c11 127 100 230 227 230c138 0 223 -106 223 -246c0 -139 -89 -258 -228 -258c-132 0 -217 99 -223 233h-104v-221h-47v480zM458 26h1c118 0 177 113 177 218c0 108 -63 208 -175 208c-107 0 -178 -93 -178 -218c0 -110 65 -208 175 -208z" />
    <glyph glyph-name="afii10097" unicode="&#x44f;" horiz-adv-x="500" 
d="M417 474v-474h-49v215h-105c-37 0 -64 -6 -85 -20c-48 -31 -64 -104 -88 -154c-7 -15 -16 -31 -23 -41h-54c11 16 23 37 33 57c27 55 34 116 90 154c14 9 29 16 48 20v2c-73 7 -138 48 -138 120c0 44 24 77 54 96c40 26 97 35 164 35c51 0 107 -4 153 -10zM368 255v185
c-32 4 -59 7 -103 7c-68 0 -168 -13 -168 -97c0 -75 105 -95 163 -95h108z" />
    <glyph glyph-name="afii10071" unicode="&#x451;" horiz-adv-x="537" 
d="M198 581h-1c-23 0 -37 20 -37 41s17 41 39 41s38 -19 38 -41c0 -21 -14 -41 -39 -41zM377 581h-1c-23 0 -37 20 -37 41s17 41 39 41s38 -19 38 -41c0 -21 -14 -41 -39 -41zM490 240h-399c0 -140 89 -210 203 -210c83 0 123 16 154 30l13 -39c-17 -8 -71 -33 -172 -33
c-149 0 -246 101 -246 240c0 163 104 264 240 264c178 0 209 -158 209 -222c0 -15 0 -22 -2 -30zM94 279h347c1 50 -20 173 -164 173c-122 0 -173 -100 -183 -173z" />
    <glyph glyph-name="afii10099" unicode="&#x452;" horiz-adv-x="590" 
d="M9 617h100v99h49v-99h254v-41h-254v-169h2c45 48 109 85 179 85c59 0 106 -26 140 -69c51 -64 68 -153 68 -232c0 -134 -41 -230 -91 -276c-34 -32 -79 -55 -140 -62l-9 38c55 11 87 25 119 59c42 46 71 120 71 241c0 73 -11 139 -53 199c-26 37 -68 62 -119 62
c-53 0 -110 -33 -153 -85c-9 -11 -14 -25 -14 -51v-316h-49v576h-100v41z" />
    <glyph glyph-name="afii10100" unicode="&#x453;" horiz-adv-x="397" 
d="M83 480h295v-41h-246v-439h-49v480zM273 692h74l-127 -140h-38z" />
    <glyph glyph-name="afii10101" unicode="&#x454;" horiz-adv-x="501" 
d="M466 452l-18 -39c-29 14 -70 37 -136 37c-136 0 -208 -80 -219 -184h302v-40h-303c6 -118 91 -196 212 -196c73 0 118 22 146 34l15 -39c-21 -10 -82 -37 -168 -37c-157 0 -254 106 -254 245c0 158 115 259 273 259c76 0 129 -28 150 -40z" />
    <glyph glyph-name="afii10102" unicode="&#x455;" horiz-adv-x="408" 
d="M50 23l18 42c29 -18 72 -36 120 -36c84 0 121 44 121 93c0 56 -38 83 -113 107c-87 28 -130 73 -130 130c0 68 54 133 158 133c47 0 88 -13 116 -32l-19 -40c-16 11 -51 31 -106 31c-66 0 -101 -40 -101 -86c0 -54 41 -75 112 -99c88 -30 131 -68 131 -140
c0 -78 -64 -138 -173 -138c-51 0 -98 14 -134 35z" />
    <glyph glyph-name="afii10103" unicode="&#x456;" horiz-adv-x="225" 
d="M137 0h-49v480h49v-480zM113 665c23 0 40 -20 40 -43c0 -22 -16 -43 -42 -43c-23 0 -39 21 -39 43s18 43 41 43z" />
    <glyph glyph-name="afii10104" unicode="&#x457;" horiz-adv-x="225" 
d="M23 581h-1c-23 0 -37 20 -37 41s17 41 39 41s38 -19 38 -41c0 -21 -14 -41 -39 -41zM202 581h-1c-23 0 -37 20 -37 41s17 41 39 41s38 -19 38 -41c0 -21 -14 -41 -39 -41zM137 0h-49v480h49v-480z" />
    <glyph glyph-name="afii10105" unicode="&#x458;" horiz-adv-x="230" 
d="M-53 -212l-5 40c48 1 87 14 111 39c28 30 40 68 40 204v409h49v-445c0 -83 -10 -146 -55 -194c-38 -40 -105 -53 -140 -53zM119 665c23 0 39 -21 39 -43c0 -21 -15 -43 -42 -43c-24 0 -39 22 -39 43c0 22 18 43 42 43z" />
    <glyph glyph-name="afii10106" unicode="&#x459;" horiz-adv-x="812" 
d="M128 480h316v-172c21 4 64 5 94 5c109 0 231 -27 231 -160c0 -42 -14 -73 -38 -97c-50 -50 -143 -61 -218 -61c-49 0 -91 4 -119 5v439h-219v-131c0 -148 -24 -247 -95 -290c-20 -12 -38 -22 -74 -22l-2 41c13 2 34 8 47 16c62 38 77 123 77 251v176zM443 267v-229
c22 -3 48 -5 86 -5c76 0 191 21 191 119c0 104 -111 122 -183 122c-38 0 -65 -3 -94 -7z" />
    <glyph glyph-name="afii10107" unicode="&#x45a;" horiz-adv-x="812" 
d="M83 480h49v-186h272v186h50v-178c21 4 64 6 99 6c90 0 216 -31 216 -154c0 -45 -15 -77 -39 -101c-51 -50 -132 -58 -207 -58c-49 0 -91 4 -119 5v252h-272v-252h-49v480zM453 263v-226c22 -2 48 -4 86 -4c75 0 181 20 181 117c0 99 -99 120 -178 120
c-34 0 -61 -3 -89 -7z" />
    <glyph glyph-name="afii10108" unicode="&#x45b;" horiz-adv-x="612" 
d="M8 617h101v99h49v-99h212v-41h-212v-188h2c18 30 41 54 68 72c33 21 72 32 114 32c114 0 187 -80 187 -218v-274h-49v272c0 93 -40 177 -151 177c-76 0 -139 -54 -162 -113c-6 -15 -9 -34 -9 -56v-280h-49v576h-101v41z" />
    <glyph glyph-name="afii10109" unicode="&#x45c;" horiz-adv-x="485" 
d="M88 480h49v-219h28l239 219h67l-251 -223c95 -8 154 -55 205 -162c10 -21 28 -62 50 -95h-52c-13 17 -35 58 -49 88c-46 97 -107 136 -215 136h-22v-224h-49v480zM301 692h74l-127 -140h-38z" />
    <glyph glyph-name="afii10110" unicode="&#x45e;" horiz-adv-x="480" 
d="M113 679h46c3 -42 28 -82 78 -82c54 0 78 39 83 82h45c-1 -72 -53 -117 -130 -117c-96 0 -121 67 -122 117zM9 480h53l143 -321c14 -31 30 -71 39 -101h2c11 30 24 66 40 105l134 317h53l-170 -388c-66 -152 -109 -227 -173 -273c-41 -30 -78 -41 -88 -43l-13 41
c24 7 58 21 88 47c25 21 62 61 92 129c4 9 6 15 6 19s-2 11 -7 22z" />
    <glyph glyph-name="afii10193" unicode="&#x45f;" horiz-adv-x="565" 
d="M83 480h49v-439h301v439h49v-480h-174l-5 -159h-39l-6 159h-175v480z" />
    <glyph glyph-name="afii10050" unicode="&#x490;" horiz-adv-x="455" 
d="M88 674h323l17 122h38l-11 -163h-318v-633h-49v674z" />
    <glyph glyph-name="afii10098" unicode="&#x491;" horiz-adv-x="402" 
d="M83 480h251l10 109h38l-4 -150h-246v-439h-49v480z" />
    <glyph glyph-name="afii10846" unicode="&#x4d9;" horiz-adv-x="328" 
d="M87 420l-13 39c17 8 71 33 172 33c149 0 246 -101 246 -241c0 -162 -104 -263 -240 -263c-178 0 -209 157 -209 221c0 15 0 22 2 30h399c0 141 -89 211 -203 211c-83 0 -123 -16 -154 -30zM441 200h-347c-1 -50 20 -172 164 -172c122 0 173 99 183 172z" />
    <glyph glyph-name="Wgrave" unicode="&#x1e80;" horiz-adv-x="881" 
d="M250 0h-48l-191 674h50l107 -387c24 -86 47 -169 61 -226h2c12 55 39 138 68 226l124 387h48l109 -386c23 -82 47 -168 58 -227h2c16 63 40 136 68 225l124 388h51l-223 -674h-48l-109 386c-30 106 -47 170 -57 231h-2c-12 -59 -33 -124 -68 -229zM301 825h76l96 -115
h-40z" />
    <glyph glyph-name="wgrave" unicode="&#x1e81;" horiz-adv-x="784" 
d="M271 692h74l91 -140h-38zM24 480h51l88 -280c18 -58 32 -104 44 -148h2c13 42 31 90 53 148l107 280h49l102 -279c22 -60 38 -108 51 -149h2c11 42 27 90 47 148l96 280h50l-174 -480h-44l-98 265c-23 61 -43 117 -57 171h-2c-16 -56 -37 -113 -60 -172l-105 -264h-44z
" />
    <glyph glyph-name="Wacute" unicode="&#x1e82;" horiz-adv-x="881" 
d="M250 0h-48l-191 674h50l107 -387c24 -86 47 -169 61 -226h2c12 55 39 138 68 226l124 387h48l109 -386c23 -82 47 -168 58 -227h2c16 63 40 136 68 225l124 388h51l-223 -674h-48l-109 386c-30 106 -47 170 -57 231h-2c-12 -59 -33 -124 -68 -229zM513 825h76l-132 -115
h-40z" />
    <glyph glyph-name="wacute" unicode="&#x1e83;" horiz-adv-x="784" 
d="M451 692h74l-127 -140h-38zM24 480h51l88 -280c18 -58 32 -104 44 -148h2c13 42 31 90 53 148l107 280h49l102 -279c22 -60 38 -108 51 -149h2c11 42 27 90 47 148l96 280h50l-174 -480h-44l-98 265c-23 61 -43 117 -57 171h-2c-16 -56 -37 -113 -60 -172l-105 -264h-44z
" />
    <glyph glyph-name="Wdieresis" unicode="&#x1e84;" horiz-adv-x="881" 
d="M250 0h-48l-191 674h50l107 -387c24 -86 47 -169 61 -226h2c12 55 39 138 68 226l124 387h48l109 -386c23 -82 47 -168 58 -227h2c16 63 40 136 68 225l124 388h51l-223 -674h-48l-109 386c-30 106 -47 170 -57 231h-2c-12 -59 -33 -124 -68 -229zM350 724h-1
c-23 0 -37 20 -37 41s17 41 39 41s38 -19 38 -41c0 -21 -14 -41 -39 -41zM530 724h-1c-23 0 -37 20 -37 41s17 41 39 41s38 -19 38 -41c0 -21 -14 -41 -39 -41z" />
    <glyph glyph-name="wdieresis" unicode="&#x1e85;" horiz-adv-x="784" 
d="M302 581h-1c-23 0 -37 20 -37 41s17 41 39 41s38 -19 38 -41c0 -21 -14 -41 -39 -41zM481 581h-1c-23 0 -37 20 -37 41s17 41 39 41s38 -19 38 -41c0 -21 -14 -41 -39 -41zM24 480h51l88 -280c18 -58 32 -104 44 -148h2c13 42 31 90 53 148l107 280h49l102 -279
c22 -60 38 -108 51 -149h2c11 42 27 90 47 148l96 280h50l-174 -480h-44l-98 265c-23 61 -43 117 -57 171h-2c-16 -56 -37 -113 -60 -172l-105 -264h-44z" />
    <glyph glyph-name="uni1EA0" unicode="&#x1ea0;" horiz-adv-x="640" 
d="M474 237h-300l-93 -237h-51l272 674h48l270 -674h-51zM191 278h267l-95 237c-18 45 -27 74 -37 107h-2c-10 -34 -21 -64 -37 -104zM320 -80c22 0 39 -20 39 -42s-15 -42 -41 -42c-22 0 -38 20 -38 42c0 21 18 42 40 42z" />
    <glyph glyph-name="uni1EA1" unicode="&#x1ea1;" horiz-adv-x="496" 
d="M416 290v-174c0 -39 2 -77 8 -116h-45l-8 74h-2c-25 -37 -86 -86 -174 -86c-109 0 -153 74 -153 132c0 109 101 180 325 177v11c0 36 -8 144 -136 143c-48 0 -98 -12 -138 -40l-16 35c53 35 112 46 158 46c163 0 181 -126 181 -202zM367 154v102
c-127 4 -273 -16 -273 -127c0 -68 49 -101 105 -101c93 0 143 55 162 98c4 10 6 20 6 28zM248 -80c22 0 39 -20 39 -42s-15 -42 -41 -42c-22 0 -38 20 -38 42c0 21 18 42 40 42z" />
    <glyph glyph-name="uni1EA2" unicode="&#x1ea2;" horiz-adv-x="640" 
d="M474 237h-300l-93 -237h-51l272 674h48l270 -674h-51zM191 278h267l-95 237c-18 45 -27 74 -37 107h-2c-10 -34 -21 -64 -37 -104zM340 713l-34 12c19 45 57 53 57 85c0 21 -14 34 -37 34c-22 0 -41 -18 -54 -37l-26 15c15 30 41 61 88 61c43 0 78 -27 78 -68
c0 -47 -44 -56 -72 -102z" />
    <glyph glyph-name="uni1EA3" unicode="&#x1ea3;" horiz-adv-x="496" 
d="M416 290v-174c0 -39 2 -77 8 -116h-45l-8 74h-2c-25 -37 -86 -86 -174 -86c-109 0 -153 74 -153 132c0 109 101 180 325 177v11c0 36 -8 144 -136 143c-48 0 -98 -12 -138 -40l-16 35c53 35 112 46 158 46c163 0 181 -126 181 -202zM367 154v102
c-127 4 -273 -16 -273 -127c0 -68 49 -101 105 -101c93 0 143 55 162 98c4 10 6 20 6 28zM254 530l-33 11c12 43 62 56 62 93c0 21 -16 34 -36 34c-24 0 -42 -18 -55 -37l-26 15c15 30 41 61 88 61c43 0 78 -28 78 -69c0 -51 -53 -63 -78 -108z" />
    <glyph glyph-name="uni1EA4" unicode="&#x1ea4;" horiz-adv-x="640" 
d="M474 237h-300l-93 -237h-51l272 674h48l270 -674h-51zM191 278h267l-95 237c-18 45 -27 74 -37 107h-2c-10 -34 -21 -64 -37 -104zM312 825h36l103 -115h-54l-66 79h-2l-66 -79h-50zM497 898h65l-120 -102h-40z" />
    <glyph glyph-name="uni1EA5" unicode="&#x1ea5;" horiz-adv-x="496" 
d="M416 290v-174c0 -39 2 -77 8 -116h-45l-8 74h-2c-25 -37 -86 -86 -174 -86c-109 0 -153 74 -153 132c0 109 101 180 325 177v11c0 36 -8 144 -136 143c-48 0 -98 -12 -138 -40l-16 35c53 35 112 46 158 46c163 0 181 -126 181 -202zM367 154v102
c-127 4 -273 -16 -273 -127c0 -68 49 -101 105 -101c93 0 143 55 162 98c4 10 6 20 6 28zM218 692h41l93 -140h-51l-62 102h-2l-62 -102h-46zM396 772h64l-96 -124h-37z" />
    <glyph glyph-name="uni1EA6" unicode="&#x1ea6;" horiz-adv-x="640" 
d="M474 237h-300l-93 -237h-51l272 674h48l270 -674h-51zM191 278h267l-95 237c-18 45 -27 74 -37 107h-2c-10 -34 -21 -64 -37 -104zM358 874h68l79 -102h-39zM305 825h36l103 -115h-54l-66 79h-2l-66 -79h-50z" />
    <glyph glyph-name="uni1EA7" unicode="&#x1ea7;" horiz-adv-x="496" 
d="M416 290v-174c0 -39 2 -77 8 -116h-45l-8 74h-2c-25 -37 -86 -86 -174 -86c-109 0 -153 74 -153 132c0 109 101 180 325 177v11c0 36 -8 144 -136 143c-48 0 -98 -12 -138 -40l-16 35c53 35 112 46 158 46c163 0 181 -126 181 -202zM367 154v102
c-127 4 -273 -16 -273 -127c0 -68 49 -101 105 -101c93 0 143 55 162 98c4 10 6 20 6 28zM279 771h62l65 -124h-37zM214 692h41l93 -140h-51l-62 102h-2l-62 -102h-46z" />
    <glyph glyph-name="uni1EA8" unicode="&#x1ea8;" horiz-adv-x="640" 
d="M474 237h-300l-93 -237h-51l272 674h48l270 -674h-51zM191 278h267l-95 237c-18 45 -27 74 -37 107h-2c-10 -34 -21 -64 -37 -104zM310 825h36l103 -115h-54l-66 79h-2l-66 -79h-50zM464 752l-33 11c19 45 56 54 56 86c0 21 -16 36 -38 36s-40 -20 -53 -39l-26 15
c15 30 41 61 88 61c43 0 76 -30 76 -69c0 -47 -42 -55 -70 -101z" />
    <glyph glyph-name="uni1EA9" unicode="&#x1ea9;" horiz-adv-x="496" 
d="M416 290v-174c0 -39 2 -77 8 -116h-45l-8 74h-2c-25 -37 -86 -86 -174 -86c-109 0 -153 74 -153 132c0 109 101 180 325 177v11c0 36 -8 144 -136 143c-48 0 -98 -12 -138 -40l-16 35c53 35 112 46 158 46c163 0 181 -126 181 -202zM367 154v102
c-127 4 -273 -16 -273 -127c0 -68 49 -101 105 -101c93 0 143 55 162 98c4 10 6 20 6 28zM212 692h41l93 -140h-51l-62 102h-2l-62 -102h-46zM368 638l-33 11c19 45 56 54 56 86c0 21 -16 36 -38 36s-40 -20 -53 -39l-26 15c15 30 41 61 88 61c43 0 76 -30 76 -69
c0 -47 -42 -55 -70 -101z" />
    <glyph glyph-name="uni1EAA" unicode="&#x1eaa;" horiz-adv-x="640" 
d="M474 237h-300l-93 -237h-51l272 674h48l270 -674h-51zM191 278h267l-95 237c-18 45 -27 74 -37 107h-2c-10 -34 -21 -64 -37 -104zM306 825h36l113 -115h-54l-76 79h-2l-76 -79h-50zM247 837h-35c0 52 23 86 61 86c20 0 36 -10 66 -25c16 -8 30 -15 42 -15
c15 0 27 9 29 43h33c0 -54 -17 -87 -60 -87c-18 0 -37 9 -60 21c-24 13 -37 19 -49 19c-17 0 -26 -19 -27 -42z" />
    <glyph glyph-name="uni1EAB" unicode="&#x1eab;" horiz-adv-x="496" 
d="M416 290v-174c0 -39 2 -77 8 -116h-45l-8 74h-2c-25 -37 -86 -86 -174 -86c-109 0 -153 74 -153 132c0 109 101 180 325 177v11c0 36 -8 144 -136 143c-48 0 -98 -12 -138 -40l-16 35c53 35 112 46 158 46c163 0 181 -126 181 -202zM367 154v102
c-127 4 -273 -16 -273 -127c0 -68 49 -101 105 -101c93 0 143 55 162 98c4 10 6 20 6 28zM225 665h42l95 -113h-53l-62 78h-2l-62 -78h-49zM169 675h-35c0 52 23 86 61 86c20 0 36 -10 66 -25c16 -8 30 -15 42 -15c15 0 27 9 29 43h33c0 -54 -17 -87 -60 -87
c-18 0 -37 9 -60 21c-24 13 -37 19 -49 19c-17 0 -26 -19 -27 -42z" />
    <glyph glyph-name="uni1EAC" unicode="&#x1eac;" horiz-adv-x="640" 
d="M474 237h-300l-93 -237h-51l272 674h48l270 -674h-51zM191 278h267l-95 237c-18 45 -27 74 -37 107h-2c-10 -34 -21 -64 -37 -104zM308 825h36l113 -115h-54l-76 79h-2l-76 -79h-50zM319 -162h-1c-21 0 -37 21 -37 41c0 19 17 41 39 41s38 -22 38 -41
c0 -20 -16 -41 -39 -41z" />
    <glyph glyph-name="uni1EAD" unicode="&#x1ead;" horiz-adv-x="496" 
d="M416 290v-174c0 -39 2 -77 8 -116h-45l-8 74h-2c-25 -37 -86 -86 -174 -86c-109 0 -153 74 -153 132c0 109 101 180 325 177v11c0 36 -8 144 -136 143c-48 0 -98 -12 -138 -40l-16 35c53 35 112 46 158 46c163 0 181 -126 181 -202zM367 154v102
c-127 4 -273 -16 -273 -127c0 -68 49 -101 105 -101c93 0 143 55 162 98c4 10 6 20 6 28zM227 692h38l100 -140h-51l-67 102h-2l-67 -102h-47zM248 -80c22 0 39 -20 39 -42s-15 -42 -41 -42c-22 0 -38 20 -38 42c0 21 18 42 40 42z" />
    <glyph glyph-name="uni1EAE" unicode="&#x1eae;" horiz-adv-x="640" 
d="M474 237h-300l-93 -237h-51l272 674h48l270 -674h-51zM191 278h267l-95 237c-18 45 -27 74 -37 107h-2c-10 -34 -21 -64 -37 -104zM211 797h36c6 -22 24 -53 82 -53c62 0 76 28 84 53h36c-5 -48 -42 -96 -121 -96c-76 0 -111 48 -117 96zM379 887h68l-108 -102h-39z" />
    <glyph glyph-name="uni1EAF" unicode="&#x1eaf;" horiz-adv-x="496" 
d="M416 290v-174c0 -39 2 -77 8 -116h-45l-8 74h-2c-25 -37 -86 -86 -174 -86c-109 0 -153 74 -153 132c0 109 101 180 325 177v11c0 36 -8 144 -136 143c-48 0 -98 -12 -138 -40l-16 35c53 35 112 46 158 46c163 0 181 -126 181 -202zM367 154v102
c-127 4 -273 -16 -273 -127c0 -68 49 -101 105 -101c93 0 143 55 162 98c4 10 6 20 6 28zM296 762h67l-108 -128h-38zM127 651h38c8 -42 38 -77 83 -77c56 0 79 44 83 77h38c-1 -72 -53 -117 -121 -117c-91 0 -120 67 -121 117z" />
    <glyph glyph-name="uni1EB0" unicode="&#x1eb0;" horiz-adv-x="640" 
d="M474 237h-300l-93 -237h-51l272 674h48l270 -674h-51zM191 278h267l-95 237c-18 45 -27 74 -37 107h-2c-10 -34 -21 -64 -37 -104zM214 887h68l79 -102h-39zM209 797h36c6 -22 24 -53 82 -53c62 0 76 28 84 53h36c-5 -48 -42 -96 -121 -96c-76 0 -111 48 -117 96z" />
    <glyph glyph-name="uni1EB1" unicode="&#x1eb1;" horiz-adv-x="496" 
d="M416 290v-174c0 -39 2 -77 8 -116h-45l-8 74h-2c-25 -37 -86 -86 -174 -86c-109 0 -153 74 -153 132c0 109 101 180 325 177v11c0 36 -8 144 -136 143c-48 0 -98 -12 -138 -40l-16 35c53 35 112 46 158 46c163 0 181 -126 181 -202zM367 154v102
c-127 4 -273 -16 -273 -127c0 -68 49 -101 105 -101c93 0 143 55 162 98c4 10 6 20 6 28zM130 762h67l79 -128h-38zM120 651h38c8 -42 38 -77 83 -77c56 0 79 44 83 77h38c-1 -72 -53 -117 -121 -117c-91 0 -120 67 -121 117z" />
    <glyph glyph-name="uni1EB2" unicode="&#x1eb2;" horiz-adv-x="640" 
d="M474 237h-300l-93 -237h-51l272 674h48l270 -674h-51zM191 278h267l-95 237c-18 45 -27 74 -37 107h-2c-10 -34 -21 -64 -37 -104zM336 770l-33 11c19 45 56 54 56 86c0 21 -16 36 -38 36s-40 -20 -53 -39l-26 15c15 30 41 61 88 61c43 0 76 -30 76 -69
c0 -47 -42 -55 -70 -101zM209 797h36c6 -22 24 -53 82 -53c62 0 76 28 84 53h36c-5 -48 -42 -96 -121 -96c-76 0 -111 48 -117 96z" />
    <glyph glyph-name="uni1EB3" unicode="&#x1eb3;" horiz-adv-x="496" 
d="M416 290v-174c0 -39 2 -77 8 -116h-45l-8 74h-2c-25 -37 -86 -86 -174 -86c-109 0 -153 74 -153 132c0 109 101 180 325 177v11c0 36 -8 144 -136 143c-48 0 -98 -12 -138 -40l-16 35c53 35 112 46 158 46c163 0 181 -126 181 -202zM367 154v102
c-127 4 -273 -16 -273 -127c0 -68 49 -101 105 -101c93 0 143 55 162 98c4 10 6 20 6 28zM245 629l-33 11c19 45 56 54 56 86c0 21 -16 36 -38 36s-40 -20 -53 -39l-26 15c15 30 41 61 88 61c43 0 76 -30 76 -69c0 -47 -42 -55 -70 -101zM117 651h38c8 -42 38 -77 83 -77
c56 0 79 44 83 77h38c-1 -72 -53 -117 -121 -117c-91 0 -120 67 -121 117z" />
    <glyph glyph-name="uni1EB4" unicode="&#x1eb4;" horiz-adv-x="640" 
d="M474 237h-300l-93 -237h-51l272 674h48l270 -674h-51zM191 278h267l-95 237c-18 45 -27 74 -37 107h-2c-10 -34 -21 -64 -37 -104zM241 834h-36c3 44 23 77 61 77c20 0 36 -10 66 -25c16 -8 30 -15 42 -15c15 0 27 9 29 43h33c0 -54 -17 -87 -60 -87c-18 0 -37 9 -60 21
c-24 13 -37 19 -49 19c-17 0 -24 -19 -26 -33zM201 797h36c6 -22 24 -53 82 -53c62 0 76 28 84 53h36c-5 -48 -42 -96 -121 -96c-76 0 -111 48 -117 96z" />
    <glyph glyph-name="uni1EB5" unicode="&#x1eb5;" horiz-adv-x="496" 
d="M416 290v-174c0 -39 2 -77 8 -116h-45l-8 74h-2c-25 -37 -86 -86 -174 -86c-109 0 -153 74 -153 132c0 109 101 180 325 177v11c0 36 -8 144 -136 143c-48 0 -98 -12 -138 -40l-16 35c53 35 112 46 158 46c163 0 181 -126 181 -202zM367 154v102
c-127 4 -273 -16 -273 -127c0 -68 49 -101 105 -101c93 0 143 55 162 98c4 10 6 20 6 28zM170 694h-36c3 44 23 77 61 77c20 0 36 -10 66 -25c16 -8 30 -15 42 -15c15 0 27 9 29 43h33c0 -54 -17 -87 -60 -87c-18 0 -37 9 -60 21c-24 13 -37 19 -49 19
c-17 0 -24 -19 -26 -33zM127 651h38c8 -42 38 -77 83 -77c56 0 79 44 83 77h38c-1 -72 -53 -117 -121 -117c-91 0 -120 67 -121 117z" />
    <glyph glyph-name="uni1EB6" unicode="&#x1eb6;" horiz-adv-x="640" 
d="M474 237h-300l-93 -237h-51l272 674h48l270 -674h-51zM191 278h267l-95 237c-18 45 -27 74 -37 107h-2c-10 -34 -21 -64 -37 -104zM204 830h36c6 -22 24 -53 84 -53c59 0 78 28 82 53h36c-2 -50 -33 -97 -121 -97c-84 0 -115 47 -117 97zM323 -162h-1
c-21 0 -37 21 -37 41c0 19 17 41 39 41s38 -22 38 -41c0 -20 -16 -41 -39 -41z" />
    <glyph glyph-name="uni1EB7" unicode="&#x1eb7;" horiz-adv-x="496" 
d="M416 290v-174c0 -39 2 -77 8 -116h-45l-8 74h-2c-25 -37 -86 -86 -174 -86c-109 0 -153 74 -153 132c0 109 101 180 325 177v11c0 36 -8 144 -136 143c-48 0 -98 -12 -138 -40l-16 35c53 35 112 46 158 46c163 0 181 -126 181 -202zM367 154v102
c-127 4 -273 -16 -273 -127c0 -68 49 -101 105 -101c93 0 143 55 162 98c4 10 6 20 6 28zM127 681h38c8 -42 38 -77 83 -77c56 0 79 44 83 77h38c-1 -72 -53 -117 -121 -117c-91 0 -120 67 -121 117zM248 -80c22 0 39 -20 39 -42s-15 -42 -41 -42c-22 0 -38 20 -38 42
c0 21 18 42 40 42z" />
    <glyph glyph-name="uni1EB8" unicode="&#x1eb8;" horiz-adv-x="511" 
d="M437 376v-41h-300v-294h334v-41h-383v674h366v-41h-317v-257h300zM255 -162h-1c-21 0 -37 21 -37 41c0 19 17 41 39 41s38 -22 38 -41c0 -20 -16 -41 -39 -41z" />
    <glyph glyph-name="uni1EB9" unicode="&#x1eb9;" horiz-adv-x="537" 
d="M490 240h-399c0 -140 89 -210 203 -210c83 0 123 16 154 30l13 -39c-17 -8 -71 -33 -172 -33c-149 0 -246 101 -246 240c0 163 104 264 240 264c178 0 209 -158 209 -222c0 -15 0 -22 -2 -30zM94 279h347c1 50 -20 173 -164 173c-122 0 -173 -100 -183 -173zM269 -80
c22 0 39 -20 39 -42s-15 -42 -41 -42c-22 0 -38 20 -38 42c0 21 18 42 40 42z" />
    <glyph glyph-name="uni1EBA" unicode="&#x1eba;" horiz-adv-x="511" 
d="M437 376v-41h-300v-294h334v-41h-383v674h366v-41h-317v-257h300zM301 713l-34 12c19 45 57 53 57 85c0 21 -14 34 -37 34c-22 0 -41 -18 -54 -37l-26 15c15 30 41 61 88 61c43 0 78 -27 78 -68c0 -47 -44 -56 -72 -102z" />
    <glyph glyph-name="uni1EBB" unicode="&#x1ebb;" horiz-adv-x="537" 
d="M490 240h-399c0 -140 89 -210 203 -210c83 0 123 16 154 30l13 -39c-17 -8 -71 -33 -172 -33c-149 0 -246 101 -246 240c0 163 104 264 240 264c178 0 209 -158 209 -222c0 -15 0 -22 -2 -30zM94 279h347c1 50 -20 173 -164 173c-122 0 -173 -100 -183 -173zM274 530
l-33 11c12 43 62 56 62 93c0 21 -16 34 -36 34c-24 0 -42 -18 -55 -37l-26 15c15 30 41 61 88 61c43 0 78 -28 78 -69c0 -51 -53 -63 -78 -108z" />
    <glyph glyph-name="uni1EBC" unicode="&#x1ebc;" horiz-adv-x="511" 
d="M437 376v-41h-300v-294h334v-41h-383v674h366v-41h-317v-257h300zM193 715h-34c-1 47 23 88 65 88c20 0 35 -8 61 -22c16 -8 35 -17 53 -17c14 0 25 5 27 38h34c0 -49 -19 -82 -61 -82c-18 0 -35 6 -63 20c-22 11 -38 20 -54 20c-18 0 -25 -20 -28 -45z" />
    <glyph glyph-name="uni1EBD" unicode="&#x1ebd;" horiz-adv-x="537" 
d="M187 576h-34c-1 56 23 90 61 90c20 0 36 -10 66 -25c16 -8 30 -15 42 -15c15 0 27 9 29 43h33c0 -54 -17 -87 -60 -87c-18 0 -37 9 -60 21c-24 13 -37 19 -49 19c-17 0 -26 -20 -28 -46zM490 240h-399c0 -140 89 -210 203 -210c83 0 123 16 154 30l13 -39
c-17 -8 -71 -33 -172 -33c-149 0 -246 101 -246 240c0 163 104 264 240 264c178 0 209 -158 209 -222c0 -15 0 -22 -2 -30zM94 279h347c1 50 -20 173 -164 173c-122 0 -173 -100 -183 -173z" />
    <glyph glyph-name="uni1EBE" unicode="&#x1ebe;" horiz-adv-x="511" 
d="M437 376v-41h-300v-294h334v-41h-383v674h366v-41h-317v-257h300zM257 825h36l103 -115h-54l-66 79h-2l-66 -79h-50zM442 898h65l-120 -102h-40z" />
    <glyph glyph-name="uni1EBF" unicode="&#x1ebf;" horiz-adv-x="537" 
d="M490 240h-399c0 -140 89 -210 203 -210c83 0 123 16 154 30l13 -39c-17 -8 -71 -33 -172 -33c-149 0 -246 101 -246 240c0 163 104 264 240 264c178 0 209 -158 209 -222c0 -15 0 -22 -2 -30zM94 279h347c1 50 -20 173 -164 173c-122 0 -173 -100 -183 -173zM262 692h41
l93 -140h-51l-62 102h-2l-62 -102h-46zM440 772h64l-96 -124h-37z" />
    <glyph glyph-name="uni1EC0" unicode="&#x1ec0;" horiz-adv-x="511" 
d="M437 376v-41h-300v-294h334v-41h-383v674h366v-41h-317v-257h300zM306 874h68l79 -102h-39zM253 825h36l103 -115h-54l-66 79h-2l-66 -79h-50z" />
    <glyph glyph-name="uni1EC1" unicode="&#x1ec1;" horiz-adv-x="537" 
d="M490 240h-399c0 -140 89 -210 203 -210c83 0 123 16 154 30l13 -39c-17 -8 -71 -33 -172 -33c-149 0 -246 101 -246 240c0 163 104 264 240 264c178 0 209 -158 209 -222c0 -15 0 -22 -2 -30zM94 279h347c1 50 -20 173 -164 173c-122 0 -173 -100 -183 -173zM323 771h62
l65 -124h-37zM258 692h41l93 -140h-51l-62 102h-2l-62 -102h-46z" />
    <glyph glyph-name="uni1EC2" unicode="&#x1ec2;" horiz-adv-x="511" 
d="M437 376v-41h-300v-294h334v-41h-383v674h366v-41h-317v-257h300zM249 825h36l103 -115h-54l-66 79h-2l-66 -79h-50zM403 752l-33 11c19 45 56 54 56 86c0 21 -16 36 -38 36s-40 -20 -53 -39l-26 15c15 30 41 61 88 61c43 0 76 -30 76 -69c0 -47 -42 -55 -70 -101z" />
    <glyph glyph-name="uni1EC3" unicode="&#x1ec3;" horiz-adv-x="537" 
d="M490 240h-399c0 -140 89 -210 203 -210c83 0 123 16 154 30l13 -39c-17 -8 -71 -33 -172 -33c-149 0 -246 101 -246 240c0 163 104 264 240 264c178 0 209 -158 209 -222c0 -15 0 -22 -2 -30zM94 279h347c1 50 -20 173 -164 173c-122 0 -173 -100 -183 -173zM254 692h41
l93 -140h-51l-62 102h-2l-62 -102h-46zM410 638l-33 11c19 45 56 54 56 86c0 21 -16 36 -38 36s-40 -20 -53 -39l-26 15c15 30 41 61 88 61c43 0 76 -30 76 -69c0 -47 -42 -55 -70 -101z" />
    <glyph glyph-name="uni1EC4" unicode="&#x1ec4;" horiz-adv-x="511" 
d="M437 376v-41h-300v-294h334v-41h-383v674h366v-41h-317v-257h300zM263 825h36l113 -115h-54l-76 79h-2l-76 -79h-50zM204 837h-35c0 52 23 86 61 86c20 0 36 -10 66 -25c16 -8 30 -15 42 -15c15 0 27 9 29 43h33c0 -54 -17 -87 -60 -87c-18 0 -37 9 -60 21
c-24 13 -37 19 -49 19c-17 0 -26 -19 -27 -42z" />
    <glyph glyph-name="uni1EC5" unicode="&#x1ec5;" horiz-adv-x="537" 
d="M490 240h-399c0 -140 89 -210 203 -210c83 0 123 16 154 30l13 -39c-17 -8 -71 -33 -172 -33c-149 0 -246 101 -246 240c0 163 104 264 240 264c178 0 209 -158 209 -222c0 -15 0 -22 -2 -30zM94 279h347c1 50 -20 173 -164 173c-122 0 -173 -100 -183 -173zM254 665h42
l95 -113h-53l-62 78h-2l-62 -78h-49zM198 675h-35c0 52 23 86 61 86c20 0 36 -10 66 -25c16 -8 30 -15 42 -15c15 0 27 9 29 43h33c0 -54 -17 -87 -60 -87c-18 0 -37 9 -60 21c-24 13 -37 19 -49 19c-17 0 -26 -19 -27 -42z" />
    <glyph glyph-name="uni1EC6" unicode="&#x1ec6;" horiz-adv-x="511" 
d="M437 376v-41h-300v-294h334v-41h-383v674h366v-41h-317v-257h300zM256 825h36l113 -115h-54l-76 79h-2l-76 -79h-50zM272 -162h-1c-21 0 -37 21 -37 41c0 19 17 41 39 41s38 -22 38 -41c0 -20 -16 -41 -39 -41z" />
    <glyph glyph-name="uni1EC7" unicode="&#x1ec7;" horiz-adv-x="537" 
d="M490 240h-399c0 -140 89 -210 203 -210c83 0 123 16 154 30l13 -39c-17 -8 -71 -33 -172 -33c-149 0 -246 101 -246 240c0 163 104 264 240 264c178 0 209 -158 209 -222c0 -15 0 -22 -2 -30zM94 279h347c1 50 -20 173 -164 173c-122 0 -173 -100 -183 -173zM247 692h38
l100 -140h-51l-67 102h-2l-67 -102h-47zM269 -80c22 0 39 -20 39 -42s-15 -42 -41 -42c-22 0 -38 20 -38 42c0 21 18 42 40 42z" />
    <glyph glyph-name="uni1EC8" unicode="&#x1ec8;" horiz-adv-x="225" 
d="M88 674h49v-674h-49v674zM133 713l-34 12c19 45 57 53 57 85c0 21 -14 34 -37 34c-22 0 -41 -18 -54 -37l-26 15c15 30 41 61 88 61c43 0 78 -27 78 -68c0 -47 -44 -56 -72 -102z" />
    <glyph glyph-name="uni1EC9" unicode="&#x1ec9;" horiz-adv-x="225" 
d="M137 0h-49v480h49v-480zM119 530l-33 11c12 43 62 56 62 93c0 21 -16 34 -36 34c-24 0 -42 -18 -55 -37l-26 15c15 30 41 61 88 61c43 0 78 -28 78 -69c0 -51 -53 -63 -78 -108z" />
    <glyph glyph-name="uni1ECA" unicode="&#x1eca;" horiz-adv-x="225" 
d="M88 674h49v-674h-49v674zM112 -162h-1c-21 0 -37 21 -37 41c0 19 17 41 39 41s38 -22 38 -41c0 -20 -16 -41 -39 -41z" />
    <glyph glyph-name="uni1ECB" unicode="&#x1ecb;" horiz-adv-x="225" 
d="M137 0h-49v480h49v-480zM113 665c23 0 40 -20 40 -43c0 -22 -16 -43 -42 -43c-23 0 -39 21 -39 43s18 43 41 43zM113 -80c22 0 39 -20 39 -42s-15 -42 -41 -42c-22 0 -38 20 -38 42c0 21 18 42 40 42z" />
    <glyph glyph-name="uni1ECC" unicode="&#x1ecc;" horiz-adv-x="753" 
d="M380 686c198 0 335 -146 335 -340c0 -233 -166 -358 -342 -358c-192 0 -335 143 -335 340c0 212 150 358 342 358zM378 646c-192 0 -289 -150 -289 -316c0 -159 109 -302 286 -302c178 0 289 135 289 314c0 146 -95 304 -286 304zM376 -162h-1c-21 0 -37 21 -37 41
c0 19 17 41 39 41s38 -22 38 -41c0 -20 -16 -41 -39 -41z" />
    <glyph glyph-name="uni1ECD" unicode="&#x1ecd;" horiz-adv-x="591" 
d="M297 492c154 0 251 -109 251 -246c0 -180 -140 -258 -258 -258c-143 0 -247 105 -247 247c0 160 120 257 254 257zM297 452c-136 0 -205 -102 -205 -214c0 -134 97 -210 201 -210c106 0 206 77 206 215c0 91 -61 209 -202 209zM296 -80c22 0 39 -20 39 -42
s-15 -42 -41 -42c-22 0 -38 20 -38 42c0 21 18 42 40 42z" />
    <glyph glyph-name="uni1ECE" unicode="&#x1ece;" horiz-adv-x="753" 
d="M380 686c198 0 335 -146 335 -340c0 -233 -166 -358 -342 -358c-192 0 -335 143 -335 340c0 212 150 358 342 358zM378 646c-192 0 -289 -150 -289 -316c0 -159 109 -302 286 -302c178 0 289 135 289 314c0 146 -95 304 -286 304zM396 713l-34 12c19 45 57 53 57 85
c0 21 -14 34 -37 34c-22 0 -41 -18 -54 -37l-26 15c15 30 41 61 88 61c43 0 78 -27 78 -68c0 -47 -44 -56 -72 -102z" />
    <glyph glyph-name="uni1ECF" unicode="&#x1ecf;" horiz-adv-x="591" 
d="M297 492c154 0 251 -109 251 -246c0 -180 -140 -258 -258 -258c-143 0 -247 105 -247 247c0 160 120 257 254 257zM297 452c-136 0 -205 -102 -205 -214c0 -134 97 -210 201 -210c106 0 206 77 206 215c0 91 -61 209 -202 209zM301 530l-33 11c12 43 62 56 62 93
c0 21 -16 34 -36 34c-24 0 -42 -18 -55 -37l-26 15c15 30 41 61 88 61c43 0 78 -28 78 -69c0 -51 -53 -63 -78 -108z" />
    <glyph glyph-name="uni1ED0" unicode="&#x1ed0;" horiz-adv-x="753" 
d="M380 686c198 0 335 -146 335 -340c0 -233 -166 -358 -342 -358c-192 0 -335 143 -335 340c0 212 150 358 342 358zM378 646c-192 0 -289 -150 -289 -316c0 -159 109 -302 286 -302c178 0 289 135 289 314c0 146 -95 304 -286 304zM367 825h36l103 -115h-54l-66 79h-2
l-66 -79h-50zM552 898h65l-120 -102h-40z" />
    <glyph glyph-name="uni1ED1" unicode="&#x1ed1;" horiz-adv-x="591" 
d="M297 492c154 0 251 -109 251 -246c0 -180 -140 -258 -258 -258c-143 0 -247 105 -247 247c0 160 120 257 254 257zM297 452c-136 0 -205 -102 -205 -214c0 -134 97 -210 201 -210c106 0 206 77 206 215c0 91 -61 209 -202 209zM279 692h41l93 -140h-51l-62 102h-2
l-62 -102h-46zM457 772h64l-96 -124h-37z" />
    <glyph glyph-name="uni1ED2" unicode="&#x1ed2;" horiz-adv-x="753" 
d="M380 686c198 0 335 -146 335 -340c0 -233 -166 -358 -342 -358c-192 0 -335 143 -335 340c0 212 150 358 342 358zM378 646c-192 0 -289 -150 -289 -316c0 -159 109 -302 286 -302c178 0 289 135 289 314c0 146 -95 304 -286 304zM416 874h68l79 -102h-39zM363 825h36
l103 -115h-54l-66 79h-2l-66 -79h-50z" />
    <glyph glyph-name="uni1ED3" unicode="&#x1ed3;" horiz-adv-x="591" 
d="M297 492c154 0 251 -109 251 -246c0 -180 -140 -258 -258 -258c-143 0 -247 105 -247 247c0 160 120 257 254 257zM297 452c-136 0 -205 -102 -205 -214c0 -134 97 -210 201 -210c106 0 206 77 206 215c0 91 -61 209 -202 209zM343 771h62l65 -124h-37zM278 692h41
l93 -140h-51l-62 102h-2l-62 -102h-46z" />
    <glyph glyph-name="uni1ED4" unicode="&#x1ed4;" horiz-adv-x="753" 
d="M380 686c198 0 335 -146 335 -340c0 -233 -166 -358 -342 -358c-192 0 -335 143 -335 340c0 212 150 358 342 358zM378 646c-192 0 -289 -150 -289 -316c0 -159 109 -302 286 -302c178 0 289 135 289 314c0 146 -95 304 -286 304zM360 825h36l103 -115h-54l-66 79h-2
l-66 -79h-50zM514 752l-33 11c19 45 56 54 56 86c0 21 -16 36 -38 36s-40 -20 -53 -39l-26 15c15 30 41 61 88 61c43 0 76 -30 76 -69c0 -47 -42 -55 -70 -101z" />
    <glyph glyph-name="uni1ED5" unicode="&#x1ed5;" horiz-adv-x="591" 
d="M297 492c154 0 251 -109 251 -246c0 -180 -140 -258 -258 -258c-143 0 -247 105 -247 247c0 160 120 257 254 257zM297 452c-136 0 -205 -102 -205 -214c0 -134 97 -210 201 -210c106 0 206 77 206 215c0 91 -61 209 -202 209zM271 692h41l93 -140h-51l-62 102h-2
l-62 -102h-46zM427 638l-33 11c19 45 56 54 56 86c0 21 -16 36 -38 36s-40 -20 -53 -39l-26 15c15 30 41 61 88 61c43 0 76 -30 76 -69c0 -47 -42 -55 -70 -101z" />
    <glyph glyph-name="uni1ED6" unicode="&#x1ed6;" horiz-adv-x="753" 
d="M380 686c198 0 335 -146 335 -340c0 -233 -166 -358 -342 -358c-192 0 -335 143 -335 340c0 212 150 358 342 358zM378 646c-192 0 -289 -150 -289 -316c0 -159 109 -302 286 -302c178 0 289 135 289 314c0 146 -95 304 -286 304zM356 825h36l113 -115h-54l-76 79h-2
l-76 -79h-50zM297 837h-35c0 52 23 86 61 86c20 0 36 -10 66 -25c16 -8 30 -15 42 -15c15 0 27 9 29 43h33c0 -54 -17 -87 -60 -87c-18 0 -37 9 -60 21c-24 13 -37 19 -49 19c-17 0 -26 -19 -27 -42z" />
    <glyph glyph-name="uni1ED7" unicode="&#x1ed7;" horiz-adv-x="591" 
d="M297 492c154 0 251 -109 251 -246c0 -180 -140 -258 -258 -258c-143 0 -247 105 -247 247c0 160 120 257 254 257zM297 452c-136 0 -205 -102 -205 -214c0 -134 97 -210 201 -210c106 0 206 77 206 215c0 91 -61 209 -202 209zM272 665h42l95 -113h-53l-62 78h-2l-62 -78
h-49zM216 675h-35c0 52 23 86 61 86c20 0 36 -10 66 -25c16 -8 30 -15 42 -15c15 0 27 9 29 43h33c0 -54 -17 -87 -60 -87c-18 0 -37 9 -60 21c-24 13 -37 19 -49 19c-17 0 -26 -19 -27 -42z" />
    <glyph glyph-name="uni1ED8" unicode="&#x1ed8;" horiz-adv-x="753" 
d="M380 686c198 0 335 -146 335 -340c0 -233 -166 -358 -342 -358c-192 0 -335 143 -335 340c0 212 150 358 342 358zM378 646c-192 0 -289 -150 -289 -316c0 -159 109 -302 286 -302c178 0 289 135 289 314c0 146 -95 304 -286 304zM356 825h36l113 -115h-54l-76 79h-2
l-76 -79h-50zM376 -162h-1c-21 0 -37 21 -37 41c0 19 17 41 39 41s38 -22 38 -41c0 -20 -16 -41 -39 -41z" />
    <glyph glyph-name="uni1ED9" unicode="&#x1ed9;" horiz-adv-x="591" 
d="M297 492c154 0 251 -109 251 -246c0 -180 -140 -258 -258 -258c-143 0 -247 105 -247 247c0 160 120 257 254 257zM297 452c-136 0 -205 -102 -205 -214c0 -134 97 -210 201 -210c106 0 206 77 206 215c0 91 -61 209 -202 209zM274 692h38l100 -140h-51l-67 102h-2
l-67 -102h-47zM296 -80c22 0 39 -20 39 -42s-15 -42 -41 -42c-22 0 -38 20 -38 42c0 21 18 42 40 42z" />
    <glyph glyph-name="uni1EDA" unicode="&#x1eda;" horiz-adv-x="753" 
d="M375 28c178 0 289 135 289 314c0 146 -95 304 -286 304c-192 0 -289 -150 -289 -316c0 -159 109 -302 286 -302zM668 742l45 8c8 -20 15 -42 15 -74c0 -55 -36 -93 -115 -79c58 -53 102 -142 102 -251c0 -233 -166 -358 -342 -358c-192 0 -335 143 -335 340
c0 212 150 358 342 358c38 0 78 -7 103 -14c31 -9 99 -42 142 -42c44 0 57 18 57 49c0 24 -6 45 -14 63zM441 825h76l-132 -115h-40z" />
    <glyph glyph-name="uni1EDB" unicode="&#x1edb;" horiz-adv-x="591" 
d="M297 452c-136 0 -205 -102 -205 -214c0 -134 97 -210 201 -210c106 0 206 77 206 215c0 91 -61 209 -202 209zM519 548l44 8c8 -19 13 -38 13 -62c0 -49 -29 -86 -94 -76c44 -45 66 -106 66 -172c0 -180 -140 -258 -258 -258c-143 0 -247 105 -247 247
c0 160 120 257 254 257c32 0 58 -4 89 -13c27 -8 59 -29 99 -29c32 0 47 17 47 45c0 19 -5 37 -13 53zM359 692h74l-127 -140h-38z" />
    <glyph glyph-name="uni1EDC" unicode="&#x1edc;" horiz-adv-x="753" 
d="M375 28c178 0 289 135 289 314c0 146 -95 304 -286 304c-192 0 -289 -150 -289 -316c0 -159 109 -302 286 -302zM668 742l45 8c8 -20 15 -42 15 -74c0 -55 -36 -93 -115 -79c58 -53 102 -142 102 -251c0 -233 -166 -358 -342 -358c-192 0 -335 143 -335 340
c0 212 150 358 342 358c38 0 78 -7 103 -14c31 -9 99 -42 142 -42c44 0 57 18 57 49c0 24 -6 45 -14 63zM253 825h76l96 -115h-40z" />
    <glyph glyph-name="uni1EDD" unicode="&#x1edd;" horiz-adv-x="591" 
d="M297 452c-136 0 -205 -102 -205 -214c0 -134 97 -210 201 -210c106 0 206 77 206 215c0 91 -61 209 -202 209zM519 548l44 8c8 -19 13 -38 13 -62c0 -49 -29 -86 -94 -76c44 -45 66 -106 66 -172c0 -180 -140 -258 -258 -258c-143 0 -247 105 -247 247
c0 160 120 257 254 257c32 0 58 -4 89 -13c27 -8 59 -29 99 -29c32 0 47 17 47 45c0 19 -5 37 -13 53zM176 692h74l91 -140h-38z" />
    <glyph glyph-name="uni1EDE" unicode="&#x1ede;" horiz-adv-x="753" 
d="M375 28c178 0 289 135 289 314c0 146 -95 304 -286 304c-192 0 -289 -150 -289 -316c0 -159 109 -302 286 -302zM668 742l45 8c8 -20 15 -42 15 -74c0 -55 -36 -93 -115 -79c58 -53 102 -142 102 -251c0 -233 -166 -358 -342 -358c-192 0 -335 143 -335 340
c0 212 150 358 342 358c38 0 78 -7 103 -14c31 -9 99 -42 142 -42c44 0 57 18 57 49c0 24 -6 45 -14 63zM396 713l-34 12c19 45 57 53 57 85c0 21 -14 34 -37 34c-22 0 -41 -18 -54 -37l-26 15c15 30 41 61 88 61c43 0 78 -27 78 -68c0 -47 -44 -56 -72 -102z" />
    <glyph glyph-name="uni1EDF" unicode="&#x1edf;" horiz-adv-x="591" 
d="M297 452c-136 0 -205 -102 -205 -214c0 -134 97 -210 201 -210c106 0 206 77 206 215c0 91 -61 209 -202 209zM519 548l44 8c8 -19 13 -38 13 -62c0 -49 -29 -86 -94 -76c44 -45 66 -106 66 -172c0 -180 -140 -258 -258 -258c-143 0 -247 105 -247 247
c0 160 120 257 254 257c32 0 58 -4 89 -13c27 -8 59 -29 99 -29c32 0 47 17 47 45c0 19 -5 37 -13 53zM301 530l-33 11c12 43 62 56 62 93c0 21 -16 34 -36 34c-24 0 -42 -18 -55 -37l-26 15c15 30 41 61 88 61c43 0 78 -28 78 -69c0 -51 -53 -63 -78 -108z" />
    <glyph glyph-name="uni1EE0" unicode="&#x1ee0;" horiz-adv-x="753" 
d="M375 28c178 0 289 135 289 314c0 146 -95 304 -286 304c-192 0 -289 -150 -289 -316c0 -159 109 -302 286 -302zM668 742l45 8c8 -20 15 -42 15 -74c0 -55 -36 -93 -115 -79c58 -53 102 -142 102 -251c0 -233 -166 -358 -342 -358c-192 0 -335 143 -335 340
c0 212 150 358 342 358c38 0 78 -7 103 -14c31 -9 99 -42 142 -42c44 0 57 18 57 49c0 24 -6 45 -14 63zM299 715h-34c-1 47 23 88 65 88c20 0 35 -8 61 -22c16 -8 35 -17 53 -17c14 0 25 5 27 38h34c0 -49 -19 -82 -61 -82c-18 0 -35 6 -63 20c-22 11 -38 20 -54 20
c-18 0 -25 -20 -28 -45z" />
    <glyph glyph-name="uni1EE1" unicode="&#x1ee1;" horiz-adv-x="591" 
d="M297 452c-136 0 -205 -102 -205 -214c0 -134 97 -210 201 -210c106 0 206 77 206 215c0 91 -61 209 -202 209zM519 548l44 8c8 -19 13 -38 13 -62c0 -49 -29 -86 -94 -76c44 -45 66 -106 66 -172c0 -180 -140 -258 -258 -258c-143 0 -247 105 -247 247
c0 160 120 257 254 257c32 0 58 -4 89 -13c27 -8 59 -29 99 -29c32 0 47 17 47 45c0 19 -5 37 -13 53zM213 576h-34c-1 56 23 90 61 90c20 0 36 -10 66 -25c16 -8 30 -15 42 -15c15 0 27 9 29 43h33c0 -54 -17 -87 -60 -87c-18 0 -37 9 -60 21c-24 13 -37 19 -49 19
c-17 0 -26 -20 -28 -46z" />
    <glyph glyph-name="uni1EE2" unicode="&#x1ee2;" horiz-adv-x="753" 
d="M375 28c178 0 289 135 289 314c0 146 -95 304 -286 304c-192 0 -289 -150 -289 -316c0 -159 109 -302 286 -302zM668 742l45 8c8 -20 15 -42 15 -74c0 -55 -36 -93 -115 -79c58 -53 102 -142 102 -251c0 -233 -166 -358 -342 -358c-192 0 -335 143 -335 340
c0 212 150 358 342 358c38 0 78 -7 103 -14c31 -9 99 -42 142 -42c44 0 57 18 57 49c0 24 -6 45 -14 63zM376 -162h-1c-21 0 -37 21 -37 41c0 19 17 41 39 41s38 -22 38 -41c0 -20 -16 -41 -39 -41z" />
    <glyph glyph-name="uni1EE3" unicode="&#x1ee3;" horiz-adv-x="591" 
d="M297 452c-136 0 -205 -102 -205 -214c0 -134 97 -210 201 -210c106 0 206 77 206 215c0 91 -61 209 -202 209zM519 548l44 8c8 -19 13 -38 13 -62c0 -49 -29 -86 -94 -76c44 -45 66 -106 66 -172c0 -180 -140 -258 -258 -258c-143 0 -247 105 -247 247
c0 160 120 257 254 257c32 0 58 -4 89 -13c27 -8 59 -29 99 -29c32 0 47 17 47 45c0 19 -5 37 -13 53zM296 -80c22 0 39 -20 39 -42s-15 -42 -41 -42c-22 0 -38 20 -38 42c0 21 18 42 40 42z" />
    <glyph glyph-name="uni1EE4" unicode="&#x1ee4;" horiz-adv-x="691" 
d="M88 674h49v-389c0 -183 91 -256 203 -256c125 0 214 78 214 256v389h49v-385c0 -217 -123 -301 -266 -301c-131 0 -249 76 -249 296v390zM345 -162h-1c-21 0 -37 21 -37 41c0 19 17 41 39 41s38 -22 38 -41c0 -20 -16 -41 -39 -41z" />
    <glyph glyph-name="uni1EE5" unicode="&#x1ee5;" horiz-adv-x="586" 
d="M498 480v-364c0 -39 1 -77 4 -116h-46l-3 97h-2c-29 -53 -90 -109 -187 -109c-55 0 -181 19 -181 223v269h49v-259c0 -112 39 -190 145 -190c73 0 134 46 160 102c6 15 12 35 12 56v291h49zM293 -80c22 0 39 -20 39 -42s-15 -42 -41 -42c-22 0 -38 20 -38 42
c0 21 18 42 40 42z" />
    <glyph glyph-name="uni1EE6" unicode="&#x1ee6;" horiz-adv-x="691" 
d="M88 674h49v-389c0 -183 91 -256 203 -256c125 0 214 78 214 256v389h49v-385c0 -217 -123 -301 -266 -301c-131 0 -249 76 -249 296v390zM365 713l-34 12c19 45 57 53 57 85c0 21 -14 34 -37 34c-22 0 -41 -18 -54 -37l-26 15c15 30 41 61 88 61c43 0 78 -27 78 -68
c0 -47 -44 -56 -72 -102z" />
    <glyph glyph-name="uni1EE7" unicode="&#x1ee7;" horiz-adv-x="586" 
d="M498 480v-364c0 -39 1 -77 4 -116h-46l-3 97h-2c-29 -53 -90 -109 -187 -109c-55 0 -181 19 -181 223v269h49v-259c0 -112 39 -190 145 -190c73 0 134 46 160 102c6 15 12 35 12 56v291h49zM299 530l-33 11c12 43 62 56 62 93c0 21 -16 34 -36 34c-24 0 -42 -18 -55 -37
l-26 15c15 30 41 61 88 61c43 0 78 -28 78 -69c0 -51 -53 -63 -78 -108z" />
    <glyph glyph-name="uni1EE8" unicode="&#x1ee8;" horiz-adv-x="714" 
d="M643 768l44 8c10 -20 16 -40 16 -66c0 -44 -32 -73 -84 -73h-16v-348c0 -217 -123 -301 -266 -301c-131 0 -249 76 -249 296v390h49v-389c0 -183 91 -256 203 -256c125 0 214 78 214 256v389h60c31 0 45 13 45 41c0 17 -6 37 -16 53zM409 825h76l-132 -115h-40z" />
    <glyph glyph-name="uni1EE9" unicode="&#x1ee9;" horiz-adv-x="586" 
d="M538 574l44 8c10 -20 16 -40 16 -63c0 -47 -39 -76 -84 -76h-16v-327c0 -39 1 -77 4 -116h-46l-3 97h-2c-29 -53 -90 -109 -187 -109c-55 0 -181 19 -181 223v269h49v-259c0 -112 39 -190 145 -190c73 0 134 46 160 102c6 15 12 35 12 56v291h60c30 0 45 13 45 41
c0 17 -6 37 -16 53zM365 692h74l-127 -140h-38z" />
    <glyph glyph-name="uni1EEA" unicode="&#x1eea;" horiz-adv-x="714" 
d="M643 768l44 8c10 -20 16 -40 16 -66c0 -44 -32 -73 -84 -73h-16v-348c0 -217 -123 -301 -266 -301c-131 0 -249 76 -249 296v390h49v-389c0 -183 91 -256 203 -256c125 0 214 78 214 256v389h60c31 0 45 13 45 41c0 17 -6 37 -16 53zM226 825h76l96 -115h-40z" />
    <glyph glyph-name="uni1EEB" unicode="&#x1eeb;" horiz-adv-x="586" 
d="M538 574l44 8c10 -20 16 -40 16 -63c0 -47 -39 -76 -84 -76h-16v-327c0 -39 1 -77 4 -116h-46l-3 97h-2c-29 -53 -90 -109 -187 -109c-55 0 -181 19 -181 223v269h49v-259c0 -112 39 -190 145 -190c73 0 134 46 160 102c6 15 12 35 12 56v291h60c30 0 45 13 45 41
c0 17 -6 37 -16 53zM171 692h74l91 -140h-38z" />
    <glyph glyph-name="uni1EEC" unicode="&#x1eec;" horiz-adv-x="714" 
d="M643 768l44 8c10 -20 16 -40 16 -66c0 -44 -32 -73 -84 -73h-16v-348c0 -217 -123 -301 -266 -301c-131 0 -249 76 -249 296v390h49v-389c0 -183 91 -256 203 -256c125 0 214 78 214 256v389h60c31 0 45 13 45 41c0 17 -6 37 -16 53zM377 713l-34 12c19 45 57 53 57 85
c0 21 -14 34 -37 34c-22 0 -41 -18 -54 -37l-26 15c15 30 41 61 88 61c43 0 78 -27 78 -68c0 -47 -44 -56 -72 -102z" />
    <glyph glyph-name="uni1EED" unicode="&#x1eed;" horiz-adv-x="586" 
d="M538 574l44 8c10 -20 16 -40 16 -63c0 -47 -39 -76 -84 -76h-16v-327c0 -39 1 -77 4 -116h-46l-3 97h-2c-29 -53 -90 -109 -187 -109c-55 0 -181 19 -181 223v269h49v-259c0 -112 39 -190 145 -190c73 0 134 46 160 102c6 15 12 35 12 56v291h60c30 0 45 13 45 41
c0 17 -6 37 -16 53zM308 530l-33 11c12 43 62 56 62 93c0 21 -16 34 -36 34c-24 0 -42 -18 -55 -37l-26 15c15 30 41 61 88 61c43 0 78 -28 78 -69c0 -51 -53 -63 -78 -108z" />
    <glyph glyph-name="uni1EEE" unicode="&#x1eee;" horiz-adv-x="714" 
d="M643 768l44 8c10 -20 16 -40 16 -66c0 -44 -32 -73 -84 -73h-16v-348c0 -217 -123 -301 -266 -301c-131 0 -249 76 -249 296v390h49v-389c0 -183 91 -256 203 -256c125 0 214 78 214 256v389h60c31 0 45 13 45 41c0 17 -6 37 -16 53zM271 715h-34c-1 47 23 88 65 88
c20 0 35 -8 61 -22c16 -8 35 -17 53 -17c14 0 25 5 27 38h34c0 -49 -19 -82 -61 -82c-18 0 -35 6 -63 20c-22 11 -38 20 -54 20c-18 0 -25 -20 -28 -45z" />
    <glyph glyph-name="uni1EEF" unicode="&#x1eef;" horiz-adv-x="586" 
d="M538 574l44 8c10 -20 16 -40 16 -63c0 -47 -39 -76 -84 -76h-16v-327c0 -39 1 -77 4 -116h-46l-3 97h-2c-29 -53 -90 -109 -187 -109c-55 0 -181 19 -181 223v269h49v-259c0 -112 39 -190 145 -190c73 0 134 46 160 102c6 15 12 35 12 56v291h60c30 0 45 13 45 41
c0 17 -6 37 -16 53zM211 576h-34c-1 56 23 90 61 90c20 0 36 -10 66 -25c16 -8 30 -15 42 -15c15 0 27 9 29 43h33c0 -54 -17 -87 -60 -87c-18 0 -37 9 -60 21c-24 13 -37 19 -49 19c-17 0 -26 -20 -28 -46z" />
    <glyph glyph-name="uni1EF0" unicode="&#x1ef0;" horiz-adv-x="714" 
d="M643 768l44 8c10 -20 16 -40 16 -66c0 -44 -32 -73 -84 -73h-16v-348c0 -217 -123 -301 -266 -301c-131 0 -249 76 -249 296v390h49v-389c0 -183 91 -256 203 -256c125 0 214 78 214 256v389h60c31 0 45 13 45 41c0 17 -6 37 -16 53zM357 -80c22 0 39 -20 39 -42
s-15 -42 -41 -42c-22 0 -38 20 -38 42c0 21 18 42 40 42z" />
    <glyph glyph-name="uni1EF1" unicode="&#x1ef1;" horiz-adv-x="586" 
d="M538 574l44 8c10 -20 16 -40 16 -63c0 -47 -39 -76 -84 -76h-16v-327c0 -39 1 -77 4 -116h-46l-3 97h-2c-29 -53 -90 -109 -187 -109c-55 0 -181 19 -181 223v269h49v-259c0 -112 39 -190 145 -190c73 0 134 46 160 102c6 15 12 35 12 56v291h60c30 0 45 13 45 41
c0 17 -6 37 -16 53zM290 -80c22 0 39 -20 39 -42s-15 -42 -41 -42c-22 0 -38 20 -38 42c0 21 18 42 40 42z" />
    <glyph glyph-name="Ygrave" unicode="&#x1ef2;" horiz-adv-x="541" 
d="M297 0h-49v288l-236 386h56l125 -210c32 -54 57 -94 82 -141h2c22 43 51 88 84 141l131 210h56l-251 -388v-286zM146 815h76l96 -115h-40z" />
    <glyph glyph-name="ygrave" unicode="&#x1ef3;" horiz-adv-x="480" 
d="M119 692h74l91 -140h-38zM9 480h53l143 -321c14 -31 30 -71 39 -101h2c11 30 24 66 40 105l134 317h53l-170 -388c-66 -152 -109 -227 -173 -273c-41 -30 -78 -41 -88 -43l-13 41c24 7 58 21 88 47c25 21 62 61 92 129c4 9 6 15 6 19s-2 11 -7 22z" />
    <glyph glyph-name="uni1EF4" unicode="&#x1ef4;" horiz-adv-x="541" 
d="M297 0h-49v288l-236 386h56l125 -210c32 -54 57 -94 82 -141h2c22 43 51 88 84 141l131 210h56l-251 -388v-286zM270 -162h-1c-21 0 -37 21 -37 41c0 19 17 41 39 41s38 -22 38 -41c0 -20 -16 -41 -39 -41z" />
    <glyph glyph-name="uni1EF5" unicode="&#x1ef5;" horiz-adv-x="480" 
d="M9 480h53l143 -321c14 -31 30 -71 39 -101h2c11 30 24 66 40 105l134 317h53l-170 -388c-66 -152 -109 -227 -173 -273c-41 -30 -78 -41 -88 -43l-13 41c24 7 58 21 88 47c25 21 62 61 92 129c4 9 6 15 6 19s-2 11 -7 22zM301 -80c22 0 39 -20 39 -42s-15 -42 -41 -42
c-22 0 -38 20 -38 42c0 21 18 42 40 42z" />
    <glyph glyph-name="uni1EF6" unicode="&#x1ef6;" horiz-adv-x="541" 
d="M297 0h-49v288l-236 386h56l125 -210c32 -54 57 -94 82 -141h2c22 43 51 88 84 141l131 210h56l-251 -388v-286zM290 713l-34 12c19 45 57 53 57 85c0 21 -14 34 -37 34c-22 0 -41 -18 -54 -37l-26 15c15 30 41 61 88 61c43 0 78 -27 78 -68c0 -47 -44 -56 -72 -102z" />
    <glyph glyph-name="uni1EF7" unicode="&#x1ef7;" horiz-adv-x="480" 
d="M9 480h53l143 -321c14 -31 30 -71 39 -101h2c11 30 24 66 40 105l134 317h53l-170 -388c-66 -152 -109 -227 -173 -273c-41 -30 -78 -41 -88 -43l-13 41c24 7 58 21 88 47c25 21 62 61 92 129c4 9 6 15 6 19s-2 11 -7 22zM256 530l-33 11c12 43 62 56 62 93
c0 21 -16 34 -36 34c-24 0 -42 -18 -55 -37l-26 15c15 30 41 61 88 61c43 0 78 -28 78 -69c0 -51 -53 -63 -78 -108z" />
    <glyph glyph-name="uni1EF8" unicode="&#x1ef8;" horiz-adv-x="541" 
d="M297 0h-49v288l-236 386h56l125 -210c32 -54 57 -94 82 -141h2c22 43 51 88 84 141l131 210h56l-251 -388v-286zM185 715h-34c-1 47 23 88 65 88c20 0 35 -8 61 -22c16 -8 35 -17 53 -17c14 0 25 5 27 38h34c0 -49 -19 -82 -61 -82c-18 0 -35 6 -63 20
c-22 11 -38 20 -54 20c-18 0 -25 -20 -28 -45z" />
    <glyph glyph-name="uni1EF9" unicode="&#x1ef9;" horiz-adv-x="480" 
d="M162 576h-34c-1 56 23 90 61 90c20 0 36 -10 66 -25c16 -8 30 -15 42 -15c15 0 27 9 29 43h33c0 -54 -17 -87 -60 -87c-18 0 -37 9 -60 21c-24 13 -37 19 -49 19c-17 0 -26 -20 -28 -46zM9 480h53l143 -321c14 -31 30 -71 39 -101h2c11 30 24 66 40 105l134 317h53
l-170 -388c-66 -152 -109 -227 -173 -273c-41 -30 -78 -41 -88 -43l-13 41c24 7 58 21 88 47c25 21 62 61 92 129c4 9 6 15 6 19s-2 11 -7 22z" />
    <glyph glyph-name="endash" unicode="&#x2013;" horiz-adv-x="500" 
d="M30 272h440v-40h-440v40z" />
    <glyph glyph-name="emdash" unicode="&#x2014;" horiz-adv-x="1000" 
d="M30 272h940v-40h-940v40z" />
    <glyph glyph-name="quoteleft" unicode="&#x2018;" horiz-adv-x="175" 
d="M102 483l-59 -10c18 75 61 189 77 217l34 5c-16 -42 -43 -150 -52 -212z" />
    <glyph glyph-name="quoteright" unicode="&#x2019;" horiz-adv-x="175" 
d="M95 685l59 10c-18 -75 -61 -189 -77 -217l-34 -5c16 42 43 150 52 212z" />
    <glyph glyph-name="quotesinglbase" unicode="&#x201a;" horiz-adv-x="175" 
d="M55 -121l-34 -5c16 42 43 150 52 212l59 10c-18 -75 -61 -189 -77 -217z" />
    <glyph glyph-name="quotedblleft" unicode="&#x201c;" horiz-adv-x="294" 
d="M102 483l-59 -10c18 75 61 189 77 217l34 5c-16 -42 -43 -150 -52 -212zM221 483l-59 -10c18 75 61 189 77 217l34 5c-16 -42 -43 -150 -52 -212z" />
    <glyph glyph-name="quotedblright" unicode="&#x201d;" horiz-adv-x="294" 
d="M95 685l59 10c-18 -75 -61 -189 -77 -217l-34 -5c16 42 43 150 52 212zM214 685l59 10c-18 -75 -61 -189 -77 -217l-34 -5c16 42 43 150 52 212z" />
    <glyph glyph-name="quotedblbase" unicode="&#x201e;" horiz-adv-x="294" 
d="M55 -121l-34 -5c16 42 43 150 52 212l59 10c-18 -75 -61 -189 -77 -217zM174 -121l-34 -5c16 42 43 150 52 212l59 10c-18 -75 -61 -189 -77 -217z" />
    <glyph glyph-name="dagger" unicode="&#x2020;" horiz-adv-x="530" 
d="M241 674h48l-4 -222l190 4v-44l-190 4l4 -466h-48l4 466l-190 -4v44l190 -4z" />
    <glyph glyph-name="daggerdbl" unicode="&#x2021;" horiz-adv-x="530" 
d="M241 674h48l-4 -212l190 4v-44l-190 4v-228l190 4v-44l-190 4l4 -212h-48l3 212l-189 -4v44l190 -4v228l-190 -4v44l190 -4z" />
    <glyph glyph-name="bullet" unicode="&#x2022;" horiz-adv-x="250" 
d="M125 176h-1c-48 0 -88 39 -88 89c-1 49 40 89 89 89c50 0 90 -40 90 -89s-40 -89 -90 -89z" />
    <glyph glyph-name="ellipsis" unicode="&#x2026;" horiz-adv-x="1000" 
d="M167 -12h-1c-24 0 -42 22 -41 46c0 27 18 47 43 47s42 -20 42 -47c0 -24 -17 -46 -43 -46zM500 -12h-1c-24 0 -42 22 -41 46c0 27 18 47 43 47s42 -20 42 -47c0 -24 -17 -46 -43 -46zM833 -12h-1c-24 0 -42 22 -41 46c0 27 18 47 43 47s42 -20 42 -47
c0 -24 -17 -46 -43 -46z" />
    <glyph glyph-name="perthousand" unicode="&#x2030;" horiz-adv-x="1130" 
d="M180 662h1c83 0 140 -63 140 -193c0 -139 -65 -207 -148 -207c-74 0 -141 60 -143 195c0 140 75 205 150 205zM176 628h-1c-59 0 -102 -63 -102 -166c-3 -103 41 -166 102 -166c69 0 103 64 103 169c0 98 -30 163 -102 163zM203 -12h-41l403 674h41zM599 395h1
c83 0 140 -63 140 -193c0 -139 -65 -207 -148 -207c-74 0 -141 60 -143 195c0 140 75 205 150 205zM595 361h-1c-59 0 -102 -63 -102 -166c-3 -103 41 -166 102 -166c69 0 103 64 103 169c0 98 -30 163 -102 163zM959 395h1c83 0 140 -63 140 -193
c0 -139 -65 -207 -148 -207c-74 0 -141 60 -143 195c0 140 75 205 150 205zM955 361h-1c-59 0 -102 -63 -102 -166c-3 -103 41 -166 102 -166c69 0 103 64 103 169c0 98 -30 163 -102 163z" />
    <glyph glyph-name="guilsinglleft" unicode="&#x2039;" horiz-adv-x="260" 
d="M238 436l-156 -184l157 -184h-52l-157 184l156 184h52z" />
    <glyph glyph-name="guilsinglright" unicode="&#x203a;" horiz-adv-x="260" 
d="M178 252l-157 184h52l157 -184l-157 -184h-51z" />
    <glyph glyph-name="fraction" unicode="&#x2044;" horiz-adv-x="124" 
d="M-119 -12h-41l403 674h41z" />
    <glyph glyph-name="zero.superior" unicode="&#x2070;" horiz-adv-x="331" 
d="M162 446h-1c-74 0 -135 66 -135 198c0 134 65 202 143 202c83 0 136 -68 136 -194c0 -131 -52 -206 -143 -206zM164 480h1c64 0 95 65 95 169c0 100 -29 163 -95 163c-55 0 -94 -62 -94 -163c0 -107 37 -169 93 -169z" />
    <glyph glyph-name="four.superior" unicode="&#x2074;" horiz-adv-x="341" 
d="M259 451h-43v108h-201v29l198 249h46v-243h61v-35h-61v-108zM216 594v149c0 16 1 33 2 49l-2 1c-11 -19 -20 -33 -30 -46l-123 -152v-1h153z" />
    <glyph glyph-name="five.superior" unicode="&#x2075;" horiz-adv-x="303" 
d="M262 837v-37h-162l-16 -106c10 1 20 2 39 2c31 0 56 -4 81 -15c34 -15 66 -50 66 -106c0 -76 -63 -131 -147 -131c-48 0 -85 15 -104 27l13 33c17 -11 51 -24 92 -24c56 0 101 38 101 89s-33 92 -119 92c-26 0 -47 -3 -63 -5l25 181h194z" />
    <glyph glyph-name="six.superior" unicode="&#x2076;" horiz-adv-x="334" 
d="M265 846l1 -37c-13 0 -29 0 -46 -3c-88 -14 -140 -78 -148 -149h1c19 27 57 53 107 53c77 0 128 -53 128 -127c0 -67 -50 -137 -137 -137c-81 0 -145 58 -145 166c0 78 31 139 71 175c33 30 76 48 126 55c17 2 31 4 42 4zM172 481h1c55 0 90 46 90 100
c0 59 -40 94 -96 94c-38 0 -73 -23 -90 -53c-4 -7 -7 -14 -7 -23c0 -63 34 -118 102 -118z" />
    <glyph glyph-name="seven.superior" unicode="&#x2077;" horiz-adv-x="291" 
d="M20 837h257v-31l-187 -355h-46l186 349v1h-210v36z" />
    <glyph glyph-name="eight.superior" unicode="&#x2078;" horiz-adv-x="328" 
d="M168 846h1c76 0 118 -44 118 -95c0 -31 -15 -69 -70 -91v-2c56 -18 86 -54 86 -99c0 -70 -64 -113 -139 -113c-80 0 -138 44 -138 106c0 47 28 81 83 102v3c-49 19 -68 52 -68 86c0 60 54 103 127 103zM163 479h1c59 0 93 35 93 74c0 51 -37 74 -102 88
c-54 -11 -84 -43 -84 -83s33 -79 92 -79zM166 814h-1c-53 0 -81 -33 -81 -67c0 -42 32 -64 88 -75c40 10 72 34 72 75c0 29 -20 67 -78 67z" />
    <glyph glyph-name="nine.superior" unicode="&#x2079;" horiz-adv-x="328" 
d="M63 446v37c12 -1 28 0 49 2c35 4 66 19 92 44s45 60 53 108h-2c-26 -32 -61 -49 -105 -49c-79 0 -124 57 -124 119c0 72 56 139 142 139c77 0 134 -57 134 -165c0 -90 -34 -150 -73 -184c-30 -26 -72 -42 -110 -47c-22 -3 -42 -5 -56 -4zM162 812h-1
c-56 0 -91 -49 -91 -103c0 -48 36 -86 89 -86c43 0 76 21 93 47c3 4 5 10 5 17c0 66 -28 125 -95 125z" />
    <glyph glyph-name="parenleft.superior" unicode="&#x207d;" horiz-adv-x="169" 
d="M125 875h37c-50 -62 -84 -136 -84 -245c0 -106 36 -179 84 -242h-37c-42 52 -86 126 -86 242c0 117 44 192 86 245z" />
    <glyph glyph-name="parenright.superior" unicode="&#x207e;" horiz-adv-x="169" 
d="M44 388h-36c48 62 84 136 84 244c0 107 -35 180 -84 243h36c42 -52 86 -126 86 -243c0 -116 -44 -191 -86 -244z" />
    <glyph glyph-name="zero.inferior" unicode="&#x2080;" horiz-adv-x="331" 
d="M162 -152h-1c-74 0 -135 66 -135 198c0 134 65 202 143 202c83 0 136 -68 136 -194c0 -131 -52 -206 -143 -206zM164 -118h1c64 0 95 65 95 169c0 100 -29 163 -95 163c-55 0 -94 -62 -94 -163c0 -107 37 -169 93 -169z" />
    <glyph glyph-name="one.inferior" unicode="&#x2081;" horiz-adv-x="215" 
d="M143 -147h-41v350h-2l-65 -32l-9 33l79 39h38v-390z" />
    <glyph glyph-name="two.inferior" unicode="&#x2082;" horiz-adv-x="305" 
d="M14 -147v29l73 65c99 88 134 131 134 180c0 42 -24 86 -93 86c-39 0 -70 -21 -88 -34l-15 26c25 24 68 43 113 43c100 0 128 -70 128 -109c0 -80 -58 -134 -158 -219l-34 -29v-2h198v-36h-258z" />
    <glyph glyph-name="three.inferior" unicode="&#x2083;" horiz-adv-x="298" 
d="M50 184l-16 32c22 14 60 32 105 32c88 0 115 -50 115 -92c0 -39 -28 -74 -77 -92v-2c61 -9 95 -52 95 -99c0 -54 -47 -115 -150 -115c-50 0 -92 15 -110 29l16 33c14 -11 56 -28 96 -28c84 0 105 54 104 81c-1 62 -69 82 -125 82h-32v33h34c43 0 104 20 105 77
c0 24 -19 59 -74 59c-38 0 -73 -19 -86 -30z" />
    <glyph glyph-name="four.inferior" unicode="&#x2084;" horiz-adv-x="341" 
d="M259 -147h-43v108h-201v29l198 249h46v-243h61v-35h-61v-108zM216 -4v149c0 16 1 33 2 49l-2 1c-11 -19 -20 -33 -30 -46l-123 -152v-1h153z" />
    <glyph glyph-name="five.inferior" unicode="&#x2085;" horiz-adv-x="303" 
d="M262 239v-37h-162l-16 -106c10 1 20 2 39 2c31 0 56 -4 81 -15c34 -15 66 -50 66 -106c0 -76 -63 -131 -147 -131c-48 0 -85 15 -104 27l13 33c17 -11 51 -24 92 -24c56 0 101 38 101 89s-33 92 -119 92c-26 0 -47 -3 -63 -5l25 181h194z" />
    <glyph glyph-name="six.inferior" unicode="&#x2086;" horiz-adv-x="334" 
d="M265 248l1 -37c-13 0 -29 0 -46 -3c-88 -14 -140 -78 -148 -149h1c19 27 57 53 107 53c77 0 128 -53 128 -127c0 -67 -50 -137 -137 -137c-81 0 -145 58 -145 166c0 78 31 139 71 175c33 30 76 48 126 55c17 2 31 4 42 4zM172 -117h1c55 0 90 46 90 100
c0 59 -40 94 -96 94c-38 0 -73 -23 -90 -53c-4 -7 -7 -14 -7 -23c0 -63 34 -118 102 -118z" />
    <glyph glyph-name="seven.inferior" unicode="&#x2087;" horiz-adv-x="291" 
d="M20 239h257v-31l-187 -355h-46l186 349v1h-210v36z" />
    <glyph glyph-name="eight.inferior" unicode="&#x2088;" horiz-adv-x="328" 
d="M168 248h1c76 0 118 -44 118 -95c0 -31 -15 -69 -70 -91v-2c56 -18 86 -54 86 -99c0 -70 -64 -113 -139 -113c-80 0 -138 44 -138 106c0 47 28 81 83 102v3c-49 19 -68 52 -68 86c0 60 54 103 127 103zM163 -119h1c59 0 93 35 93 74c0 51 -37 74 -102 88
c-54 -11 -84 -43 -84 -83s33 -79 92 -79zM166 216h-1c-53 0 -81 -33 -81 -67c0 -42 32 -64 88 -75c40 10 72 34 72 75c0 29 -20 67 -78 67z" />
    <glyph glyph-name="nine.inferior" unicode="&#x2089;" horiz-adv-x="328" 
d="M63 -152v37c12 -1 28 0 49 2c35 4 66 19 92 44s45 60 53 108h-2c-26 -32 -61 -49 -105 -49c-79 0 -124 57 -124 119c0 72 56 139 142 139c77 0 134 -57 134 -165c0 -90 -34 -150 -73 -184c-30 -26 -72 -42 -110 -47c-22 -3 -42 -5 -56 -4zM162 214h-1
c-56 0 -91 -49 -91 -103c0 -48 36 -86 89 -86c43 0 76 21 93 47c3 4 5 10 5 17c0 66 -28 125 -95 125z" />
    <glyph glyph-name="parenleft.inferior" unicode="&#x208d;" horiz-adv-x="169" 
d="M125 277h37c-50 -62 -84 -136 -84 -245c0 -106 36 -179 84 -242h-37c-42 52 -86 126 -86 242c0 117 44 192 86 245z" />
    <glyph glyph-name="parenright.inferior" unicode="&#x208e;" horiz-adv-x="169" 
d="M44 -210h-36c48 62 84 136 84 244c0 107 -35 180 -84 243h36c42 -52 86 -126 86 -243c0 -116 -44 -191 -86 -244z" />
    <glyph glyph-name="dong" unicode="&#x20ab;" horiz-adv-x="530" 
d="M96 91h338v-41h-338v41zM382 660h46v-75h68v-36h-68v-302c0 -27 1 -53 3 -80h-44l-1 66h-1c-22 -42 -70 -75 -143 -75c-98 0 -167 75 -167 167c0 108 77 183 181 183c66 0 106 -34 124 -63h2v104h-142v36h142v75zM382 316v39c0 10 -2 25 -5 33c-14 44 -57 81 -120 81
c-77 0 -131 -54 -131 -140c0 -71 43 -133 127 -133c61 0 111 39 124 89c3 9 5 21 5 31z" />
    <glyph glyph-name="Euro" unicode="&#x20ac;" horiz-adv-x="530" 
d="M508 71l13 -35c-33 -25 -86 -48 -161 -48c-79 0 -146 29 -195 78c-48 48 -78 116 -87 193h-65v37h62v13c0 19 1 38 3 56h-65v37h71c12 71 44 135 93 182c50 48 113 78 197 78c67 0 113 -20 138 -35l-15 -38c-30 19 -76 33 -127 33c-66 0 -117 -23 -157 -60
c-41 -39 -68 -98 -80 -160h337v-37h-343c-2 -17 -3 -35 -3 -52v-17h346v-37h-343c9 -71 36 -127 75 -165c43 -42 100 -64 163 -64c66 0 115 24 143 41z" />
    </font>
</defs>
</svg>
